<?xml version="1.0" encoding="UTF-8"?>

<svg xmlns="http://www.w3.org/2000/svg" version="1.1"
    xmlns:freecad="http://www.freecadweb.org/wiki/index.php?title=Svg_Namespace"
	width="1189mm"
	height="841mm"
	viewBox="0 0 1189 841">
	<!-- Working space 0 0 1189 841 -->
	<defs>
		<radialGradient
			id="radialGradient3661"
			gradientUnits="userSpaceOnUse"
			cy="29.149"
			cx="282.65"
			gradientTransform="matrix(.14777 .23089 -.24680 .15795 -26.318 -62.617)"
			r="19.571">
				<stop stop-color="#71b2f8" offset="0"/>
				<stop stop-color="#002795" offset="1"/>
		</radialGradient>
		<radialGradient
			id="radialGradient3817"
			gradientUnits="userSpaceOnUse"
			cy="33.9"
			cx="270.58"
			gradientTransform="matrix(.26631 .065024 -.17931 .73438 -60.668 -36.938)"
			r="19.571">
				<stop stop-color="#ff6d0f" offset="0"/>
				<stop stop-color="#ff1000" offset="1"/>
		</radialGradient>
	</defs>
	<!-- Set display:none to hide FreeCAD Logo -->
	<g
		style="display:inline"
		id="freecad-logo"
		transform="translate(1131, 786) scale(3)"
		fill-rule="evenodd"
		stroke-width=".45621">
		<path d="m0.22811 0.22835v13.256h2.9558v-5.1876h2.09v-2.0452h-2.09v-2.2075h5.1486v-3.8087l-8.1044-0.0075z"
			stroke="#370700"
			fill="url(#radialGradient3817)"/>
		<path d="m13.386 4.1792-1.7193 0.98645-0.75925-0.26348-0.72439-1.8513-1.1395 0.05988-0.51976 1.9144-0.72743 0.34835-1.8143-0.79367-0.76632 0.85156 0.98645 1.7193-0.26957 0.75702-1.8513 0.72439 0.065967 1.1417 1.9144 0.51976 0.34835 0.72743-0.79976 1.8121 0.85156 0.76632 1.7193-0.98645 0.76311 0.27179 0.7183 1.8491 1.1478-0.06375 0.51367-1.9166 0.72743-0.34835 1.8182 0.80198 0.76632-0.85156-0.98645-1.7193 0.2657-0.76533 1.8491-0.7183-0.05766-1.1456-1.9166-0.51367-0.34835-0.72743 0.7959-1.8204-0.85156-0.76632zm-2.5751 2.8195 0.35295 0.20478 0.30579 0.27725 0.24481 0.33087 0.17611 0.36787 0.10354 0.39656 0.01715 0.4064-0.0587 0.4063-0.13396 0.38571-0.2131 0.35681-0.26894 0.30192-0.33087 0.24481-0.36787 0.17611-0.39656 0.10354-0.40863 0.02325-0.4063-0.0587-0.38571-0.13396-0.35681-0.2131-0.2997-0.27503-0.24703-0.32478-0.17611-0.36787-0.10132-0.40264-0.02324-0.40863 0.05869-0.4063 0.13396-0.38571 0.21087-0.35072 0.27116-0.30801 0.33087-0.24481 0.36787-0.17611 0.40264-0.10132 0.40641-0.01715 0.4063 0.05869 0.38571 0.13396z" 
		stroke="#000137"
		fill="url(#radialGradient3661)"/>
	</g>
<g id="bigWheel_wheelBody_Ortho_0_001"
   transform="rotate(0,760,420) translate(760,420) scale(0.25,0.25)"
  >
<g   fill="none"
   stroke="rgb(0, 0, 0)"
   stroke-linecap="butt"
   stroke-linejoin="miter"
   stroke-width="1.400000"
   transform="scale(1,-1)"
  >
<circle cx ="0" cy ="0" r ="670" /><circle cx ="-55.0132" cy ="39.9694" r ="3" /><path d="M36 0 A36 36 0 0 1 29.1246 21.1603" /><path d="M29.1246 -21.1603 A36 36 0 0 1 36 -8.81746e-15" /><path d="M29.1246 21.1603 A36 36 0 0 1 11.1246 34.238" /><path d="M11.1246 -34.238 A36 36 0 0 1 29.1246 -21.1603" /><path d="M11.1246 34.238 A36 36 0 0 1 -11.1246 34.238" /><path d="M-11.1246 -34.238 A36 36 0 0 1 11.1246 -34.238" /><path d="M-11.1246 34.238 A36 36 0 0 1 -29.1246 21.1603" /><path d="M-29.1246 -21.1603 A36 36 0 0 1 -11.1246 -34.238" /><path d="M-29.1246 21.1603 A36 36 0 0 1 -36 -2.75657e-14" /><path d="M-36 -2.75657e-14 A36 36 0 0 1 -29.1246 -21.1603" /><circle cx ="68" cy ="0" r ="3" /><circle cx ="55.0132" cy ="39.9694" r ="3" /><path id= "15" d=" M 84 -5 L 84 5 " />
<path id= "16" d=" M 108 -5 L 84 -5 " />
<path id= "17" d=" M 84 5 L 108 5 " />
<path id= "18" d=" M 108 5 L 108 -5 " />
<path id= "19" d=" M 372 -5 L 372 5 " />
<path id= "20" d=" M 396 -5 L 372 -5 " />
<path id= "21" d=" M 372 5 L 396 5 " />
<path id= "22" d=" M 396 5 L 396 -5 " />
<circle cx ="336" cy ="0" r ="3" /><path id= "24" d=" M 276 -5 L 276 5 " />
<path id= "25" d=" M 300 -5 L 276 -5 " />
<path id= "26" d=" M 276 5 L 300 5 " />
<path id= "27" d=" M 300 5 L 300 -5 " />
<path id= "28" d=" M 180 -5 L 180 5 " />
<path id= "29" d=" M 204 -5 L 180 -5 " />
<path id= "30" d=" M 180 5 L 204 5 " />
<path id= "31" d=" M 204 5 L 204 -5 " />
<circle cx ="432" cy ="0" r ="3" /><path id= "33" d=" M 468 -5 L 468 5 " />
<path id= "34" d=" M 492 -5 L 468 -5 " />
<path id= "35" d=" M 468 5 L 492 5 " />
<path id= "36" d=" M 492 5 L 492 -5 " />
<circle cx ="55.0132" cy ="-39.9694" r ="3" /><circle cx ="-55.0132" cy ="-39.9694" r ="3" /><path id= "39" d=" M -60.3783 -169.645 L -50.8678 -172.735 " />
<path id= "40" d=" M -67.7947 -192.47 L -60.3783 -169.645 " />
<path id= "41" d=" M -50.8678 -172.735 L -58.2842 -195.561 " />
<path id= "42" d=" M -58.2842 -195.561 L -67.7947 -192.47 " />
<path id= "43" d=" M -30.7127 -78.3437 L -21.2021 -81.4338 " />
<path id= "44" d=" M -38.1291 -101.169 L -30.7127 -78.3437 " />
<path id= "45" d=" M -21.2021 -81.4338 L -28.6186 -104.259 " />
<path id= "46" d=" M -28.6186 -104.259 L -38.1291 -101.169 " />
<path id= "47" d=" M -70.8964 -45.3289 L -65.0185 -53.419 " />
<path id= "48" d=" M -90.3128 -59.4357 L -70.8964 -45.3289 " />
<path id= "49" d=" M -65.0185 -53.419 L -84.4349 -67.5259 " />
<path id= "50" d=" M -84.4349 -67.5259 L -90.3128 -59.4357 " />
<path id= "51" d=" M 65.0185 -53.419 L 70.8964 -45.3289 " />
<path id= "52" d=" M 84.4349 -67.5259 L 65.0185 -53.419 " />
<path id= "53" d=" M 90.3128 -59.4357 L 84.4349 -67.5259 " />
<path id= "54" d=" M 70.8964 -45.3289 L 90.3128 -59.4357 " />
<circle cx ="-21.0132" cy ="-64.6718" r ="3" /><circle cx ="21.0132" cy ="-64.6718" r ="3" /><path id= "57" d=" M 21.2021 -81.4338 L 30.7127 -78.3437 " />
<path id= "58" d=" M 28.6186 -104.259 L 21.2021 -81.4338 " />
<path id= "59" d=" M 30.7127 -78.3437 L 38.1291 -101.169 " />
<path id= "60" d=" M 38.1291 -101.169 L 28.6186 -104.259 " />
<path id= "61" d=" M 50.8678 -172.735 L 60.3783 -169.645 " />
<path id= "62" d=" M 58.2842 -195.561 L 50.8678 -172.735 " />
<path id= "63" d=" M 60.3783 -169.645 L 67.7947 -192.47 " />
<path id= "64" d=" M 67.7947 -192.47 L 58.2842 -195.561 " />
<path id= "65" d=" M 220.35 -166.274 L 226.228 -158.184 " />
<path id= "66" d=" M 239.766 -180.381 L 220.35 -166.274 " />
<path id= "67" d=" M 245.644 -172.29 L 239.766 -180.381 " />
<path id= "68" d=" M 226.228 -158.184 L 245.644 -172.29 " />
<path id= "69" d=" M 142.684 -109.846 L 148.562 -101.756 " />
<path id= "70" d=" M 162.101 -123.953 L 142.684 -109.846 " />
<path id= "71" d=" M 167.978 -115.863 L 162.101 -123.953 " />
<path id= "72" d=" M 148.562 -101.756 L 167.978 -115.863 " />
<path id= "73" d=" M 342.904 -135.416 L 493.991 -245.187 " />
<path d="M357.011 -92 A24 24 0 0 1 342.904 -135.416" /><path d="M493.991 -245.187 A24 24 0 0 1 530.03 -235.516" /><path id= "76" d=" M 543.765 -92 L 357.011 -92 " />
<path d="M530.03 -235.516 A580 580 0 0 1 567.237 -121.007" /><path d="M567.237 -121.007 A24 24 0 0 1 543.765 -92" /><circle cx ="271.83" cy ="-197.496" r ="3" /><path id= "80" d=" M 298.015 -222.701 L 303.893 -214.611 " />
<path id= "81" d=" M 317.432 -236.808 L 298.015 -222.701 " />
<path id= "82" d=" M 323.31 -228.718 L 317.432 -236.808 " />
<path id= "83" d=" M 303.893 -214.611 L 323.31 -228.718 " />
<circle cx ="415.647" cy ="-486.66" r ="3" /><path id= "85" d=" M 375.681 -279.129 L 381.559 -271.038 " />
<path id= "86" d=" M 395.097 -293.235 L 375.681 -279.129 " />
<path id= "87" d=" M 400.975 -285.145 L 395.097 -293.235 " />
<path id= "88" d=" M 381.559 -271.038 L 400.975 -285.145 " />
<path id= "89" d=" M 197.82 -311.108 L 255.53 -488.721 " />
<path d="M234.752 -284.276 A24 24 0 0 1 197.82 -311.108" /><path d="M255.53 -488.721 A24 24 0 0 1 290.37 -502.081" /><path id= "92" d=" M 385.839 -394.046 L 234.752 -284.276 " />
<path d="M290.37 -502.081 A580 580 0 0 1 387.778 -431.31" /><path d="M387.778 -431.31 A24 24 0 0 1 385.839 -394.046" /><path id= "95" d=" M 110.199 -355.338 L 119.71 -352.248 " />
<path id= "96" d=" M 117.615 -378.163 L 110.199 -355.338 " />
<path id= "97" d=" M 119.71 -352.248 L 127.126 -375.073 " />
<path id= "98" d=" M 127.126 -375.073 L 117.615 -378.163 " />
<circle cx ="133.495" cy ="-410.856" r ="3" /><path id= "100" d=" M 139.865 -446.64 L 149.375 -443.549 " />
<path id= "101" d=" M 147.281 -469.465 L 139.865 -446.64 " />
<path id= "102" d=" M 149.375 -443.549 L 156.792 -466.375 " />
<path id= "103" d=" M 156.792 -466.375 L 147.281 -469.465 " />
<circle cx ="545.69" cy ="-334.399" r ="3" /><circle cx ="486.66" cy ="-415.647" r ="3" /><path id= "106" d=" M 80.5334 -264.037 L 90.044 -260.947 " />
<path id= "107" d=" M 87.9498 -286.862 L 80.5334 -264.037 " />
<path id= "108" d=" M 90.044 -260.947 L 97.4604 -283.772 " />
<path id= "109" d=" M 97.4604 -283.772 L 87.9498 -286.862 " />
<circle cx ="103.83" cy ="-319.555" r ="3" /><circle cx ="349.495" cy ="-253.923" r ="3" /><path id= "112" d=" M 70.8964 45.3289 L 65.0185 53.419 " />
<path id= "113" d=" M 90.3128 59.4357 L 70.8964 45.3289 " />
<path id= "114" d=" M 65.0185 53.419 L 84.4349 67.5259 " />
<path id= "115" d=" M 84.4349 67.5259 L 90.3128 59.4357 " />
<circle cx ="-638.027" cy ="50.2138" r ="3" /><circle cx ="-432" cy ="5.29e-14" r ="3" /><path id= "118" d=" M -468 5 L -468 -5 " />
<path id= "119" d=" M -492 5 L -468 5 " />
<path id= "120" d=" M -468 -5 L -492 -5 " />
<path id= "121" d=" M -492 -5 L -492 5 " />
<path id= "122" d=" M -180 5 L -180 -5 " />
<path id= "123" d=" M -204 5 L -180 5 " />
<path id= "124" d=" M -180 -5 L -204 -5 " />
<path id= "125" d=" M -204 -5 L -204 5 " />
<circle cx ="-336" cy ="4.115e-14" r ="3" /><path id= "127" d=" M -276 5 L -276 -5 " />
<path id= "128" d=" M -300 5 L -276 5 " />
<path id= "129" d=" M -276 -5 L -300 -5 " />
<path id= "130" d=" M -300 -5 L -300 5 " />
<path id= "131" d=" M -372 5 L -372 -5 " />
<path id= "132" d=" M -396 5 L -372 5 " />
<path id= "133" d=" M -372 -5 L -396 -5 " />
<path id= "134" d=" M -396 -5 L -396 5 " />
<circle cx ="-591.283" cy ="-244.917" r ="3" /><path id= "136" d=" M -303.893 -214.611 L -298.015 -222.701 " />
<path id= "137" d=" M -323.31 -228.718 L -303.893 -214.611 " />
<path id= "138" d=" M -298.015 -222.701 L -317.432 -236.808 " />
<path id= "139" d=" M -317.432 -236.808 L -323.31 -228.718 " />
<circle cx ="-622.317" cy ="-149.405" r ="3" /><circle cx ="-271.83" cy ="-197.496" r ="3" /><circle cx ="-638.027" cy ="-50.2138" r ="3" /><circle cx ="-133.495" cy ="-410.856" r ="3" /><path id= "144" d=" M -149.375 -443.549 L -139.865 -446.64 " />
<path id= "145" d=" M -156.792 -466.375 L -149.375 -443.549 " />
<path id= "146" d=" M -139.865 -446.64 L -147.281 -469.465 " />
<path id= "147" d=" M -147.281 -469.465 L -156.792 -466.375 " />
<path id= "148" d=" M -381.559 -271.038 L -375.681 -279.129 " />
<path id= "149" d=" M -400.975 -285.145 L -381.559 -271.038 " />
<path id= "150" d=" M -375.681 -279.129 L -395.097 -293.235 " />
<path id= "151" d=" M -395.097 -293.235 L -400.975 -285.145 " />
<path id= "152" d=" M -234.752 -284.276 L -385.839 -394.046 " />
<path d="M-197.82 -311.108 A24 24 0 0 1 -234.752 -284.276" /><path d="M-385.839 -394.046 A24 24 0 0 1 -387.778 -431.31" /><path id= "155" d=" M -255.53 -488.721 L -197.82 -311.108 " />
<path d="M-387.778 -431.31 A580 580 0 0 1 -290.37 -502.081" /><path d="M-290.37 -502.081 A24 24 0 0 1 -255.53 -488.721" /><circle cx ="-486.66" cy ="-415.647" r ="3" /><circle cx ="-415.647" cy ="-486.66" r ="3" /><path id= "160" d=" M -357.011 -92 L -543.765 -92 " />
<path d="M-342.904 -135.416 A24 24 0 0 1 -357.011 -92" /><path d="M-543.765 -92 A24 24 0 0 1 -567.237 -121.007" /><path id= "163" d=" M -493.991 -245.187 L -342.904 -135.416 " />
<path d="M-567.237 -121.007 A580 580 0 0 1 -530.03 -235.516" /><path d="M-530.03 -235.516 A24 24 0 0 1 -493.991 -245.187" /><path id= "166" d=" M -226.228 -158.184 L -220.35 -166.274 " />
<path id= "167" d=" M -245.644 -172.29 L -226.228 -158.184 " />
<path id= "168" d=" M -220.35 -166.274 L -239.766 -180.381 " />
<path id= "169" d=" M -239.766 -180.381 L -245.644 -172.29 " />
<circle cx ="-545.69" cy ="-334.399" r ="3" /><circle cx ="-349.495" cy ="-253.923" r ="3" /><path id= "172" d=" M -148.562 -101.756 L -142.684 -109.846 " />
<path id= "173" d=" M -167.978 -115.863 L -148.562 -101.756 " />
<path id= "174" d=" M -142.684 -109.846 L -162.101 -123.953 " />
<path id= "175" d=" M -162.101 -123.953 L -167.978 -115.863 " />
<path id= "176" d=" M -65.0185 53.419 L -70.8964 45.3289 " />
<path id= "177" d=" M -84.4349 67.5259 L -65.0185 53.419 " />
<path id= "178" d=" M -70.8964 45.3289 L -90.3128 59.4357 " />
<path id= "179" d=" M -90.3128 59.4357 L -84.4349 67.5259 " />
<circle cx ="-68" cy ="8.33e-15" r ="3" /><path id= "181" d=" M -84 5 L -84 -5 " />
<path id= "182" d=" M -108 5 L -84 5 " />
<path id= "183" d=" M -84 -5 L -108 -5 " />
<path id= "184" d=" M -108 -5 L -108 5 " />
<circle cx ="-103.83" cy ="-319.555" r ="3" /><path id= "186" d=" M -90.044 -260.947 L -80.5334 -264.037 " />
<path id= "187" d=" M -97.4604 -283.772 L -90.044 -260.947 " />
<path id= "188" d=" M -80.5334 -264.037 L -87.9498 -286.862 " />
<path id= "189" d=" M -87.9498 -286.862 L -97.4604 -283.772 " />
<path id= "190" d=" M -119.71 -352.248 L -110.199 -355.338 " />
<path id= "191" d=" M -127.126 -375.073 L -119.71 -352.248 " />
<path id= "192" d=" M -110.199 -355.338 L -117.615 -378.163 " />
<path id= "193" d=" M -117.615 -378.163 L -127.126 -375.073 " />
<circle cx ="21.0132" cy ="64.6718" r ="3" /><circle cx ="-21.0132" cy ="64.6718" r ="3" /><circle cx ="334.399" cy ="545.69" r ="3" /><path id= "197" d=" M 119.71 352.248 L 110.199 355.338 " />
<path id= "198" d=" M 127.126 375.073 L 119.71 352.248 " />
<path id= "199" d=" M 110.199 355.338 L 117.615 378.163 " />
<path id= "200" d=" M 117.615 378.163 L 127.126 375.073 " />
<circle cx ="133.495" cy ="410.856" r ="3" /><path id= "202" d=" M 149.375 443.549 L 139.865 446.64 " />
<path id= "203" d=" M 156.792 466.375 L 149.375 443.549 " />
<path id= "204" d=" M 139.865 446.64 L 147.281 469.465 " />
<path id= "205" d=" M 147.281 469.465 L 156.792 466.375 " />
<path id= "206" d=" M 90.044 260.947 L 80.5334 264.037 " />
<path id= "207" d=" M 97.4604 283.772 L 90.044 260.947 " />
<path id= "208" d=" M 80.5334 264.037 L 87.9498 286.862 " />
<path id= "209" d=" M 87.9498 286.862 L 97.4604 283.772 " />
<circle cx ="103.83" cy ="319.555" r ="3" /><path id= "211" d=" M 22.8254 367.967 L 80.5353 545.58 " />
<path d="M-22.8254 367.967 A24 24 0 0 1 22.8254 367.967" /><path d="M80.5353 545.58 A24 24 0 0 1 60.201 576.867" /><path id= "214" d=" M -80.5353 545.58 L -22.8254 367.967 " />
<path d="M60.201 576.867 A580 580 0 0 1 -60.201 576.867" /><path d="M-60.201 576.867 A24 24 0 0 1 -80.5353 545.58" /><path id= "217" d=" M -80.5334 264.037 L -90.044 260.947 " />
<path id= "218" d=" M -87.9498 286.862 L -80.5334 264.037 " />
<path id= "219" d=" M -90.044 260.947 L -97.4604 283.772 " />
<path id= "220" d=" M -97.4604 283.772 L -87.9498 286.862 " />
<path id= "221" d=" M 381.559 271.038 L 375.681 279.129 " />
<path id= "222" d=" M 400.975 285.145 L 381.559 271.038 " />
<path id= "223" d=" M 375.681 279.129 L 395.097 293.235 " />
<path id= "224" d=" M 395.097 293.235 L 400.975 285.145 " />
<path id= "225" d=" M 234.752 284.276 L 385.839 394.046 " />
<path d="M385.839 394.046 A24 24 0 0 1 387.778 431.31" /><path d="M387.778 431.31 A580 580 0 0 1 290.37 502.081" /><path d="M290.37 502.081 A24 24 0 0 1 255.53 488.721" /><path id= "229" d=" M 255.53 488.721 L 197.82 311.108 " />
<path d="M197.82 311.108 A24 24 0 0 1 234.752 284.276" /><circle cx ="486.66" cy ="415.647" r ="3" /><path id= "232" d=" M -50.8678 172.735 L -60.3783 169.645 " />
<path id= "233" d=" M -58.2842 195.561 L -50.8678 172.735 " />
<path id= "234" d=" M -60.3783 169.645 L -67.7947 192.47 " />
<path id= "235" d=" M -67.7947 192.47 L -58.2842 195.561 " />
<path id= "236" d=" M 60.3783 169.645 L 50.8678 172.735 " />
<path id= "237" d=" M 67.7947 192.47 L 60.3783 169.645 " />
<path id= "238" d=" M 50.8678 172.735 L 58.2842 195.561 " />
<path id= "239" d=" M 58.2842 195.561 L 67.7947 192.47 " />
<circle cx ="271.83" cy ="197.496" r ="3" /><path id= "241" d=" M 226.228 158.184 L 220.35 166.274 " />
<path id= "242" d=" M 245.644 172.29 L 226.228 158.184 " />
<path id= "243" d=" M 220.35 166.274 L 239.766 180.381 " />
<path id= "244" d=" M 239.766 180.381 L 245.644 172.29 " />
<path id= "245" d=" M 303.893 214.611 L 298.015 222.701 " />
<path id= "246" d=" M 323.31 228.718 L 303.893 214.611 " />
<path id= "247" d=" M 298.015 222.701 L 317.432 236.808 " />
<path id= "248" d=" M 317.432 236.808 L 323.31 228.718 " />
<path id= "249" d=" M 357.011 92 L 543.765 92 " />
<path d="M342.904 135.416 A24 24 0 0 1 357.011 92" /><path d="M543.765 92 A24 24 0 0 1 567.237 121.007" /><path id= "252" d=" M 493.991 245.187 L 342.904 135.416 " />
<path d="M567.237 121.007 A580 580 0 0 1 530.03 235.516" /><path d="M530.03 235.516 A24 24 0 0 1 493.991 245.187" /><circle cx ="349.495" cy ="253.923" r ="3" /><circle cx ="545.69" cy ="334.399" r ="3" /><circle cx ="-103.83" cy ="319.555" r ="3" /><circle cx ="-545.69" cy ="334.399" r ="3" /><path id= "259" d=" M -375.681 279.129 L -381.559 271.038 " />
<path id= "260" d=" M -395.097 293.235 L -375.681 279.129 " />
<path id= "261" d=" M -381.559 271.038 L -400.975 285.145 " />
<path id= "262" d=" M -400.975 285.145 L -395.097 293.235 " />
<circle cx ="-349.495" cy ="253.923" r ="3" /><path id= "264" d=" M -342.904 135.416 L -493.991 245.187 " />
<path d="M-357.011 92 A24 24 0 0 1 -342.904 135.416" /><path d="M-493.991 245.187 A24 24 0 0 1 -530.03 235.516" /><path id= "267" d=" M -543.765 92 L -357.011 92 " />
<path d="M-530.03 235.516 A580 580 0 0 1 -567.237 121.007" /><path d="M-567.237 121.007 A24 24 0 0 1 -543.765 92" /><path id= "270" d=" M -220.35 166.274 L -226.228 158.184 " />
<path id= "271" d=" M -239.766 180.381 L -220.35 166.274 " />
<path id= "272" d=" M -226.228 158.184 L -245.644 172.29 " />
<path id= "273" d=" M -245.644 172.29 L -239.766 180.381 " />
<circle cx ="-271.83" cy ="197.496" r ="3" /><path id= "275" d=" M -298.015 222.701 L -303.893 214.611 " />
<path id= "276" d=" M -317.432 236.808 L -298.015 222.701 " />
<path id= "277" d=" M -303.893 214.611 L -323.31 228.718 " />
<path id= "278" d=" M -323.31 228.718 L -317.432 236.808 " />
<path id= "279" d=" M -110.199 355.338 L -119.71 352.248 " />
<path id= "280" d=" M -117.615 378.163 L -110.199 355.338 " />
<path id= "281" d=" M -119.71 352.248 L -127.126 375.073 " />
<path id= "282" d=" M -127.126 375.073 L -117.615 378.163 " />
<circle cx ="-133.495" cy ="410.856" r ="3" /><circle cx ="-486.66" cy ="415.647" r ="3" /><circle cx ="-334.399" cy ="545.69" r ="3" /><path id= "286" d=" M -197.82 311.108 L -255.53 488.721 " />
<path d="M-234.752 284.276 A24 24 0 0 1 -197.82 311.108" /><path d="M-255.53 488.721 A24 24 0 0 1 -290.37 502.081" /><path id= "289" d=" M -385.839 394.046 L -234.752 284.276 " />
<path d="M-290.37 502.081 A580 580 0 0 1 -387.778 431.31" /><path d="M-387.778 431.31 A24 24 0 0 1 -385.839 394.046" /><path id= "292" d=" M -139.865 446.64 L -149.375 443.549 " />
<path id= "293" d=" M -147.281 469.465 L -139.865 446.64 " />
<path id= "294" d=" M -149.375 443.549 L -156.792 466.375 " />
<path id= "295" d=" M -156.792 466.375 L -147.281 469.465 " />
<circle cx ="-415.647" cy ="486.66" r ="3" /><path id= "297" d=" M 148.562 101.756 L 142.684 109.846 " />
<path id= "298" d=" M 167.978 115.863 L 148.562 101.756 " />
<path id= "299" d=" M 142.684 109.846 L 162.101 123.953 " />
<path id= "300" d=" M 162.101 123.953 L 167.978 115.863 " />
<path id= "301" d=" M 30.7127 78.3437 L 21.2021 81.4338 " />
<path id= "302" d=" M 38.1291 101.169 L 30.7127 78.3437 " />
<path id= "303" d=" M 21.2021 81.4338 L 28.6186 104.259 " />
<path id= "304" d=" M 28.6186 104.259 L 38.1291 101.169 " />
<path id= "305" d=" M -142.684 109.846 L -148.562 101.756 " />
<path id= "306" d=" M -162.101 123.953 L -142.684 109.846 " />
<path id= "307" d=" M -148.562 101.756 L -167.978 115.863 " />
<path id= "308" d=" M -167.978 115.863 L -162.101 123.953 " />
<path id= "309" d=" M -21.2021 81.4338 L -30.7127 78.3437 " />
<path id= "310" d=" M -28.6186 104.259 L -21.2021 81.4338 " />
<path id= "311" d=" M -30.7127 78.3437 L -38.1291 101.169 " />
<path id= "312" d=" M -38.1291 101.169 L -28.6186 104.259 " />
<circle cx ="415.647" cy ="486.66" r ="3" /><circle cx ="-622.317" cy ="149.405" r ="3" /><circle cx ="-591.283" cy ="244.917" r ="3" /><circle cx ="244.917" cy ="591.283" r ="3" /><circle cx ="-244.917" cy ="591.283" r ="3" /><circle cx ="149.405" cy ="622.317" r ="3" /><circle cx ="-149.405" cy ="622.317" r ="3" /><circle cx ="638.027" cy ="-50.2138" r ="3" /><circle cx ="638.027" cy ="50.2138" r ="3" /><circle cx ="622.317" cy ="149.405" r ="3" /><circle cx ="591.283" cy ="-244.917" r ="3" /><circle cx ="622.317" cy ="-149.405" r ="3" /><circle cx ="591.283" cy ="244.917" r ="3" /><circle cx ="334.399" cy ="-545.69" r ="3" /><path id= "327" d=" M -22.8254 -367.967 L -80.5353 -545.58 " />
<path d="M22.8254 -367.967 A24 24 0 0 1 -22.8254 -367.967" /><path d="M-80.5353 -545.58 A24 24 0 0 1 -60.201 -576.867" /><path id= "330" d=" M 80.5353 -545.58 L 22.8254 -367.967 " />
<path d="M-60.201 -576.867 A580 580 0 0 1 60.201 -576.867" /><path d="M60.201 -576.867 A24 24 0 0 1 80.5353 -545.58" /><circle cx ="-334.399" cy ="-545.69" r ="3" /><circle cx ="50.2138" cy ="-638.027" r ="3" /><circle cx ="-50.2138" cy ="-638.027" r ="3" /><circle cx ="-244.917" cy ="-591.283" r ="3" /><circle cx ="-149.405" cy ="-622.317" r ="3" /><circle cx ="244.917" cy ="-591.283" r ="3" /><circle cx ="149.405" cy ="-622.317" r ="3" /><circle cx ="-50.2138" cy ="638.027" r ="3" /><circle cx ="50.2138" cy ="638.027" r ="3" /></g>
</g>



<g id="bigWheel_wheelBody_Ortho_0_002"
   transform="rotate(0,420,420) translate(420,420) scale(0.25,0.25)"
  >
<g   fill="none"
   stroke="rgb(0, 0, 0)"
   stroke-linecap="butt"
   stroke-linejoin="miter"
   stroke-width="1.400000"
   transform="scale(1,-1)"
  >
<circle cx ="0" cy ="0" r ="670" /><circle cx ="-55.0132" cy ="39.9694" r ="3" /><path d="M36 0 A36 36 0 0 1 29.1246 21.1603" /><path d="M29.1246 -21.1603 A36 36 0 0 1 36 -8.81746e-15" /><path d="M29.1246 21.1603 A36 36 0 0 1 11.1246 34.238" /><path d="M11.1246 -34.238 A36 36 0 0 1 29.1246 -21.1603" /><path d="M11.1246 34.238 A36 36 0 0 1 -11.1246 34.238" /><path d="M-11.1246 -34.238 A36 36 0 0 1 11.1246 -34.238" /><path d="M-11.1246 34.238 A36 36 0 0 1 -29.1246 21.1603" /><path d="M-29.1246 -21.1603 A36 36 0 0 1 -11.1246 -34.238" /><path d="M-29.1246 21.1603 A36 36 0 0 1 -36 -2.75657e-14" /><path d="M-36 -2.75657e-14 A36 36 0 0 1 -29.1246 -21.1603" /><circle cx ="68" cy ="0" r ="3" /><circle cx ="55.0132" cy ="39.9694" r ="3" /><path id= "15" d=" M 84 -5 L 84 5 " />
<path id= "16" d=" M 108 -5 L 84 -5 " />
<path id= "17" d=" M 84 5 L 108 5 " />
<path id= "18" d=" M 108 5 L 108 -5 " />
<path id= "19" d=" M 372 -5 L 372 5 " />
<path id= "20" d=" M 396 -5 L 372 -5 " />
<path id= "21" d=" M 372 5 L 396 5 " />
<path id= "22" d=" M 396 5 L 396 -5 " />
<circle cx ="336" cy ="0" r ="3" /><path id= "24" d=" M 276 -5 L 276 5 " />
<path id= "25" d=" M 300 -5 L 276 -5 " />
<path id= "26" d=" M 276 5 L 300 5 " />
<path id= "27" d=" M 300 5 L 300 -5 " />
<path id= "28" d=" M 180 -5 L 180 5 " />
<path id= "29" d=" M 204 -5 L 180 -5 " />
<path id= "30" d=" M 180 5 L 204 5 " />
<path id= "31" d=" M 204 5 L 204 -5 " />
<circle cx ="432" cy ="0" r ="3" /><path id= "33" d=" M 468 -5 L 468 5 " />
<path id= "34" d=" M 492 -5 L 468 -5 " />
<path id= "35" d=" M 468 5 L 492 5 " />
<path id= "36" d=" M 492 5 L 492 -5 " />
<circle cx ="55.0132" cy ="-39.9694" r ="3" /><circle cx ="-55.0132" cy ="-39.9694" r ="3" /><path id= "39" d=" M -60.3783 -169.645 L -50.8678 -172.735 " />
<path id= "40" d=" M -67.7947 -192.47 L -60.3783 -169.645 " />
<path id= "41" d=" M -50.8678 -172.735 L -58.2842 -195.561 " />
<path id= "42" d=" M -58.2842 -195.561 L -67.7947 -192.47 " />
<path id= "43" d=" M -30.7127 -78.3437 L -21.2021 -81.4338 " />
<path id= "44" d=" M -38.1291 -101.169 L -30.7127 -78.3437 " />
<path id= "45" d=" M -21.2021 -81.4338 L -28.6186 -104.259 " />
<path id= "46" d=" M -28.6186 -104.259 L -38.1291 -101.169 " />
<path id= "47" d=" M -70.8964 -45.3289 L -65.0185 -53.419 " />
<path id= "48" d=" M -90.3128 -59.4357 L -70.8964 -45.3289 " />
<path id= "49" d=" M -65.0185 -53.419 L -84.4349 -67.5259 " />
<path id= "50" d=" M -84.4349 -67.5259 L -90.3128 -59.4357 " />
<path id= "51" d=" M 65.0185 -53.419 L 70.8964 -45.3289 " />
<path id= "52" d=" M 84.4349 -67.5259 L 65.0185 -53.419 " />
<path id= "53" d=" M 90.3128 -59.4357 L 84.4349 -67.5259 " />
<path id= "54" d=" M 70.8964 -45.3289 L 90.3128 -59.4357 " />
<circle cx ="-21.0132" cy ="-64.6718" r ="3" /><circle cx ="21.0132" cy ="-64.6718" r ="3" /><path id= "57" d=" M 21.2021 -81.4338 L 30.7127 -78.3437 " />
<path id= "58" d=" M 28.6186 -104.259 L 21.2021 -81.4338 " />
<path id= "59" d=" M 30.7127 -78.3437 L 38.1291 -101.169 " />
<path id= "60" d=" M 38.1291 -101.169 L 28.6186 -104.259 " />
<path id= "61" d=" M 50.8678 -172.735 L 60.3783 -169.645 " />
<path id= "62" d=" M 58.2842 -195.561 L 50.8678 -172.735 " />
<path id= "63" d=" M 60.3783 -169.645 L 67.7947 -192.47 " />
<path id= "64" d=" M 67.7947 -192.47 L 58.2842 -195.561 " />
<path id= "65" d=" M 220.35 -166.274 L 226.228 -158.184 " />
<path id= "66" d=" M 239.766 -180.381 L 220.35 -166.274 " />
<path id= "67" d=" M 245.644 -172.29 L 239.766 -180.381 " />
<path id= "68" d=" M 226.228 -158.184 L 245.644 -172.29 " />
<path id= "69" d=" M 142.684 -109.846 L 148.562 -101.756 " />
<path id= "70" d=" M 162.101 -123.953 L 142.684 -109.846 " />
<path id= "71" d=" M 167.978 -115.863 L 162.101 -123.953 " />
<path id= "72" d=" M 148.562 -101.756 L 167.978 -115.863 " />
<path id= "73" d=" M 342.904 -135.416 L 493.991 -245.187 " />
<path d="M357.011 -92 A24 24 0 0 1 342.904 -135.416" /><path d="M493.991 -245.187 A24 24 0 0 1 530.03 -235.516" /><path id= "76" d=" M 543.765 -92 L 357.011 -92 " />
<path d="M530.03 -235.516 A580 580 0 0 1 567.237 -121.007" /><path d="M567.237 -121.007 A24 24 0 0 1 543.765 -92" /><circle cx ="271.83" cy ="-197.496" r ="3" /><path id= "80" d=" M 298.015 -222.701 L 303.893 -214.611 " />
<path id= "81" d=" M 317.432 -236.808 L 298.015 -222.701 " />
<path id= "82" d=" M 323.31 -228.718 L 317.432 -236.808 " />
<path id= "83" d=" M 303.893 -214.611 L 323.31 -228.718 " />
<circle cx ="415.647" cy ="-486.66" r ="3" /><path id= "85" d=" M 375.681 -279.129 L 381.559 -271.038 " />
<path id= "86" d=" M 395.097 -293.235 L 375.681 -279.129 " />
<path id= "87" d=" M 400.975 -285.145 L 395.097 -293.235 " />
<path id= "88" d=" M 381.559 -271.038 L 400.975 -285.145 " />
<path id= "89" d=" M 197.82 -311.108 L 255.53 -488.721 " />
<path d="M234.752 -284.276 A24 24 0 0 1 197.82 -311.108" /><path d="M255.53 -488.721 A24 24 0 0 1 290.37 -502.081" /><path id= "92" d=" M 385.839 -394.046 L 234.752 -284.276 " />
<path d="M290.37 -502.081 A580 580 0 0 1 387.778 -431.31" /><path d="M387.778 -431.31 A24 24 0 0 1 385.839 -394.046" /><path id= "95" d=" M 110.199 -355.338 L 119.71 -352.248 " />
<path id= "96" d=" M 117.615 -378.163 L 110.199 -355.338 " />
<path id= "97" d=" M 119.71 -352.248 L 127.126 -375.073 " />
<path id= "98" d=" M 127.126 -375.073 L 117.615 -378.163 " />
<circle cx ="133.495" cy ="-410.856" r ="3" /><path id= "100" d=" M 139.865 -446.64 L 149.375 -443.549 " />
<path id= "101" d=" M 147.281 -469.465 L 139.865 -446.64 " />
<path id= "102" d=" M 149.375 -443.549 L 156.792 -466.375 " />
<path id= "103" d=" M 156.792 -466.375 L 147.281 -469.465 " />
<circle cx ="545.69" cy ="-334.399" r ="3" /><circle cx ="486.66" cy ="-415.647" r ="3" /><path id= "106" d=" M 80.5334 -264.037 L 90.044 -260.947 " />
<path id= "107" d=" M 87.9498 -286.862 L 80.5334 -264.037 " />
<path id= "108" d=" M 90.044 -260.947 L 97.4604 -283.772 " />
<path id= "109" d=" M 97.4604 -283.772 L 87.9498 -286.862 " />
<circle cx ="103.83" cy ="-319.555" r ="3" /><circle cx ="349.495" cy ="-253.923" r ="3" /><path id= "112" d=" M 70.8964 45.3289 L 65.0185 53.419 " />
<path id= "113" d=" M 90.3128 59.4357 L 70.8964 45.3289 " />
<path id= "114" d=" M 65.0185 53.419 L 84.4349 67.5259 " />
<path id= "115" d=" M 84.4349 67.5259 L 90.3128 59.4357 " />
<circle cx ="-638.027" cy ="50.2138" r ="3" /><circle cx ="-432" cy ="5.29e-14" r ="3" /><path id= "118" d=" M -468 5 L -468 -5 " />
<path id= "119" d=" M -492 5 L -468 5 " />
<path id= "120" d=" M -468 -5 L -492 -5 " />
<path id= "121" d=" M -492 -5 L -492 5 " />
<path id= "122" d=" M -180 5 L -180 -5 " />
<path id= "123" d=" M -204 5 L -180 5 " />
<path id= "124" d=" M -180 -5 L -204 -5 " />
<path id= "125" d=" M -204 -5 L -204 5 " />
<circle cx ="-336" cy ="4.115e-14" r ="3" /><path id= "127" d=" M -276 5 L -276 -5 " />
<path id= "128" d=" M -300 5 L -276 5 " />
<path id= "129" d=" M -276 -5 L -300 -5 " />
<path id= "130" d=" M -300 -5 L -300 5 " />
<path id= "131" d=" M -372 5 L -372 -5 " />
<path id= "132" d=" M -396 5 L -372 5 " />
<path id= "133" d=" M -372 -5 L -396 -5 " />
<path id= "134" d=" M -396 -5 L -396 5 " />
<circle cx ="-591.283" cy ="-244.917" r ="3" /><path id= "136" d=" M -303.893 -214.611 L -298.015 -222.701 " />
<path id= "137" d=" M -323.31 -228.718 L -303.893 -214.611 " />
<path id= "138" d=" M -298.015 -222.701 L -317.432 -236.808 " />
<path id= "139" d=" M -317.432 -236.808 L -323.31 -228.718 " />
<circle cx ="-622.317" cy ="-149.405" r ="3" /><circle cx ="-271.83" cy ="-197.496" r ="3" /><circle cx ="-638.027" cy ="-50.2138" r ="3" /><circle cx ="-133.495" cy ="-410.856" r ="3" /><path id= "144" d=" M -149.375 -443.549 L -139.865 -446.64 " />
<path id= "145" d=" M -156.792 -466.375 L -149.375 -443.549 " />
<path id= "146" d=" M -139.865 -446.64 L -147.281 -469.465 " />
<path id= "147" d=" M -147.281 -469.465 L -156.792 -466.375 " />
<path id= "148" d=" M -381.559 -271.038 L -375.681 -279.129 " />
<path id= "149" d=" M -400.975 -285.145 L -381.559 -271.038 " />
<path id= "150" d=" M -375.681 -279.129 L -395.097 -293.235 " />
<path id= "151" d=" M -395.097 -293.235 L -400.975 -285.145 " />
<path id= "152" d=" M -234.752 -284.276 L -385.839 -394.046 " />
<path d="M-197.82 -311.108 A24 24 0 0 1 -234.752 -284.276" /><path d="M-385.839 -394.046 A24 24 0 0 1 -387.778 -431.31" /><path id= "155" d=" M -255.53 -488.721 L -197.82 -311.108 " />
<path d="M-387.778 -431.31 A580 580 0 0 1 -290.37 -502.081" /><path d="M-290.37 -502.081 A24 24 0 0 1 -255.53 -488.721" /><circle cx ="-486.66" cy ="-415.647" r ="3" /><circle cx ="-415.647" cy ="-486.66" r ="3" /><path id= "160" d=" M -357.011 -92 L -543.765 -92 " />
<path d="M-342.904 -135.416 A24 24 0 0 1 -357.011 -92" /><path d="M-543.765 -92 A24 24 0 0 1 -567.237 -121.007" /><path id= "163" d=" M -493.991 -245.187 L -342.904 -135.416 " />
<path d="M-567.237 -121.007 A580 580 0 0 1 -530.03 -235.516" /><path d="M-530.03 -235.516 A24 24 0 0 1 -493.991 -245.187" /><path id= "166" d=" M -226.228 -158.184 L -220.35 -166.274 " />
<path id= "167" d=" M -245.644 -172.29 L -226.228 -158.184 " />
<path id= "168" d=" M -220.35 -166.274 L -239.766 -180.381 " />
<path id= "169" d=" M -239.766 -180.381 L -245.644 -172.29 " />
<circle cx ="-545.69" cy ="-334.399" r ="3" /><circle cx ="-349.495" cy ="-253.923" r ="3" /><path id= "172" d=" M -148.562 -101.756 L -142.684 -109.846 " />
<path id= "173" d=" M -167.978 -115.863 L -148.562 -101.756 " />
<path id= "174" d=" M -142.684 -109.846 L -162.101 -123.953 " />
<path id= "175" d=" M -162.101 -123.953 L -167.978 -115.863 " />
<path id= "176" d=" M -65.0185 53.419 L -70.8964 45.3289 " />
<path id= "177" d=" M -84.4349 67.5259 L -65.0185 53.419 " />
<path id= "178" d=" M -70.8964 45.3289 L -90.3128 59.4357 " />
<path id= "179" d=" M -90.3128 59.4357 L -84.4349 67.5259 " />
<circle cx ="-68" cy ="8.33e-15" r ="3" /><path id= "181" d=" M -84 5 L -84 -5 " />
<path id= "182" d=" M -108 5 L -84 5 " />
<path id= "183" d=" M -84 -5 L -108 -5 " />
<path id= "184" d=" M -108 -5 L -108 5 " />
<circle cx ="-103.83" cy ="-319.555" r ="3" /><path id= "186" d=" M -90.044 -260.947 L -80.5334 -264.037 " />
<path id= "187" d=" M -97.4604 -283.772 L -90.044 -260.947 " />
<path id= "188" d=" M -80.5334 -264.037 L -87.9498 -286.862 " />
<path id= "189" d=" M -87.9498 -286.862 L -97.4604 -283.772 " />
<path id= "190" d=" M -119.71 -352.248 L -110.199 -355.338 " />
<path id= "191" d=" M -127.126 -375.073 L -119.71 -352.248 " />
<path id= "192" d=" M -110.199 -355.338 L -117.615 -378.163 " />
<path id= "193" d=" M -117.615 -378.163 L -127.126 -375.073 " />
<circle cx ="21.0132" cy ="64.6718" r ="3" /><circle cx ="-21.0132" cy ="64.6718" r ="3" /><circle cx ="334.399" cy ="545.69" r ="3" /><path id= "197" d=" M 119.71 352.248 L 110.199 355.338 " />
<path id= "198" d=" M 127.126 375.073 L 119.71 352.248 " />
<path id= "199" d=" M 110.199 355.338 L 117.615 378.163 " />
<path id= "200" d=" M 117.615 378.163 L 127.126 375.073 " />
<circle cx ="133.495" cy ="410.856" r ="3" /><path id= "202" d=" M 149.375 443.549 L 139.865 446.64 " />
<path id= "203" d=" M 156.792 466.375 L 149.375 443.549 " />
<path id= "204" d=" M 139.865 446.64 L 147.281 469.465 " />
<path id= "205" d=" M 147.281 469.465 L 156.792 466.375 " />
<path id= "206" d=" M 90.044 260.947 L 80.5334 264.037 " />
<path id= "207" d=" M 97.4604 283.772 L 90.044 260.947 " />
<path id= "208" d=" M 80.5334 264.037 L 87.9498 286.862 " />
<path id= "209" d=" M 87.9498 286.862 L 97.4604 283.772 " />
<circle cx ="103.83" cy ="319.555" r ="3" /><path id= "211" d=" M 22.8254 367.967 L 80.5353 545.58 " />
<path d="M-22.8254 367.967 A24 24 0 0 1 22.8254 367.967" /><path d="M80.5353 545.58 A24 24 0 0 1 60.201 576.867" /><path id= "214" d=" M -80.5353 545.58 L -22.8254 367.967 " />
<path d="M60.201 576.867 A580 580 0 0 1 -60.201 576.867" /><path d="M-60.201 576.867 A24 24 0 0 1 -80.5353 545.58" /><path id= "217" d=" M -80.5334 264.037 L -90.044 260.947 " />
<path id= "218" d=" M -87.9498 286.862 L -80.5334 264.037 " />
<path id= "219" d=" M -90.044 260.947 L -97.4604 283.772 " />
<path id= "220" d=" M -97.4604 283.772 L -87.9498 286.862 " />
<path id= "221" d=" M 381.559 271.038 L 375.681 279.129 " />
<path id= "222" d=" M 400.975 285.145 L 381.559 271.038 " />
<path id= "223" d=" M 375.681 279.129 L 395.097 293.235 " />
<path id= "224" d=" M 395.097 293.235 L 400.975 285.145 " />
<path id= "225" d=" M 234.752 284.276 L 385.839 394.046 " />
<path d="M385.839 394.046 A24 24 0 0 1 387.778 431.31" /><path d="M387.778 431.31 A580 580 0 0 1 290.37 502.081" /><path d="M290.37 502.081 A24 24 0 0 1 255.53 488.721" /><path id= "229" d=" M 255.53 488.721 L 197.82 311.108 " />
<path d="M197.82 311.108 A24 24 0 0 1 234.752 284.276" /><circle cx ="486.66" cy ="415.647" r ="3" /><path id= "232" d=" M -50.8678 172.735 L -60.3783 169.645 " />
<path id= "233" d=" M -58.2842 195.561 L -50.8678 172.735 " />
<path id= "234" d=" M -60.3783 169.645 L -67.7947 192.47 " />
<path id= "235" d=" M -67.7947 192.47 L -58.2842 195.561 " />
<path id= "236" d=" M 60.3783 169.645 L 50.8678 172.735 " />
<path id= "237" d=" M 67.7947 192.47 L 60.3783 169.645 " />
<path id= "238" d=" M 50.8678 172.735 L 58.2842 195.561 " />
<path id= "239" d=" M 58.2842 195.561 L 67.7947 192.47 " />
<circle cx ="271.83" cy ="197.496" r ="3" /><path id= "241" d=" M 226.228 158.184 L 220.35 166.274 " />
<path id= "242" d=" M 245.644 172.29 L 226.228 158.184 " />
<path id= "243" d=" M 220.35 166.274 L 239.766 180.381 " />
<path id= "244" d=" M 239.766 180.381 L 245.644 172.29 " />
<path id= "245" d=" M 303.893 214.611 L 298.015 222.701 " />
<path id= "246" d=" M 323.31 228.718 L 303.893 214.611 " />
<path id= "247" d=" M 298.015 222.701 L 317.432 236.808 " />
<path id= "248" d=" M 317.432 236.808 L 323.31 228.718 " />
<path id= "249" d=" M 357.011 92 L 543.765 92 " />
<path d="M342.904 135.416 A24 24 0 0 1 357.011 92" /><path d="M543.765 92 A24 24 0 0 1 567.237 121.007" /><path id= "252" d=" M 493.991 245.187 L 342.904 135.416 " />
<path d="M567.237 121.007 A580 580 0 0 1 530.03 235.516" /><path d="M530.03 235.516 A24 24 0 0 1 493.991 245.187" /><circle cx ="349.495" cy ="253.923" r ="3" /><circle cx ="545.69" cy ="334.399" r ="3" /><circle cx ="-103.83" cy ="319.555" r ="3" /><circle cx ="-545.69" cy ="334.399" r ="3" /><path id= "259" d=" M -375.681 279.129 L -381.559 271.038 " />
<path id= "260" d=" M -395.097 293.235 L -375.681 279.129 " />
<path id= "261" d=" M -381.559 271.038 L -400.975 285.145 " />
<path id= "262" d=" M -400.975 285.145 L -395.097 293.235 " />
<circle cx ="-349.495" cy ="253.923" r ="3" /><path id= "264" d=" M -342.904 135.416 L -493.991 245.187 " />
<path d="M-357.011 92 A24 24 0 0 1 -342.904 135.416" /><path d="M-493.991 245.187 A24 24 0 0 1 -530.03 235.516" /><path id= "267" d=" M -543.765 92 L -357.011 92 " />
<path d="M-530.03 235.516 A580 580 0 0 1 -567.237 121.007" /><path d="M-567.237 121.007 A24 24 0 0 1 -543.765 92" /><path id= "270" d=" M -220.35 166.274 L -226.228 158.184 " />
<path id= "271" d=" M -239.766 180.381 L -220.35 166.274 " />
<path id= "272" d=" M -226.228 158.184 L -245.644 172.29 " />
<path id= "273" d=" M -245.644 172.29 L -239.766 180.381 " />
<circle cx ="-271.83" cy ="197.496" r ="3" /><path id= "275" d=" M -298.015 222.701 L -303.893 214.611 " />
<path id= "276" d=" M -317.432 236.808 L -298.015 222.701 " />
<path id= "277" d=" M -303.893 214.611 L -323.31 228.718 " />
<path id= "278" d=" M -323.31 228.718 L -317.432 236.808 " />
<path id= "279" d=" M -110.199 355.338 L -119.71 352.248 " />
<path id= "280" d=" M -117.615 378.163 L -110.199 355.338 " />
<path id= "281" d=" M -119.71 352.248 L -127.126 375.073 " />
<path id= "282" d=" M -127.126 375.073 L -117.615 378.163 " />
<circle cx ="-133.495" cy ="410.856" r ="3" /><circle cx ="-486.66" cy ="415.647" r ="3" /><circle cx ="-334.399" cy ="545.69" r ="3" /><path id= "286" d=" M -197.82 311.108 L -255.53 488.721 " />
<path d="M-234.752 284.276 A24 24 0 0 1 -197.82 311.108" /><path d="M-255.53 488.721 A24 24 0 0 1 -290.37 502.081" /><path id= "289" d=" M -385.839 394.046 L -234.752 284.276 " />
<path d="M-290.37 502.081 A580 580 0 0 1 -387.778 431.31" /><path d="M-387.778 431.31 A24 24 0 0 1 -385.839 394.046" /><path id= "292" d=" M -139.865 446.64 L -149.375 443.549 " />
<path id= "293" d=" M -147.281 469.465 L -139.865 446.64 " />
<path id= "294" d=" M -149.375 443.549 L -156.792 466.375 " />
<path id= "295" d=" M -156.792 466.375 L -147.281 469.465 " />
<circle cx ="-415.647" cy ="486.66" r ="3" /><path id= "297" d=" M 148.562 101.756 L 142.684 109.846 " />
<path id= "298" d=" M 167.978 115.863 L 148.562 101.756 " />
<path id= "299" d=" M 142.684 109.846 L 162.101 123.953 " />
<path id= "300" d=" M 162.101 123.953 L 167.978 115.863 " />
<path id= "301" d=" M 30.7127 78.3437 L 21.2021 81.4338 " />
<path id= "302" d=" M 38.1291 101.169 L 30.7127 78.3437 " />
<path id= "303" d=" M 21.2021 81.4338 L 28.6186 104.259 " />
<path id= "304" d=" M 28.6186 104.259 L 38.1291 101.169 " />
<path id= "305" d=" M -142.684 109.846 L -148.562 101.756 " />
<path id= "306" d=" M -162.101 123.953 L -142.684 109.846 " />
<path id= "307" d=" M -148.562 101.756 L -167.978 115.863 " />
<path id= "308" d=" M -167.978 115.863 L -162.101 123.953 " />
<path id= "309" d=" M -21.2021 81.4338 L -30.7127 78.3437 " />
<path id= "310" d=" M -28.6186 104.259 L -21.2021 81.4338 " />
<path id= "311" d=" M -30.7127 78.3437 L -38.1291 101.169 " />
<path id= "312" d=" M -38.1291 101.169 L -28.6186 104.259 " />
<circle cx ="415.647" cy ="486.66" r ="3" /><circle cx ="-622.317" cy ="149.405" r ="3" /><circle cx ="-591.283" cy ="244.917" r ="3" /><circle cx ="244.917" cy ="591.283" r ="3" /><circle cx ="-244.917" cy ="591.283" r ="3" /><circle cx ="149.405" cy ="622.317" r ="3" /><circle cx ="-149.405" cy ="622.317" r ="3" /><circle cx ="638.027" cy ="-50.2138" r ="3" /><circle cx ="638.027" cy ="50.2138" r ="3" /><circle cx ="622.317" cy ="149.405" r ="3" /><circle cx ="591.283" cy ="-244.917" r ="3" /><circle cx ="622.317" cy ="-149.405" r ="3" /><circle cx ="591.283" cy ="244.917" r ="3" /><circle cx ="334.399" cy ="-545.69" r ="3" /><path id= "327" d=" M -22.8254 -367.967 L -80.5353 -545.58 " />
<path d="M22.8254 -367.967 A24 24 0 0 1 -22.8254 -367.967" /><path d="M-80.5353 -545.58 A24 24 0 0 1 -60.201 -576.867" /><path id= "330" d=" M 80.5353 -545.58 L 22.8254 -367.967 " />
<path d="M-60.201 -576.867 A580 580 0 0 1 60.201 -576.867" /><path d="M60.201 -576.867 A24 24 0 0 1 80.5353 -545.58" /><circle cx ="-334.399" cy ="-545.69" r ="3" /><circle cx ="50.2138" cy ="-638.027" r ="3" /><circle cx ="-50.2138" cy ="-638.027" r ="3" /><circle cx ="-244.917" cy ="-591.283" r ="3" /><circle cx ="-149.405" cy ="-622.317" r ="3" /><circle cx ="244.917" cy ="-591.283" r ="3" /><circle cx ="149.405" cy ="-622.317" r ="3" /><circle cx ="-50.2138" cy ="638.027" r ="3" /><circle cx ="50.2138" cy ="638.027" r ="3" /></g>
</g>



<g id="finBottom_Ortho_0_001"
   transform="rotate(90,480,586) translate(480,586) scale(0.25,0.25)"
  >
<g   fill="none"
   stroke="rgb(0, 0, 0)"
   stroke-linecap="butt"
   stroke-linejoin="miter"
   stroke-width="1.400000"
   transform="scale(1,-1)"
  >
<path id= "1" d=" M -20 511.34 L -45 80 " />
<path id= "2" d=" M -20 511.34 L -5 520 " />
<path id= "3" d=" M -45 80 L -35 80 " />
<path id= "4" d=" M -5 492 L -5 520 " />
<path id= "5" d=" M 5 492 L -5 492 " />
<path id= "6" d=" M 5 468 L 5 492 " />
<path id= "7" d=" M -5 468 L 5 468 " />
<path id= "8" d=" M -5 300 L -5 468 " />
<path id= "9" d=" M 5 300 L -5 300 " />
<path id= "10" d=" M 5 276 L 5 300 " />
<path id= "11" d=" M -5 276 L 5 276 " />
<path id= "12" d=" M -5 108 L -5 276 " />
<path id= "13" d=" M 5 108 L -5 108 " />
<path id= "14" d=" M 5 84 L 5 108 " />
<path id= "15" d=" M -5 84 L 5 84 " />
<path id= "16" d=" M -5 56 L -5 84 " />
<path id= "17" d=" M -35 56 L -5 56 " />
<path id= "18" d=" M -35 80 L -35 56 " />
</g>
</g>



<g id="finBottom_Ortho_0_002"
   transform="rotate(90,500,570) translate(500,570) scale(0.25,0.25)"
  >
<g   fill="none"
   stroke="rgb(0, 0, 0)"
   stroke-linecap="butt"
   stroke-linejoin="miter"
   stroke-width="1.400000"
   transform="scale(1,-1)"
  >
<path id= "1" d=" M -20 511.34 L -45 80 " />
<path id= "2" d=" M -20 511.34 L -5 520 " />
<path id= "3" d=" M -45 80 L -35 80 " />
<path id= "4" d=" M -5 492 L -5 520 " />
<path id= "5" d=" M 5 492 L -5 492 " />
<path id= "6" d=" M 5 468 L 5 492 " />
<path id= "7" d=" M -5 468 L 5 468 " />
<path id= "8" d=" M -5 300 L -5 468 " />
<path id= "9" d=" M 5 300 L -5 300 " />
<path id= "10" d=" M 5 276 L 5 300 " />
<path id= "11" d=" M -5 276 L 5 276 " />
<path id= "12" d=" M -5 108 L -5 276 " />
<path id= "13" d=" M 5 108 L -5 108 " />
<path id= "14" d=" M 5 84 L 5 108 " />
<path id= "15" d=" M -5 84 L 5 84 " />
<path id= "16" d=" M -5 56 L -5 84 " />
<path id= "17" d=" M -35 56 L -5 56 " />
<path id= "18" d=" M -35 80 L -35 56 " />
</g>
</g>



<g id="finBottom_Ortho_0_003"
   transform="rotate(270,700,572) translate(700,572) scale(0.25,0.25)"
  >
<g   fill="none"
   stroke="rgb(0, 0, 0)"
   stroke-linecap="butt"
   stroke-linejoin="miter"
   stroke-width="1.400000"
   transform="scale(1,-1)"
  >
<path id= "1" d=" M -20 511.34 L -45 80 " />
<path id= "2" d=" M -20 511.34 L -5 520 " />
<path id= "3" d=" M -45 80 L -35 80 " />
<path id= "4" d=" M -5 492 L -5 520 " />
<path id= "5" d=" M 5 492 L -5 492 " />
<path id= "6" d=" M 5 468 L 5 492 " />
<path id= "7" d=" M -5 468 L 5 468 " />
<path id= "8" d=" M -5 300 L -5 468 " />
<path id= "9" d=" M 5 300 L -5 300 " />
<path id= "10" d=" M 5 276 L 5 300 " />
<path id= "11" d=" M -5 276 L 5 276 " />
<path id= "12" d=" M -5 108 L -5 276 " />
<path id= "13" d=" M 5 108 L -5 108 " />
<path id= "14" d=" M 5 84 L 5 108 " />
<path id= "15" d=" M -5 84 L 5 84 " />
<path id= "16" d=" M -5 56 L -5 84 " />
<path id= "17" d=" M -35 56 L -5 56 " />
<path id= "18" d=" M -35 80 L -35 56 " />
</g>
</g>



<g id="finBottom_Ortho_0_004"
   transform="rotate(270,658,553) translate(658,553) scale(0.25,0.25)"
  >
<g   fill="none"
   stroke="rgb(0, 0, 0)"
   stroke-linecap="butt"
   stroke-linejoin="miter"
   stroke-width="1.400000"
   transform="scale(1,-1)"
  >
<path id= "1" d=" M -20 511.34 L -45 80 " />
<path id= "2" d=" M -20 511.34 L -5 520 " />
<path id= "3" d=" M -45 80 L -35 80 " />
<path id= "4" d=" M -5 492 L -5 520 " />
<path id= "5" d=" M 5 492 L -5 492 " />
<path id= "6" d=" M 5 468 L 5 492 " />
<path id= "7" d=" M -5 468 L 5 468 " />
<path id= "8" d=" M -5 300 L -5 468 " />
<path id= "9" d=" M 5 300 L -5 300 " />
<path id= "10" d=" M 5 276 L 5 300 " />
<path id= "11" d=" M -5 276 L 5 276 " />
<path id= "12" d=" M -5 108 L -5 276 " />
<path id= "13" d=" M 5 108 L -5 108 " />
<path id= "14" d=" M 5 84 L 5 108 " />
<path id= "15" d=" M -5 84 L 5 84 " />
<path id= "16" d=" M -5 56 L -5 84 " />
<path id= "17" d=" M -35 56 L -5 56 " />
<path id= "18" d=" M -35 80 L -35 56 " />
</g>
</g>



<g id="finBottom_Ortho_0_005"
   transform="rotate(90,522,552) translate(522,552) scale(0.25,0.25)"
  >
<g   fill="none"
   stroke="rgb(0, 0, 0)"
   stroke-linecap="butt"
   stroke-linejoin="miter"
   stroke-width="1.400000"
   transform="scale(1,-1)"
  >
<path id= "1" d=" M -20 511.34 L -45 80 " />
<path id= "2" d=" M -20 511.34 L -5 520 " />
<path id= "3" d=" M -45 80 L -35 80 " />
<path id= "4" d=" M -5 492 L -5 520 " />
<path id= "5" d=" M 5 492 L -5 492 " />
<path id= "6" d=" M 5 468 L 5 492 " />
<path id= "7" d=" M -5 468 L 5 468 " />
<path id= "8" d=" M -5 300 L -5 468 " />
<path id= "9" d=" M 5 300 L -5 300 " />
<path id= "10" d=" M 5 276 L 5 300 " />
<path id= "11" d=" M -5 276 L 5 276 " />
<path id= "12" d=" M -5 108 L -5 276 " />
<path id= "13" d=" M 5 108 L -5 108 " />
<path id= "14" d=" M 5 84 L 5 108 " />
<path id= "15" d=" M -5 84 L 5 84 " />
<path id= "16" d=" M -5 56 L -5 84 " />
<path id= "17" d=" M -35 56 L -5 56 " />
<path id= "18" d=" M -35 80 L -35 56 " />
</g>
</g>



<g id="finBottom_Ortho_0_006"
   transform="rotate(180,593,240) translate(593,240) scale(0.25,0.25)"
  >
<g   fill="none"
   stroke="rgb(0, 0, 0)"
   stroke-linecap="butt"
   stroke-linejoin="miter"
   stroke-width="1.400000"
   transform="scale(1,-1)"
  >
<path id= "1" d=" M -20 511.34 L -45 80 " />
<path id= "2" d=" M -20 511.34 L -5 520 " />
<path id= "3" d=" M -45 80 L -35 80 " />
<path id= "4" d=" M -5 492 L -5 520 " />
<path id= "5" d=" M 5 492 L -5 492 " />
<path id= "6" d=" M 5 468 L 5 492 " />
<path id= "7" d=" M -5 468 L 5 468 " />
<path id= "8" d=" M -5 300 L -5 468 " />
<path id= "9" d=" M 5 300 L -5 300 " />
<path id= "10" d=" M 5 276 L 5 300 " />
<path id= "11" d=" M -5 276 L 5 276 " />
<path id= "12" d=" M -5 108 L -5 276 " />
<path id= "13" d=" M 5 108 L -5 108 " />
<path id= "14" d=" M 5 84 L 5 108 " />
<path id= "15" d=" M -5 84 L 5 84 " />
<path id= "16" d=" M -5 56 L -5 84 " />
<path id= "17" d=" M -35 56 L -5 56 " />
<path id= "18" d=" M -35 80 L -35 56 " />
</g>
</g>



<g id="finBottom_Ortho_0_0"
   transform="rotate(90,62,120) translate(62,120) scale(1,1)"
  >
<g   fill="none"
   stroke="rgb(0, 0, 0)"
   stroke-linecap="butt"
   stroke-linejoin="miter"
   stroke-width="0.350000"
   transform="scale(1,-1)"
  >
<path id= "1" d=" M -20 511.34 L -45 80 " />
<path id= "2" d=" M -20 511.34 L -5 520 " />
<path id= "3" d=" M -45 80 L -35 80 " />
<path id= "4" d=" M -5 492 L -5 520 " />
<path id= "5" d=" M 5 492 L -5 492 " />
<path id= "6" d=" M 5 468 L 5 492 " />
<path id= "7" d=" M -5 468 L 5 468 " />
<path id= "8" d=" M -5 300 L -5 468 " />
<path id= "9" d=" M 5 300 L -5 300 " />
<path id= "10" d=" M 5 276 L 5 300 " />
<path id= "11" d=" M -5 276 L 5 276 " />
<path id= "12" d=" M -5 108 L -5 276 " />
<path id= "13" d=" M 5 108 L -5 108 " />
<path id= "14" d=" M 5 84 L 5 108 " />
<path id= "15" d=" M -5 84 L 5 84 " />
<path id= "16" d=" M -5 56 L -5 84 " />
<path id= "17" d=" M -35 56 L -5 56 " />
<path id= "18" d=" M -35 80 L -35 56 " />
</g>
</g>



<g id="finTop_Ortho_0_001"
   transform="rotate(90,239,253) translate(239,253) scale(0.25,0.25)"
  >
<g   fill="none"
   stroke="rgb(0, 0, 0)"
   stroke-linecap="butt"
   stroke-linejoin="miter"
   stroke-width="1.400000"
   transform="scale(1,-1)"
  >
<path id= "1" d=" M 5 420 L 20 411.34 " />
<path id= "2" d=" M 5 420 L 5 396 " />
<path id= "3" d=" M 20 411.34 L 45 80 " />
<path id= "4" d=" M 5 396 L -5 396 " />
<path id= "5" d=" M -5 372 L -5 396 " />
<path id= "6" d=" M -5 372 L 5 372 " />
<path id= "7" d=" M 5 372 L 5 204 " />
<path id= "8" d=" M 5 204 L -5 204 " />
<path id= "9" d=" M -5 180 L -5 204 " />
<path id= "10" d=" M -5 180 L 5 180 " />
<path id= "11" d=" M 5 180 L 5 56 " />
<path id= "12" d=" M 35 56 L 5 56 " />
<path id= "13" d=" M 35 80 L 35 56 " />
<path id= "14" d=" M 45 80 L 35 80 " />
</g>
</g>



</svg>

