<?xml version="1.0" encoding="UTF-8"?>

<svg xmlns="http://www.w3.org/2000/svg" version="1.1"
	width="1600mm"
	height="1600mm"
	viewBox="0 0 1600 1600">
	<!-- Working space 0 0 1600 1600 -->
	<defs>
		<radialGradient
			id="radialGradient3661"
			gradientUnits="userSpaceOnUse"
			cy="29.149"
			cx="282.65"
			gradientTransform="matrix(.14777 .23089 -.24680 .15795 -26.318 -62.617)"
			r="19.571">
				<stop stop-color="#71b2f8" offset="0"/>
				<stop stop-color="#002795" offset="1"/>
		</radialGradient>
		<radialGradient
			id="radialGradient3817"
			gradientUnits="userSpaceOnUse"
			cy="33.9"
			cx="270.58"
			gradientTransform="matrix(.26631 .065024 -.17931 .73438 -60.668 -36.938)"
			r="19.571">
				<stop stop-color="#ff6d0f" offset="0"/>
				<stop stop-color="#ff1000" offset="1"/>
		</radialGradient>
	</defs>
	<!-- Set display:none to hide FreeCAD Logo -->
	<g
		style="display:none"
		id="freecad-logo"
		transform="translate(552, 380) scale(2)"
		fill-rule="evenodd"
		stroke-width=".45621">
		<path d="m0.22811 0.22835v13.256h2.9558v-5.1876h2.09v-2.0452h-2.09v-2.2075h5.1486v-3.8087l-8.1044-0.0075z"
			stroke="#370700"
			fill="url(#radialGradient3817)"/>
		<path d="m13.386 4.1792-1.7193 0.98645-0.75925-0.26348-0.72439-1.8513-1.1395 0.05988-0.51976 1.9144-0.72743 0.34835-1.8143-0.79367-0.76632 0.85156 0.98645 1.7193-0.26957 0.75702-1.8513 0.72439 0.065967 1.1417 1.9144 0.51976 0.34835 0.72743-0.79976 1.8121 0.85156 0.76632 1.7193-0.98645 0.76311 0.27179 0.7183 1.8491 1.1478-0.06375 0.51367-1.9166 0.72743-0.34835 1.8182 0.80198 0.76632-0.85156-0.98645-1.7193 0.2657-0.76533 1.8491-0.7183-0.05766-1.1456-1.9166-0.51367-0.34835-0.72743 0.7959-1.8204-0.85156-0.76632zm-2.5751 2.8195 0.35295 0.20478 0.30579 0.27725 0.24481 0.33087 0.17611 0.36787 0.10354 0.39656 0.01715 0.4064-0.0587 0.4063-0.13396 0.38571-0.2131 0.35681-0.26894 0.30192-0.33087 0.24481-0.36787 0.17611-0.39656 0.10354-0.40863 0.02325-0.4063-0.0587-0.38571-0.13396-0.35681-0.2131-0.2997-0.27503-0.24703-0.32478-0.17611-0.36787-0.10132-0.40264-0.02324-0.40863 0.05869-0.4063 0.13396-0.38571 0.21087-0.35072 0.27116-0.30801 0.33087-0.24481 0.36787-0.17611 0.40264-0.10132 0.40641-0.01715 0.4063 0.05869 0.38571 0.13396z" 
		stroke="#000137"
		fill="url(#radialGradient3661)"/>
	</g>
<g id="View017"
   transform="rotate(0,800,800) translate(800,800) scale(1,1)"
  >
<g   fill="none"
   stroke="rgb(0, 0, 0)"
   stroke-linecap="butt"
   stroke-linejoin="miter"
   stroke-width="0.350000"
   transform="scale(1,-1)"
  >
<circle cx ="0" cy ="0" r ="670" /><path id= "2" d=" M 50.8678 -172.735 L 60.3783 -169.645 " />
<path id= "3" d=" M 58.2842 -195.561 L 50.8678 -172.735 " />
<path id= "4" d=" M 60.3783 -169.645 L 67.7947 -192.47 " />
<path id= "5" d=" M 67.7947 -192.47 L 58.2842 -195.561 " />
<path id= "6" d=" M -60.3783 -169.645 L -50.8678 -172.735 " />
<path id= "7" d=" M -67.7947 -192.47 L -60.3783 -169.645 " />
<path id= "8" d=" M -50.8678 -172.735 L -58.2842 -195.561 " />
<path id= "9" d=" M -58.2842 -195.561 L -67.7947 -192.47 " />
<path id= "10" d=" M -226.228 -158.184 L -220.35 -166.274 " />
<path id= "11" d=" M -245.644 -172.29 L -226.228 -158.184 " />
<path id= "12" d=" M -220.35 -166.274 L -239.766 -180.381 " />
<path id= "13" d=" M -239.766 -180.381 L -245.644 -172.29 " />
<circle cx ="-103.83" cy ="-319.555" r ="3" /><path id= "15" d=" M -90.044 -260.947 L -80.5334 -264.037 " />
<path id= "16" d=" M -97.4604 -283.772 L -90.044 -260.947 " />
<path id= "17" d=" M -80.5334 -264.037 L -87.9498 -286.862 " />
<path id= "18" d=" M -87.9498 -286.862 L -97.4604 -283.772 " />
<circle cx ="-271.83" cy ="-197.496" r ="3" /><circle cx ="-545.69" cy ="-334.399" r ="3" /><path id= "21" d=" M -381.559 -271.038 L -375.681 -279.129 " />
<path id= "22" d=" M -400.975 -285.145 L -381.559 -271.038 " />
<path id= "23" d=" M -375.681 -279.129 L -395.097 -293.235 " />
<path id= "24" d=" M -395.097 -293.235 L -400.975 -285.145 " />
<path id= "25" d=" M -303.893 -214.611 L -298.015 -222.701 " />
<path id= "26" d=" M -323.31 -228.718 L -303.893 -214.611 " />
<path id= "27" d=" M -298.015 -222.701 L -317.432 -236.808 " />
<path id= "28" d=" M -317.432 -236.808 L -323.31 -228.718 " />
<circle cx ="-349.495" cy ="-253.923" r ="3" /><path id= "30" d=" M -357.011 -92 L -543.765 -92 " />
<path d="M-342.904 -135.416 A24 24 0 0 1 -357.011 -92" /><path d="M-543.765 -92 A24 24 0 0 1 -567.237 -121.007" /><path id= "33" d=" M -493.991 -245.187 L -342.904 -135.416 " />
<path d="M-567.237 -121.007 A580 580 0 0 1 -530.03 -235.516" /><path d="M-530.03 -235.516 A24 24 0 0 1 -493.991 -245.187" /><path id= "36" d=" M -50.8678 172.735 L -60.3783 169.645 " />
<path id= "37" d=" M -58.2842 195.561 L -50.8678 172.735 " />
<path id= "38" d=" M -60.3783 169.645 L -67.7947 192.47 " />
<path id= "39" d=" M -67.7947 192.47 L -58.2842 195.561 " />
<path id= "40" d=" M 60.3783 169.645 L 50.8678 172.735 " />
<path id= "41" d=" M 67.7947 192.47 L 60.3783 169.645 " />
<path id= "42" d=" M 50.8678 172.735 L 58.2842 195.561 " />
<path id= "43" d=" M 58.2842 195.561 L 67.7947 192.47 " />
<circle cx ="68" cy ="0" r ="3" /><circle cx ="55.0132" cy ="39.9694" r ="3" /><circle cx ="-55.0132" cy ="39.9694" r ="3" /><path d="M36 0 A36 36 0 0 1 29.1246 21.1603" /><path d="M29.1246 -21.1603 A36 36 0 0 1 36 -8.81746e-15" /><path d="M29.1246 21.1603 A36 36 0 0 1 11.1246 34.238" /><path d="M11.1246 -34.238 A36 36 0 0 1 29.1246 -21.1603" /><path d="M11.1246 34.238 A36 36 0 0 1 -11.1246 34.238" /><path d="M-11.1246 -34.238 A36 36 0 0 1 11.1246 -34.238" /><path d="M-11.1246 34.238 A36 36 0 0 1 -29.1246 21.1603" /><path d="M-29.1246 -21.1603 A36 36 0 0 1 -11.1246 -34.238" /><path d="M-29.1246 21.1603 A36 36 0 0 1 -36 -2.75657e-14" /><path d="M-36 -2.75657e-14 A36 36 0 0 1 -29.1246 -21.1603" /><circle cx ="-21.0132" cy ="64.6718" r ="3" /><circle cx ="21.0132" cy ="64.6718" r ="3" /><circle cx ="-68" cy ="8.3276e-15" r ="3" /><path id= "60" d=" M -142.684 109.846 L -148.562 101.756 " />
<path id= "61" d=" M -162.101 123.953 L -142.684 109.846 " />
<path id= "62" d=" M -148.562 101.756 L -167.978 115.863 " />
<path id= "63" d=" M -167.978 115.863 L -162.101 123.953 " />
<circle cx ="55.0132" cy ="-39.9694" r ="3" /><circle cx ="-55.0132" cy ="-39.9694" r ="3" /><circle cx ="-271.83" cy ="197.496" r ="3" /><path id= "67" d=" M -220.35 166.274 L -226.228 158.184 " />
<path id= "68" d=" M -239.766 180.381 L -220.35 166.274 " />
<path id= "69" d=" M -226.228 158.184 L -245.644 172.29 " />
<path id= "70" d=" M -245.644 172.29 L -239.766 180.381 " />
<path id= "71" d=" M -180 5 L -180 -5 " />
<path id= "72" d=" M -204 5 L -180 5 " />
<path id= "73" d=" M -180 -5 L -204 -5 " />
<path id= "74" d=" M -204 -5 L -204 5 " />
<path id= "75" d=" M -148.562 -101.756 L -142.684 -109.846 " />
<path id= "76" d=" M -167.978 -115.863 L -148.562 -101.756 " />
<path id= "77" d=" M -142.684 -109.846 L -162.101 -123.953 " />
<path id= "78" d=" M -162.101 -123.953 L -167.978 -115.863 " />
<circle cx ="21.0132" cy ="-64.6718" r ="3" /><circle cx ="-21.0132" cy ="-64.6718" r ="3" /><path id= "81" d=" M -342.904 135.416 L -493.991 245.187 " />
<path d="M-357.011 92 A24 24 0 0 1 -342.904 135.416" /><path d="M-493.991 245.187 A24 24 0 0 1 -530.03 235.516" /><path id= "84" d=" M -543.765 92 L -357.011 92 " />
<path d="M-530.03 235.516 A580 580 0 0 1 -567.237 121.007" /><path d="M-567.237 121.007 A24 24 0 0 1 -543.765 92" /><path id= "87" d=" M -372 5 L -372 -5 " />
<path id= "88" d=" M -396 5 L -372 5 " />
<path id= "89" d=" M -372 -5 L -396 -5 " />
<path id= "90" d=" M -396 -5 L -396 5 " />
<circle cx ="-336" cy ="4.11481e-14" r ="3" /><circle cx ="-432" cy ="5.29047e-14" r ="3" /><path id= "93" d=" M -468 5 L -468 -5 " />
<path id= "94" d=" M -492 5 L -468 5 " />
<path id= "95" d=" M -468 -5 L -492 -5 " />
<path id= "96" d=" M -492 -5 L -492 5 " />
<path id= "97" d=" M -298.015 222.701 L -303.893 214.611 " />
<path id= "98" d=" M -317.432 236.808 L -298.015 222.701 " />
<path id= "99" d=" M -303.893 214.611 L -323.31 228.718 " />
<path id= "100" d=" M -323.31 228.718 L -317.432 236.808 " />
<path id= "101" d=" M -276 5 L -276 -5 " />
<path id= "102" d=" M -300 5 L -276 5 " />
<path id= "103" d=" M -276 -5 L -300 -5 " />
<path id= "104" d=" M -300 -5 L -300 5 " />
<circle cx ="349.495" cy ="-253.923" r ="3" /><path id= "106" d=" M 220.35 -166.274 L 226.228 -158.184 " />
<path id= "107" d=" M 239.766 -180.381 L 220.35 -166.274 " />
<path id= "108" d=" M 245.644 -172.29 L 239.766 -180.381 " />
<path id= "109" d=" M 226.228 -158.184 L 245.644 -172.29 " />
<path id= "110" d=" M 180 -5 L 180 5 " />
<path id= "111" d=" M 204 -5 L 180 -5 " />
<path id= "112" d=" M 180 5 L 204 5 " />
<path id= "113" d=" M 204 5 L 204 -5 " />
<path id= "114" d=" M 226.228 158.184 L 220.35 166.274 " />
<path id= "115" d=" M 245.644 172.29 L 226.228 158.184 " />
<path id= "116" d=" M 220.35 166.274 L 239.766 180.381 " />
<path id= "117" d=" M 239.766 180.381 L 245.644 172.29 " />
<path id= "118" d=" M 303.893 214.611 L 298.015 222.701 " />
<path id= "119" d=" M 323.31 228.718 L 303.893 214.611 " />
<path id= "120" d=" M 298.015 222.701 L 317.432 236.808 " />
<path id= "121" d=" M 317.432 236.808 L 323.31 228.718 " />
<circle cx ="271.83" cy ="197.496" r ="3" /><circle cx ="103.83" cy ="-319.555" r ="3" /><path id= "124" d=" M 142.684 -109.846 L 148.562 -101.756 " />
<path id= "125" d=" M 162.101 -123.953 L 142.684 -109.846 " />
<path id= "126" d=" M 167.978 -115.863 L 162.101 -123.953 " />
<path id= "127" d=" M 148.562 -101.756 L 167.978 -115.863 " />
<path id= "128" d=" M 148.562 101.756 L 142.684 109.846 " />
<path id= "129" d=" M 167.978 115.863 L 148.562 101.756 " />
<path id= "130" d=" M 142.684 109.846 L 162.101 123.953 " />
<path id= "131" d=" M 162.101 123.953 L 167.978 115.863 " />
<path id= "132" d=" M 80.5334 -264.037 L 90.044 -260.947 " />
<path id= "133" d=" M 87.9498 -286.862 L 80.5334 -264.037 " />
<path id= "134" d=" M 90.044 -260.947 L 97.4604 -283.772 " />
<path id= "135" d=" M 97.4604 -283.772 L 87.9498 -286.862 " />
<path id= "136" d=" M -80.5334 264.037 L -90.044 260.947 " />
<path id= "137" d=" M -87.9498 286.862 L -80.5334 264.037 " />
<path id= "138" d=" M -90.044 260.947 L -97.4604 283.772 " />
<path id= "139" d=" M -97.4604 283.772 L -87.9498 286.862 " />
<path id= "140" d=" M 90.044 260.947 L 80.5334 264.037 " />
<path id= "141" d=" M 97.4604 283.772 L 90.044 260.947 " />
<path id= "142" d=" M 80.5334 264.037 L 87.9498 286.862 " />
<path id= "143" d=" M 87.9498 286.862 L 97.4604 283.772 " />
<path id= "144" d=" M -375.681 279.129 L -381.559 271.038 " />
<path id= "145" d=" M -395.097 293.235 L -375.681 279.129 " />
<path id= "146" d=" M -381.559 271.038 L -400.975 285.145 " />
<path id= "147" d=" M -400.975 285.145 L -395.097 293.235 " />
<circle cx ="-349.495" cy ="253.923" r ="3" /><circle cx ="349.495" cy ="253.923" r ="3" /><circle cx ="-486.66" cy ="-415.647" r ="3" /><path id= "151" d=" M -119.71 -352.248 L -110.199 -355.338 " />
<path id= "152" d=" M -127.126 -375.073 L -119.71 -352.248 " />
<path id= "153" d=" M -110.199 -355.338 L -117.615 -378.163 " />
<path id= "154" d=" M -117.615 -378.163 L -127.126 -375.073 " />
<circle cx ="-334.399" cy ="-545.69" r ="3" /><circle cx ="-415.647" cy ="-486.66" r ="3" /><path id= "157" d=" M -234.752 -284.276 L -385.839 -394.046 " />
<path d="M-197.82 -311.108 A24 24 0 0 1 -234.752 -284.276" /><path d="M-385.839 -394.046 A24 24 0 0 1 -387.778 -431.31" /><path id= "160" d=" M -255.53 -488.721 L -197.82 -311.108 " />
<path d="M-387.778 -431.31 A580 580 0 0 1 -290.37 -502.081" /><path d="M-290.37 -502.081 A24 24 0 0 1 -255.53 -488.721" /><path id= "163" d=" M -22.8254 -367.967 L -80.5353 -545.58 " />
<path d="M22.8254 -367.967 A24 24 0 0 1 -22.8254 -367.967" /><path d="M-80.5353 -545.58 A24 24 0 0 1 -60.201 -576.867" /><path id= "166" d=" M 80.5353 -545.58 L 22.8254 -367.967 " />
<path d="M-60.201 -576.867 A580 580 0 0 1 60.201 -576.867" /><path d="M60.201 -576.867 A24 24 0 0 1 80.5353 -545.58" /><path id= "169" d=" M -149.375 -443.549 L -139.865 -446.64 " />
<path id= "170" d=" M -156.792 -466.375 L -149.375 -443.549 " />
<path id= "171" d=" M -139.865 -446.64 L -147.281 -469.465 " />
<path id= "172" d=" M -147.281 -469.465 L -156.792 -466.375 " />
<circle cx ="-133.495" cy ="-410.856" r ="3" /><circle cx ="133.495" cy ="-410.856" r ="3" /><path id= "175" d=" M 110.199 -355.338 L 119.71 -352.248 " />
<path id= "176" d=" M 117.615 -378.163 L 110.199 -355.338 " />
<path id= "177" d=" M 119.71 -352.248 L 127.126 -375.073 " />
<path id= "178" d=" M 127.126 -375.073 L 117.615 -378.163 " />
<circle cx ="334.399" cy ="-545.69" r ="3" /><path id= "180" d=" M 139.865 -446.64 L 149.375 -443.549 " />
<path id= "181" d=" M 147.281 -469.465 L 139.865 -446.64 " />
<path id= "182" d=" M 149.375 -443.549 L 156.792 -466.375 " />
<path id= "183" d=" M 156.792 -466.375 L 147.281 -469.465 " />
<circle cx ="486.66" cy ="-415.647" r ="3" /><circle cx ="415.647" cy ="-486.66" r ="3" /><path id= "186" d=" M 197.82 -311.108 L 255.53 -488.721 " />
<path d="M234.752 -284.276 A24 24 0 0 1 197.82 -311.108" /><path d="M255.53 -488.721 A24 24 0 0 1 290.37 -502.081" /><path id= "189" d=" M 385.839 -394.046 L 234.752 -284.276 " />
<path d="M290.37 -502.081 A580 580 0 0 1 387.778 -431.31" /><path d="M387.778 -431.31 A24 24 0 0 1 385.839 -394.046" /><path id= "192" d=" M 375.681 -279.129 L 381.559 -271.038 " />
<path id= "193" d=" M 395.097 -293.235 L 375.681 -279.129 " />
<path id= "194" d=" M 400.975 -285.145 L 395.097 -293.235 " />
<path id= "195" d=" M 381.559 -271.038 L 400.975 -285.145 " />
<circle cx ="545.69" cy ="-334.399" r ="3" /><path id= "197" d=" M 468 -5 L 468 5 " />
<path id= "198" d=" M 492 -5 L 468 -5 " />
<path id= "199" d=" M 468 5 L 492 5 " />
<path id= "200" d=" M 492 5 L 492 -5 " />
<circle cx ="336" cy ="0" r ="3" /><path id= "202" d=" M 342.904 -135.416 L 493.991 -245.187 " />
<path d="M357.011 -92 A24 24 0 0 1 342.904 -135.416" /><path d="M493.991 -245.187 A24 24 0 0 1 530.03 -235.516" /><path id= "205" d=" M 543.765 -92 L 357.011 -92 " />
<path d="M530.03 -235.516 A580 580 0 0 1 567.237 -121.007" /><path d="M567.237 -121.007 A24 24 0 0 1 543.765 -92" /><path id= "208" d=" M 276 -5 L 276 5 " />
<path id= "209" d=" M 300 -5 L 276 -5 " />
<path id= "210" d=" M 276 5 L 300 5 " />
<path id= "211" d=" M 300 5 L 300 -5 " />
<path id= "212" d=" M 298.015 -222.701 L 303.893 -214.611 " />
<path id= "213" d=" M 317.432 -236.808 L 298.015 -222.701 " />
<path id= "214" d=" M 323.31 -228.718 L 317.432 -236.808 " />
<path id= "215" d=" M 303.893 -214.611 L 323.31 -228.718 " />
<circle cx ="271.83" cy ="-197.496" r ="3" /><path id= "217" d=" M 372 -5 L 372 5 " />
<path id= "218" d=" M 396 -5 L 372 -5 " />
<path id= "219" d=" M 372 5 L 396 5 " />
<path id= "220" d=" M 396 5 L 396 -5 " />
<circle cx ="-149.405" cy ="-622.317" r ="3" /><circle cx ="244.917" cy ="-591.283" r ="3" /><circle cx ="149.405" cy ="-622.317" r ="3" /><circle cx ="-244.917" cy ="-591.283" r ="3" /><circle cx ="50.2138" cy ="-638.027" r ="3" /><circle cx ="-50.2138" cy ="-638.027" r ="3" /><path id= "227" d=" M 119.71 352.248 L 110.199 355.338 " />
<path id= "228" d=" M 127.126 375.073 L 119.71 352.248 " />
<path id= "229" d=" M 110.199 355.338 L 117.615 378.163 " />
<path id= "230" d=" M 117.615 378.163 L 127.126 375.073 " />
<circle cx ="103.83" cy ="319.555" r ="3" /><circle cx ="-103.83" cy ="319.555" r ="3" /><path id= "233" d=" M -110.199 355.338 L -119.71 352.248 " />
<path id= "234" d=" M -117.615 378.163 L -110.199 355.338 " />
<path id= "235" d=" M -119.71 352.248 L -127.126 375.073 " />
<path id= "236" d=" M -127.126 375.073 L -117.615 378.163 " />
<circle cx ="-545.69" cy ="334.399" r ="3" /><circle cx ="-415.647" cy ="486.66" r ="3" /><path id= "239" d=" M -197.82 311.108 L -255.53 488.721 " />
<path d="M-234.752 284.276 A24 24 0 0 1 -197.82 311.108" /><path d="M-255.53 488.721 A24 24 0 0 1 -290.37 502.081" /><path id= "242" d=" M -385.839 394.046 L -234.752 284.276 " />
<path d="M-290.37 502.081 A580 580 0 0 1 -387.778 431.31" /><path d="M-387.778 431.31 A24 24 0 0 1 -385.839 394.046" /><path id= "245" d=" M -139.865 446.64 L -149.375 443.549 " />
<path id= "246" d=" M -147.281 469.465 L -139.865 446.64 " />
<path id= "247" d=" M -149.375 443.549 L -156.792 466.375 " />
<path id= "248" d=" M -156.792 466.375 L -147.281 469.465 " />
<circle cx ="-133.495" cy ="410.856" r ="3" /><circle cx ="486.66" cy ="415.647" r ="3" /><circle cx ="133.495" cy ="410.856" r ="3" /><path id= "252" d=" M 149.375 443.549 L 139.865 446.64 " />
<path id= "253" d=" M 156.792 466.375 L 149.375 443.549 " />
<path id= "254" d=" M 139.865 446.64 L 147.281 469.465 " />
<path id= "255" d=" M 147.281 469.465 L 156.792 466.375 " />
<circle cx ="-486.66" cy ="415.647" r ="3" /><circle cx ="149.405" cy ="622.317" r ="3" /><circle cx ="244.917" cy ="591.283" r ="3" /><circle cx ="334.399" cy ="545.69" r ="3" /><circle cx ="-334.399" cy ="545.69" r ="3" /><circle cx ="-244.917" cy ="591.283" r ="3" /><circle cx ="-149.405" cy ="622.317" r ="3" /><path id= "263" d=" M 22.8254 367.967 L 80.5353 545.58 " />
<path d="M-22.8254 367.967 A24 24 0 0 1 22.8254 367.967" /><path d="M80.5353 545.58 A24 24 0 0 1 60.201 576.867" /><path id= "266" d=" M -80.5353 545.58 L -22.8254 367.967 " />
<path d="M60.201 576.867 A580 580 0 0 1 -60.201 576.867" /><path d="M-60.201 576.867 A24 24 0 0 1 -80.5353 545.58" /><circle cx ="638.027" cy ="50.2138" r ="3" /><circle cx ="622.317" cy ="149.405" r ="3" /><circle cx ="591.283" cy ="244.917" r ="3" /><circle cx ="545.69" cy ="334.399" r ="3" /><circle cx ="415.647" cy ="486.66" r ="3" /><path id= "274" d=" M 234.752 284.276 L 385.839 394.046 " />
<path d="M385.839 394.046 A24 24 0 0 1 387.778 431.31" /><path d="M387.778 431.31 A580 580 0 0 1 290.37 502.081" /><path d="M290.37 502.081 A24 24 0 0 1 255.53 488.721" /><path id= "278" d=" M 255.53 488.721 L 197.82 311.108 " />
<path d="M197.82 311.108 A24 24 0 0 1 234.752 284.276" /><path id= "280" d=" M 381.559 271.038 L 375.681 279.129 " />
<path id= "281" d=" M 400.975 285.145 L 381.559 271.038 " />
<path id= "282" d=" M 375.681 279.129 L 395.097 293.235 " />
<path id= "283" d=" M 395.097 293.235 L 400.975 285.145 " />
<path id= "284" d=" M 357.011 92 L 543.765 92 " />
<path d="M342.904 135.416 A24 24 0 0 1 357.011 92" /><path d="M543.765 92 A24 24 0 0 1 567.237 121.007" /><path id= "287" d=" M 493.991 245.187 L 342.904 135.416 " />
<path d="M567.237 121.007 A580 580 0 0 1 530.03 235.516" /><path d="M530.03 235.516 A24 24 0 0 1 493.991 245.187" /><circle cx ="638.027" cy ="-50.2138" r ="3" /><circle cx ="432" cy ="0" r ="3" /><circle cx ="622.317" cy ="-149.405" r ="3" /><circle cx ="591.283" cy ="-244.917" r ="3" /><circle cx ="-622.317" cy ="149.405" r ="3" /><circle cx ="-591.283" cy ="244.917" r ="3" /><circle cx ="-591.283" cy ="-244.917" r ="3" /><circle cx ="-622.317" cy ="-149.405" r ="3" /><circle cx ="-638.027" cy ="-50.2138" r ="3" /><circle cx ="-638.027" cy ="50.2138" r ="3" /><circle cx ="50.2138" cy ="638.027" r ="3" /><circle cx ="-50.2138" cy ="638.027" r ="3" /></g>
</g>



<g id="View018"
   transform="rotate(90,80,1460) translate(80,1460) scale(1,1)"
  >
<g   fill="none"
   stroke="rgb(0, 0, 0)"
   stroke-linecap="butt"
   stroke-linejoin="miter"
   stroke-width="0.350000"
   transform="scale(1,-1)"
  >
<path id= "1" d=" M 20 511.34 L 45 80 " />
<path id= "2" d=" M 20 511.34 L 5 520 " />
<path id= "3" d=" M 45 80 L 35 80 " />
<path id= "4" d=" M 5 492 L 5 520 " />
<path id= "5" d=" M -5 492 L 5 492 " />
<path id= "6" d=" M -5 468 L -5 492 " />
<path id= "7" d=" M 5 468 L -5 468 " />
<path id= "8" d=" M 5 300 L 5 468 " />
<path id= "9" d=" M -5 300 L 5 300 " />
<path id= "10" d=" M -5 276 L -5 300 " />
<path id= "11" d=" M 5 276 L -5 276 " />
<path id= "12" d=" M 5 108 L 5 276 " />
<path id= "13" d=" M 5 108 L 5 84 " />
<path id= "14" d=" M 5 56 L 5 84 " />
<path id= "15" d=" M 35 56 L 5 56 " />
<path id= "16" d=" M 35 80 L 35 56 " />
</g>
</g>



<g id="View019"
   transform="rotate(90,80,1440) translate(80,1440) scale(1,1)"
  >
<g   fill="none"
   stroke="rgb(0, 0, 0)"
   stroke-linecap="butt"
   stroke-linejoin="miter"
   stroke-width="0.350000"
   transform="scale(1,-1)"
  >
<path id= "1" d=" M -5 420 L -20 411.34 " />
<path id= "2" d=" M -5 420 L -5 396 " />
<path id= "3" d=" M -20 411.34 L -45 80 " />
<path id= "4" d=" M -5 396 L 5 396 " />
<path id= "5" d=" M 5 372 L 5 396 " />
<path id= "6" d=" M 5 372 L -5 372 " />
<path id= "7" d=" M -5 372 L -5 204 " />
<path id= "8" d=" M -5 204 L 5 204 " />
<path id= "9" d=" M 5 180 L 5 204 " />
<path id= "10" d=" M 5 180 L -5 180 " />
<path id= "11" d=" M -5 180 L -5 56 " />
<path id= "12" d=" M -35 56 L -5 56 " />
<path id= "13" d=" M -35 80 L -35 56 " />
<path id= "14" d=" M -45 80 L -35 80 " />
</g>
</g>



<g id="View020"
   transform="rotate(0,200,1300) translate(200,1300) scale(1,1)"
  >
<g   fill="none"
   stroke="rgb(0, 0, 0)"
   stroke-linecap="butt"
   stroke-linejoin="miter"
   stroke-width="0.350000"
   transform="scale(1,-1)"
  >
<path d="M79.8436 5 A80 80 0 0 1 67.5338 42.8858" /><path id= "2" d=" M 67.5338 42.8858 L 48.2439 28.8709 " />
<path id= "3" d=" M 22.0602 51.7141 L 12.5497 54.8042 " />
<path id= "4" d=" M 29.4283 74.3907 L 22.0602 51.7141 " />
<path d="M61.6559 50.976 A80 80 0 0 1 29.4283 74.3907" /><path id= "6" d=" M 42.366 36.9611 L 61.6559 50.976 " />
<path id= "7" d=" M 48.2439 28.8709 L 42.366 36.9611 " />
<path id= "8" d=" M 56 5 L 79.8436 5 " />
<path id= "9" d=" M 56 -5 L 56 5 " />
<path id= "10" d=" M 79.8436 -5 L 56 -5 " />
<path d="M67.5338 -42.8858 A80 80 0 0 1 79.8436 -5" /><path id= "12" d=" M 48.2439 -28.8709 L 67.5338 -42.8858 " />
<path id= "13" d=" M 42.366 -36.9611 L 48.2439 -28.8709 " />
<path id= "14" d=" M 61.6559 -50.976 L 42.366 -36.9611 " />
<path d="M29.4283 -74.3907 A80 80 0 0 1 61.6559 -50.976" /><path id= "16" d=" M 22.0602 -51.7141 L 29.4283 -74.3907 " />
<path id= "17" d=" M 12.5497 -54.8042 L 22.0602 -51.7141 " />
<path id= "18" d=" M 19.9177 -77.4809 L 12.5497 -54.8042 " />
<path d="M-19.9177 -77.4809 A80 80 0 0 1 19.9177 -77.4809" /><path id= "20" d=" M -12.5497 -54.8042 L -19.9177 -77.4809 " />
<path id= "21" d=" M -22.0602 -51.7141 L -12.5497 -54.8042 " />
<path id= "22" d=" M -29.4283 -74.3907 L -22.0602 -51.7141 " />
<path d="M-61.6559 -50.976 A80 80 0 0 1 -29.4283 -74.3907" /><path id= "24" d=" M -42.366 -36.9611 L -61.6559 -50.976 " />
<path id= "25" d=" M -48.2439 -28.8709 L -42.366 -36.9611 " />
<path id= "26" d=" M -67.5338 -42.8858 L -48.2439 -28.8709 " />
<path d="M-79.8436 -5 A80 80 0 0 1 -67.5338 -42.8858" /><path id= "28" d=" M -56 -5 L -79.8436 -5 " />
<path id= "29" d=" M -56 5 L -56 -5 " />
<path id= "30" d=" M -79.8436 5 L -56 5 " />
<path d="M-67.5338 42.8858 A80 80 0 0 1 -79.8436 5" /><path id= "32" d=" M -48.2439 28.8709 L -67.5338 42.8858 " />
<path id= "33" d=" M -42.366 36.9611 L -48.2439 28.8709 " />
<path id= "34" d=" M -61.6559 50.976 L -42.366 36.9611 " />
<path d="M-29.4283 74.3907 A80 80 0 0 1 -61.6559 50.976" /><path id= "36" d=" M -22.0602 51.7141 L -29.4283 74.3907 " />
<path id= "37" d=" M -12.5497 54.8042 L -22.0602 51.7141 " />
<path id= "38" d=" M -19.9177 77.4809 L -12.5497 54.8042 " />
<path d="M19.9177 77.4809 A80 80 0 0 1 -19.9177 77.4809" /><path id= "40" d=" M 12.5497 54.8042 L 19.9177 77.4809 " />
<path d="M12 0 A12 12 0 0 1 9.7082 7.05342" /><path d="M9.7082 -7.05342 A12 12 0 0 1 12 -2.93915e-15" /><path d="M9.7082 7.05342 A12 12 0 0 1 3.7082 11.4127" /><path d="M3.7082 -11.4127 A12 12 0 0 1 9.7082 -7.05342" /><path d="M3.7082 11.4127 A12 12 0 0 1 -3.7082 11.4127" /><path d="M-3.7082 -11.4127 A12 12 0 0 1 3.7082 -11.4127" /><path d="M-3.7082 11.4127 A12 12 0 0 1 -9.7082 7.05342" /><path d="M-9.7082 -7.05342 A12 12 0 0 1 -3.7082 -11.4127" /><path d="M-9.7082 7.05342 A12 12 0 0 1 -12 1.46958e-15" /><path d="M-12 1.46958e-15 A12 12 0 0 1 -9.7082 -7.05342" /></g>
</g>



<g id="View021"
   transform="rotate(0,200,300) translate(200,300) scale(1,1)"
  >
<g   fill="none"
   stroke="rgb(0, 0, 0)"
   stroke-linecap="butt"
   stroke-linejoin="miter"
   stroke-width="0.350000"
   transform="scale(1,-1)"
  >
<circle cx ="0" cy ="0" r ="80" /><circle cx ="-55.0132" cy ="39.9694" r ="3" /><circle cx ="-55.0132" cy ="-39.9694" r ="3" /><circle cx ="21.0132" cy ="-64.6718" r ="3" /><circle cx ="0" cy ="0" r ="17.5" /><circle cx ="-21.0132" cy ="-64.6718" r ="3" /><circle cx ="55.0132" cy ="39.9694" r ="3" /><circle cx ="55.0132" cy ="-39.9694" r ="3" /><circle cx ="21.0132" cy ="64.6718" r ="3" /><circle cx ="-21.0132" cy ="64.6718" r ="3" /><circle cx ="-68" cy ="0" r ="3" /><circle cx ="68" cy ="0" r ="3" /></g>
</g>



<g id="View022"
   transform="rotate(18,890,240) translate(890,240) scale(1,1)"
  >
<g   fill="none"
   stroke="rgb(0, 0, 0)"
   stroke-linecap="butt"
   stroke-linejoin="miter"
   stroke-width="0.350000"
   transform="scale(1,-1)"
  >
<path d="M686.999,1.26127 C687.496,1.43632 687.997,1.61484 688.503,1.7969 " /><path d="M686.25 0.136733 A1.125 1.125 0 0 0 686.999 1.26127" /><path d="M688.503,1.7969 C689.963,2.32293 691.46,2.87846 692.991,3.46503 " /><path d="M686.25 -5.38315e-11 A686.25 686.25 0 0 1 686.25 0.136733" /><path id= "5" d=" M 686.25 -4.11745e-11 L 620 -3.71995e-11 " />
<path d="M620 -3.72004e-11 A620 620 0 0 1 501.591 364.427" /><path d="M692.991 3.46503 A693 693 0 0 1 692.974 5.96908" /><path id= "8" d=" M 555.188 403.368 L 501.591 364.427 " />
<path d="M692.974,5.96908 C691.435,6.53475 689.931,7.06986 688.463,7.57596 " /><path d="M555.287 403.232 A686.25 686.25 0 0 1 555.188 403.368" /><path d="M688.463,7.57596 C687.955,7.75111 687.452,7.92279 686.952,8.09107 " /><path d="M556.553 402.762 A1.125 1.125 0 0 0 555.287 403.232" /><path d="M686.952 8.09107 A1.125 1.125 0 0 0 686.188 9.2053" /><path d="M558.085,403.213 C557.569,403.063 557.058,402.913 556.553,402.762 " /><path d="M686.188 9.2053 A686.25 686.25 0 0 1 686.184 9.50998" /><path d="M562.697,404.501 C561.113,404.076 559.576,403.645 558.085,403.213 " /><path d="M686.184 9.50998 A1.125 1.125 0 0 0 686.918 10.6446" /><path d="M564.155 402.465 A693 693 0 0 1 562.697 404.501" /><path d="M686.918,10.6446 C687.412,10.8265 687.911,11.0118 688.414,11.2008 " /><path d="M561.45,398.514 C562.34,399.786 563.242,401.103 564.155,402.465 " /><path d="M688.414,11.2008 C689.867,11.7467 691.356,12.3226 692.879,12.9301 " /><path d="M560.53,397.209 C560.835,397.639 561.142,398.074 561.45,398.514 " /><path d="M692.879 12.9301 A693 693 0 0 1 692.828 15.4336" /><path d="M560.567 395.859 A1.125 1.125 0 0 0 560.53 397.209" /><path d="M692.828,15.4336 C691.281,15.9782 689.77,16.4927 688.296,16.9787 " /><path d="M560.742 395.61 A686.25 686.25 0 0 1 560.567 395.859" /><path d="M688.296,16.9787 C687.785,17.1469 687.279,17.3117 686.778,17.4732 " /><path d="M562.003 395.123 A1.125 1.125 0 0 0 560.742 395.61" /><path d="M686.778 17.4732 A1.125 1.125 0 0 0 685.999 18.5769" /><path d="M563.54,395.552 C563.022,395.409 562.51,395.266 562.003,395.123 " /><path d="M685.999 18.5769 A686.25 686.25 0 0 1 685.99 18.8815" /><path d="M568.169,396.778 C566.58,396.374 565.037,395.965 563.54,395.552 " /><path d="M685.99 18.8815 A1.125 1.125 0 0 0 686.708 20.026" /><path d="M569.599 394.722 A693 693 0 0 1 568.169 396.778" /><path d="M686.708,20.026 C687.2,20.2146 687.696,20.4067 688.197,20.6025 " /><path d="M566.84,390.808 C567.748,392.068 568.668,393.372 569.599,394.722 " /><path d="M688.197,20.6025 C689.642,21.1683 691.123,21.7645 692.638,22.3927 " /><path d="M565.903,389.516 C566.214,389.941 566.526,390.372 566.84,390.808 " /><path d="M692.638 22.3927 A693 693 0 0 1 692.553 24.8953" /><path d="M565.921 388.165 A1.125 1.125 0 0 0 565.903 389.516" /><path d="M692.553,24.8953 C690.998,25.4187 689.48,25.9125 687.999,26.3784 " /><path d="M566.094 387.914 A686.25 686.25 0 0 1 565.921 388.165" /><path d="M687.999,26.3784 C687.487,26.5396 686.979,26.6974 686.475,26.852 " /><path d="M567.347 387.41 A1.125 1.125 0 0 0 566.094 387.914" /><path d="M686.475 26.852 A1.125 1.125 0 0 0 685.681 27.945" /><path d="M568.89,387.818 C568.37,387.682 567.856,387.546 567.347,387.41 " /><path d="M685.681 27.945 A686.25 686.25 0 0 1 685.668 28.2494" /><path d="M573.536,388.98 C571.941,388.598 570.392,388.21 568.89,387.818 " /><path d="M685.668 28.2494 A1.125 1.125 0 0 0 686.37 29.4037" /><path d="M574.938 386.905 A693 693 0 0 1 573.536 388.98" /><path d="M686.37,29.4037 C686.86,29.5989 687.353,29.7979 687.851,30.0005 " /><path d="M572.125,383.029 C573.05,384.277 573.988,385.568 574.938,386.905 " /><path d="M687.851,30.0005 C689.289,30.5859 690.761,31.2023 692.268,31.8511 " /><path d="M571.171,381.75 C571.487,382.171 571.806,382.598 572.125,383.029 " /><path d="M692.268 31.8511 A693 693 0 0 1 692.148 34.3523" /><path d="M571.17 380.399 A1.125 1.125 0 0 0 571.171 381.75" /><path d="M692.148,34.3523 C690.587,34.8545 689.062,35.3275 687.575,35.7731 " /><path d="M571.339 380.145 A686.25 686.25 0 0 1 571.17 380.399" /><path d="M687.575,35.7731 C687.06,35.9273 686.55,36.0782 686.044,36.2258 " /><path d="M572.586 379.624 A1.125 1.125 0 0 0 571.339 380.145" /><path d="M686.044 36.2258 A1.125 1.125 0 0 0 685.235 37.3078" /><path d="M574.134,380.012 C573.613,379.883 573.096,379.754 572.586,379.624 " /><path d="M685.235 37.3078 A686.25 686.25 0 0 1 685.218 37.6121" /><path d="M578.795,381.11 C577.195,380.75 575.642,380.383 574.134,380.012 " /><path d="M685.218 37.6121 A1.125 1.125 0 0 0 685.905 38.7759" /><path d="M580.169 379.016 A693 693 0 0 1 578.795 381.11" /><path d="M685.905,38.7759 C686.391,38.9778 686.882,39.1834 687.377,39.3928 " /><path d="M577.304,375.179 C578.245,376.414 579.201,377.693 580.169,379.016 " /><path d="M687.377,39.3928 C688.807,39.9978 690.271,40.6342 691.768,41.3036 " /><path d="M576.331,373.913 C576.654,374.33 576.978,374.752 577.304,375.179 " /><path d="M691.768 41.3036 A693 693 0 0 1 691.614 43.803" /><path d="M576.313 372.562 A1.125 1.125 0 0 0 576.331 373.913" /><path d="M691.614,43.803 C690.046,44.2837 688.515,44.7359 687.022,45.1611 " /><path d="M576.478 372.306 A686.25 686.25 0 0 1 576.313 372.562" /><path d="M687.022,45.1611 C686.505,45.3082 685.993,45.4522 685.485,45.5929 " /><path d="M577.717 371.768 A1.125 1.125 0 0 0 576.478 372.306" /><path d="M685.485 45.5929 A1.125 1.125 0 0 0 684.662 46.6638" /><path d="M579.271,372.134 C578.748,372.013 578.23,371.891 577.717,371.768 " /><path d="M684.662 46.6638 A686.25 686.25 0 0 1 684.641 46.9678" /><path d="M583.947,373.169 C582.342,372.831 580.784,372.485 579.271,372.134 " /><path d="M684.641 46.9678 A1.125 1.125 0 0 0 685.311 48.1408" /><path d="M585.291 371.057 A693 693 0 0 1 583.947 373.169" /><path d="M685.311,48.1408 C685.795,48.3493 686.283,48.5617 686.775,48.7778 " /><path d="M582.374,367.259 C583.333,368.481 584.305,369.746 585.291,371.057 " /><path d="M686.775,48.7778 C688.196,49.4023 689.651,50.0586 691.139,50.7484 " /><path d="M581.385,366.006 C581.713,366.419 582.043,366.836 582.374,367.259 " /><path d="M691.139 50.7484 A693 693 0 0 1 690.951 53.2454" /><path d="M581.348 364.656 A1.125 1.125 0 0 0 581.385 366.006" /><path d="M690.951,53.2454 C689.377,53.7047 687.84,54.1359 686.341,54.5407 " /><path d="M581.51 364.398 A686.25 686.25 0 0 1 581.348 364.656" /><path d="M686.341,54.5407 C685.823,54.6808 685.308,54.8177 684.799,54.9515 " /><path d="M582.741 363.843 A1.125 1.125 0 0 0 581.51 364.398" /><path d="M684.799 54.9515 A1.125 1.125 0 0 0 683.96 56.011" /><path d="M584.3,364.187 C583.775,364.073 583.255,363.958 582.741,363.843 " /><path d="M683.96 56.011 A686.25 686.25 0 0 1 683.935 56.3147" /><path d="M588.989,365.158 C587.38,364.842 585.817,364.518 584.3,364.187 " /><path d="M683.935 56.3147 A1.125 1.125 0 0 0 684.59 57.4967" /><path d="M590.305 363.028 A693 693 0 0 1 588.989 365.158" /><path d="M684.59,57.4967 C685.071,57.7119 685.556,57.9308 686.045,58.1537 " /><path d="M587.336,359.27 C588.311,360.479 589.301,361.731 590.305,363.028 " /><path d="M686.045,58.1537 C687.457,58.7975 688.903,59.4737 690.382,60.1837 " /><path d="M586.33,358.031 C586.663,358.439 586.999,358.852 587.336,359.27 " /><path d="M690.382 60.1837 A693 693 0 0 1 690.16 62.6779" /><path d="M586.274 356.681 A1.125 1.125 0 0 0 586.33 358.031" /><path d="M690.16,62.6779 C688.579,63.1157 687.037,63.5259 685.532,63.9101 " /><path d="M586.433 356.421 A686.25 686.25 0 0 1 586.274 356.681" /><path d="M685.532,63.9101 C685.012,64.0431 684.496,64.173 683.984,64.2998 " /><path d="M587.657 355.849 A1.125 1.125 0 0 0 586.433 356.421" /><path d="M683.984 64.2998 A1.125 1.125 0 0 0 683.132 65.3478" /><path d="M589.22,356.173 C588.693,356.066 588.172,355.958 587.657,355.849 " /><path d="M683.132 65.3478 A686.25 686.25 0 0 1 683.102 65.6511" /><path d="M593.922,357.08 C592.309,356.785 590.741,356.482 589.22,356.173 " /><path d="M683.102 65.6511 A1.125 1.125 0 0 0 683.741 66.842" /><path d="M595.208 354.931 A693 693 0 0 1 593.922 357.08" /><path d="M683.741,66.842 C684.218,67.0637 684.7,67.2892 685.186,67.5187 " /><path d="M592.189,351.214 C593.18,352.409 594.187,353.648 595.208,354.931 " /><path d="M685.186,67.5187 C686.59,68.1818 688.027,68.8777 689.495,69.6078 " /><path d="M591.165,349.989 C591.505,350.393 591.846,350.801 592.189,351.214 " /><path d="M689.495 69.6078 A693 693 0 0 1 689.239 72.0987" /><path d="M591.091 348.64 A1.125 1.125 0 0 0 591.165 349.989" /><path d="M689.239,72.0987 C687.653,72.5149 686.105,72.9039 684.595,73.2676 " /><path d="M591.246 348.378 A686.25 686.25 0 0 1 591.091 348.64" /><path d="M684.595,73.2676 C684.073,73.3935 683.555,73.5163 683.042,73.6361 " /><path d="M592.462 347.789 A1.125 1.125 0 0 0 591.246 348.378" /><path d="M683.042 73.6361 A1.125 1.125 0 0 0 682.175 74.6723" /><path d="M594.03,348.092 C593.502,347.992 592.979,347.891 592.462,347.789 " /><path d="M682.175 74.6723 A686.25 686.25 0 0 1 682.142 74.9752" /><path d="M598.744,348.934 C597.127,348.662 595.555,348.38 594.03,348.092 " /><path d="M682.142 74.9752 A1.125 1.125 0 0 0 682.764 76.1747" /><path d="M600.001 346.768 A693 693 0 0 1 598.744 348.934" /><path d="M682.764,76.1747 C683.239,76.4029 683.717,76.635 684.2,76.8711 " /><path d="M596.931,343.093 C597.938,344.275 598.962,345.499 600.001,346.768 " /><path d="M684.2,76.8711 C685.595,77.5533 687.022,78.2688 688.48,79.0189 " /><path d="M595.891,341.882 C596.235,342.281 596.582,342.684 596.931,343.093 " /><path d="M688.48 79.0189 A693 693 0 0 1 688.19 81.5061" /><path d="M595.798 340.534 A1.125 1.125 0 0 0 595.891 341.882" /><path d="M688.19,81.5061 C686.598,81.9005 685.045,82.2684 683.531,82.6114 " /><path d="M595.949 340.27 A686.25 686.25 0 0 1 595.798 340.534" /><path d="M683.531,82.6114 C683.007,82.7302 682.487,82.8459 681.973,82.9587 " /><path d="M597.157 339.665 A1.125 1.125 0 0 0 595.949 340.27" /><path d="M681.973 82.9587 A1.125 1.125 0 0 0 681.092 83.983" /><path d="M598.729,339.945 C598.199,339.853 597.676,339.759 597.157,339.665 " /><path d="M681.092 83.983 A686.25 686.25 0 0 1 681.054 84.2854" /><path d="M603.454,340.723 C601.833,340.473 600.258,340.213 598.729,339.945 " /><path d="M681.054 84.2854 A1.125 1.125 0 0 0 681.66 85.4933" /><path d="M604.681 338.541 A693 693 0 0 1 603.454 340.723" /><path d="M681.66,85.4933 C682.131,85.7279 682.607,85.9666 683.086,86.2092 " /><path d="M601.561,334.908 C602.585,336.075 603.625,337.286 604.681,338.541 " /><path d="M683.086,86.2092 C684.472,86.9104 685.889,87.6453 687.337,88.4152 " /><path d="M600.505,333.711 C600.855,334.105 601.207,334.504 601.561,334.908 " /><path d="M687.337 88.4152 A693 693 0 0 1 687.013 90.8983" /><path d="M600.394 332.365 A1.125 1.125 0 0 0 600.505 333.711" /><path d="M687.013,90.8983 C685.416,91.2709 683.857,91.6176 682.339,91.9399 " /><path d="M600.541 332.098 A686.25 686.25 0 0 1 600.394 332.365" /><path d="M682.339,91.9399 C681.813,92.0514 681.292,92.16 680.776,92.2658 " /><path d="M601.741 331.477 A1.125 1.125 0 0 0 600.541 332.098" /><path d="M680.776 92.2658 A1.125 1.125 0 0 0 679.881 93.2779" /><path d="M603.316,331.736 C602.786,331.65 602.261,331.564 601.741,331.477 " /><path d="M679.881 93.2779 A686.25 686.25 0 0 1 679.84 93.5798" /><path d="M608.051,332.449 C606.427,332.221 604.849,331.983 603.316,331.736 " /><path d="M679.84 93.5798 A1.125 1.125 0 0 0 680.428 94.7958" /><path d="M609.249 330.25 A693 693 0 0 1 608.051 332.449" /><path d="M680.428,94.7958 C680.897,95.0369 681.369,95.282 681.845,95.5312 " /><path d="M606.079,326.66 C607.119,327.813 608.176,329.01 609.249,330.25 " /><path d="M681.845,95.5312 C683.221,96.2513 684.628,97.0054 686.065,97.7951 " /><path d="M605.007,325.478 C605.362,325.867 605.72,326.261 606.079,326.66 " /><path d="M686.065 97.7951 A693 693 0 0 1 685.707 100.273" /><path d="M604.878 324.133 A1.125 1.125 0 0 0 605.007 325.478" /><path d="M685.707,100.273 C684.105,100.624 682.542,100.95 681.019,101.251 " /><path d="M605.021 323.864 A686.25 686.25 0 0 1 604.878 324.133" /><path d="M681.019,101.251 C680.492,101.355 679.97,101.457 679.452,101.556 " /><path d="M606.212 323.227 A1.125 1.125 0 0 0 605.021 323.864" /><path d="M679.452 101.556 A1.125 1.125 0 0 0 678.544 102.556" /><path d="M607.791,323.464 C607.259,323.386 606.733,323.307 606.212,323.227 " /><path d="M678.544 102.556 A686.25 686.25 0 0 1 678.498 102.857" /><path d="M612.535,324.113 C610.908,323.907 609.327,323.69 607.791,323.464 " /><path d="M678.498 102.857 A1.125 1.125 0 0 0 679.07 104.081" /><path d="M613.703 321.898 A693 693 0 0 1 612.535 324.113" /><path d="M679.07,104.081 C679.535,104.328 680.004,104.58 680.477,104.835 " /><path d="M610.485,318.351 C611.54,319.49 612.613,320.672 613.703,321.898 " /><path d="M680.477,104.835 C681.842,105.574 683.239,106.347 684.665,107.157 " /><path d="M609.396,317.184 C609.757,317.568 610.119,317.957 610.485,318.351 " /><path d="M684.665 107.157 A693 693 0 0 1 684.274 109.63" /><path d="M609.248 315.841 A1.125 1.125 0 0 0 609.396 317.184" /><path d="M684.274,109.63 C682.667,109.959 681.1,110.263 679.573,110.543 " /><path d="M609.388 315.57 A686.25 686.25 0 0 1 609.248 315.841" /><path d="M679.573,110.543 C679.044,110.641 678.521,110.735 678.002,110.827 " /><path d="M610.571 314.916 A1.125 1.125 0 0 0 609.388 315.57" /><path d="M678.002 110.827 A1.125 1.125 0 0 0 677.08 111.814" /><path d="M612.152,315.133 C611.62,315.062 611.092,314.99 610.571,314.916 " /><path d="M677.08 111.814 A686.25 686.25 0 0 1 677.03 112.115" /><path d="M616.905,315.716 C615.276,315.533 613.691,315.338 612.152,315.133 " /><path d="M677.03 112.115 A1.125 1.125 0 0 0 677.585 113.346" /><path d="M618.042 313.485 A693 693 0 0 1 616.905 315.716" /><path d="M677.585,113.346 C678.047,113.6 678.512,113.858 678.981,114.12 " /><path d="M614.776,309.983 C615.846,311.108 616.936,312.275 618.042,313.485 " /><path d="M678.981,114.12 C680.337,114.877 681.722,115.67 683.138,116.498 " /><path d="M613.671,308.831 C614.037,309.21 614.405,309.594 614.776,309.983 " /><path d="M683.138 116.498 A693 693 0 0 1 682.712 118.966" /><path d="M613.505 307.49 A1.125 1.125 0 0 0 613.671 308.831" /><path d="M682.712,118.966 C681.101,119.273 679.53,119.555 677.999,119.815 " /><path d="M613.642 307.218 A686.25 686.25 0 0 1 613.505 307.49" /><path d="M677.999,119.815 C677.47,119.905 676.945,119.992 676.425,120.077 " /><path d="M614.815 306.548 A1.125 1.125 0 0 0 613.642 307.218" /><path d="M676.425 120.077 A1.125 1.125 0 0 0 675.489 121.052" /><path d="M616.399,306.742 C615.866,306.678 615.338,306.614 614.815,306.548 " /><path d="M675.489 121.052 A686.25 686.25 0 0 1 675.435 121.351" /><path d="M621.16,307.261 C619.528,307.099 617.941,306.926 616.399,306.742 " /><path d="M675.435 121.351 A1.125 1.125 0 0 0 675.974 122.591" /><path d="M622.266 305.014 A693 693 0 0 1 621.16 307.261" /><path d="M675.974,122.591 C676.432,122.851 676.894,123.115 677.359,123.383 " /><path d="M618.952,301.557 C620.038,302.667 621.143,303.819 622.266,305.014 " /><path d="M677.359,123.383 C678.704,124.159 680.079,124.97 681.483,125.818 " /><path d="M617.832,300.42 C618.203,300.794 618.577,301.173 618.952,301.557 " /><path d="M681.483 125.818 A693 693 0 0 1 681.024 128.28" /><path d="M617.648 299.082 A1.125 1.125 0 0 0 617.832 300.42" /><path d="M681.024,128.28 C679.409,128.565 677.834,128.826 676.3,129.065 " /><path d="M617.781 298.807 A686.25 686.25 0 0 1 617.648 299.082" /><path d="M676.3,129.065 C675.769,129.147 675.243,129.227 674.722,129.305 " /><path d="M618.945 298.121 A1.125 1.125 0 0 0 617.781 298.807" /><path d="M674.722 129.305 A1.125 1.125 0 0 0 673.773 130.267" /><path d="M620.532,298.294 C619.997,298.238 619.468,298.18 618.945,298.121 " /><path d="M673.773 130.267 A686.25 686.25 0 0 1 673.715 130.566" /><path d="M625.299,298.748 C623.665,298.609 622.076,298.457 620.532,298.294 " /><path d="M673.715 130.566 A1.125 1.125 0 0 0 674.236 131.812" /><path d="M626.374 296.487 A693 693 0 0 1 625.299 298.748" /><path d="M674.236,131.812 C674.691,132.078 675.149,132.349 675.611,132.624 " /><path d="M623.014,293.075 C624.114,294.17 625.235,295.307 626.374,296.487 " /><path d="M675.611,132.624 C676.945,133.418 678.309,134.248 679.701,135.115 " /><path d="M621.878,291.953 C622.254,292.322 622.633,292.696 623.014,293.075 " /><path d="M679.701 135.115 A693 693 0 0 1 679.208 137.57" /><path d="M621.676 290.618 A1.125 1.125 0 0 0 621.878 291.953" /><path d="M679.208,137.57 C677.589,137.833 676.011,138.072 674.474,138.29 " /><path d="M621.805 290.341 A686.25 686.25 0 0 1 621.676 290.618" /><path d="M674.474,138.29 C673.942,138.365 673.415,138.438 672.893,138.509 " /><path d="M622.959 289.64 A1.125 1.125 0 0 0 621.805 290.341" /><path d="M672.893 138.509 A1.125 1.125 0 0 0 671.931 139.457" /><path d="M624.548,289.791 C624.013,289.742 623.483,289.691 622.959,289.64 " /><path d="M671.931 139.457 A686.25 686.25 0 0 1 671.869 139.756" /><path d="M629.321,290.179 C627.685,290.063 626.094,289.932 624.548,289.791 " /><path d="M671.869 139.756 A1.125 1.125 0 0 0 672.373 141.009" /><path d="M630.365 287.903 A693 693 0 0 1 629.321 290.179" /><path d="M672.373,141.009 C672.824,141.281 673.278,141.558 673.736,141.839 " /><path d="M626.959,284.538 C628.074,285.618 629.21,286.739 630.365,287.903 " /><path d="M673.736,141.839 C675.059,142.652 676.412,143.5 677.792,144.386 " /><path d="M625.808,283.432 C626.189,283.796 626.572,284.165 626.959,284.538 " /><path d="M677.792 144.386 A693 693 0 0 1 677.266 146.834" /><path d="M625.587 282.099 A1.125 1.125 0 0 0 625.808 283.432" /><path d="M677.266,146.834 C675.643,147.075 674.062,147.293 672.522,147.489 " /><path d="M625.712 281.821 A686.25 686.25 0 0 1 625.587 282.099" /><path d="M672.522,147.489 C671.989,147.558 671.461,147.623 670.938,147.686 " /><path d="M626.857 281.104 A1.125 1.125 0 0 0 625.712 281.821" /><path d="M670.938 147.686 A1.125 1.125 0 0 0 669.963 148.622" /><path d="M628.448,281.233 C627.912,281.192 627.382,281.148 626.857,281.104 " /><path d="M669.963 148.622 A686.25 686.25 0 0 1 669.897 148.919" /><path d="M633.226,281.557 C631.589,281.462 629.996,281.354 628.448,281.233 " /><path d="M669.897 148.919 A1.125 1.125 0 0 0 670.384 150.18" /><path d="M634.239 279.267 A693 693 0 0 1 633.226 281.557" /><path d="M670.384,150.18 C670.831,150.458 671.282,150.741 671.736,151.028 " /><path d="M630.786,275.948 C631.917,277.013 633.068,278.119 634.239,279.267 " /><path d="M671.736,151.028 C673.048,151.859 674.389,152.725 675.756,153.63 " /><path d="M629.621,274.858 C630.007,275.216 630.395,275.58 630.786,275.948 " /><path d="M675.756 153.63 A693 693 0 0 1 675.197 156.071" /><path d="M629.382 273.528 A1.125 1.125 0 0 0 629.621 274.858" /><path d="M675.197,156.071 C673.572,156.289 671.987,156.486 670.445,156.661 " /><path d="M629.503 273.249 A686.25 686.25 0 0 1 629.382 273.528" /><path d="M670.445,156.661 C669.911,156.722 669.382,156.781 668.858,156.837 " /><path d="M630.638 272.516 A1.125 1.125 0 0 0 629.503 273.249" /><path d="M668.858 156.837 A1.125 1.125 0 0 0 667.871 157.759" /><path d="M632.231,272.623 C631.694,272.589 631.164,272.553 630.638,272.516 " /><path d="M667.871 157.759 A686.25 686.25 0 0 1 667.801 158.055" /><path d="M637.012,272.881 C635.374,272.809 633.78,272.723 632.231,272.623 " /><path d="M667.801 158.055 A1.125 1.125 0 0 0 668.271 159.322" /><path d="M637.994 270.578 A693 693 0 0 1 637.012 272.881" /><path d="M668.271,159.322 C668.714,159.607 669.161,159.896 669.611,160.189 " /><path d="M634.497,267.307 C635.641,268.356 636.808,269.446 637.994,270.578 " /><path d="M669.611,160.189 C670.911,161.037 672.24,161.922 673.595,162.846 " /><path d="M633.316,266.233 C633.707,266.586 634.101,266.944 634.497,267.307 " /><path d="M673.595 162.846 A693 693 0 0 1 673.002 165.279" /><path d="M633.059 264.906 A1.125 1.125 0 0 0 633.316 266.233" /><path d="M673.002,165.279 C671.374,165.475 669.787,165.65 668.242,165.804 " /><path d="M633.177 264.625 A686.25 686.25 0 0 1 633.059 264.906" /><path d="M668.242,165.804 C667.708,165.858 667.178,165.909 666.654,165.958 " /><path d="M634.301 263.876 A1.125 1.125 0 0 0 633.177 264.625" /><path d="M666.654 165.958 A1.125 1.125 0 0 0 665.654 166.866" /><path d="M635.895,263.962 C635.359,263.935 634.827,263.907 634.301,263.876 " /><path d="M665.654 166.866 A686.25 686.25 0 0 1 665.579 167.162" /><path d="M640.68,264.155 C639.041,264.105 637.446,264.041 635.895,263.962 " /><path d="M665.579 167.162 A1.125 1.125 0 0 0 666.032 168.435" /><path d="M641.63 261.838 A693 693 0 0 1 640.68 264.155" /><path d="M666.032,168.435 C666.471,168.726 666.914,169.021 667.36,169.32 " /><path d="M638.089,258.616 C639.247,259.649 640.429,260.723 641.63,261.838 " /><path d="M667.36,169.32 C668.649,170.186 669.965,171.089 671.308,172.031 " /><path d="M636.893,257.557 C637.289,257.905 637.687,258.258 638.089,258.616 " /><path d="M671.308 172.031 A693 693 0 0 1 670.682 174.456" /><path d="M636.618 256.235 A1.125 1.125 0 0 0 636.893 257.557" /><path d="M670.682,174.456 C669.051,174.63 667.462,174.782 665.915,174.916 " /><path d="M636.732 255.952 A686.25 686.25 0 0 1 636.618 256.235" /><path d="M665.915,174.916 C665.38,174.962 664.85,175.006 664.325,175.048 " /><path d="M637.846 255.188 A1.125 1.125 0 0 0 636.732 255.952" /><path d="M664.325 175.048 A1.125 1.125 0 0 0 663.312 175.943" /><path d="M639.441,255.252 C638.904,255.233 638.373,255.211 637.846,255.188 " /><path d="M663.312 175.943 A686.25 686.25 0 0 1 663.234 176.237" /><path d="M644.228,255.38 C642.589,255.352 640.993,255.309 639.441,255.252 " /><path d="M663.234 176.237 A1.125 1.125 0 0 0 663.669 177.516" /><path d="M645.147 253.05 A693 693 0 0 1 644.228 255.38" /><path d="M663.669,177.516 C664.105,177.813 664.543,178.114 664.985,178.42 " /><path d="M641.561,249.876 C642.734,250.893 643.93,251.951 645.147,253.05 " /><path d="M664.985,178.42 C666.262,179.303 667.566,180.224 668.896,181.184 " /><path d="M640.352,248.834 C640.752,249.177 641.155,249.524 641.561,249.876 " /><path d="M668.896 181.184 A693 693 0 0 1 668.237 183.6" /><path d="M640.059 247.515 A1.125 1.125 0 0 0 640.352 248.834" /><path d="M668.237,183.6 C666.604,183.752 665.013,183.883 663.464,183.995 " /><path d="M640.169 247.231 A686.25 686.25 0 0 1 640.059 247.515" /><path d="M663.464,183.995 C662.928,184.034 662.397,184.071 661.872,184.105 " /><path d="M641.272 246.452 A1.125 1.125 0 0 0 640.169 247.231" /><path d="M661.872 184.105 A1.125 1.125 0 0 0 660.847 184.986" /><path d="M642.868,246.495 C642.331,246.482 641.799,246.468 641.272,246.452 " /><path d="M660.847 184.986 A686.25 686.25 0 0 1 660.765 185.28" /><path d="M647.656,246.557 C646.016,246.552 644.42,246.53 642.868,246.495 " /><path d="M660.765 185.28 A1.125 1.125 0 0 0 661.183 186.565" /><path d="M648.543 244.215 A693 693 0 0 1 647.656 246.557" /><path d="M661.183,186.565 C661.614,186.867 662.049,187.174 662.486,187.486 " /><path d="M644.915,241.09 C646.101,242.091 647.311,243.132 648.543,244.215 " /><path d="M662.486,187.486 C663.751,188.387 665.042,189.325 666.358,190.303 " /><path d="M643.691,240.065 C644.096,240.402 644.504,240.743 644.915,241.09 " /><path d="M666.358 190.303 A693 693 0 0 1 665.666 192.71" /><path d="M643.38 238.75 A1.125 1.125 0 0 0 643.691 240.065" /><path d="M665.666,192.71 C664.032,192.839 662.439,192.949 660.889,193.04 " /><path d="M643.486 238.464 A686.25 686.25 0 0 1 643.38 238.75" /><path d="M660.889,193.04 C660.353,193.072 659.821,193.101 659.295,193.129 " /><path d="M644.579 237.67 A1.125 1.125 0 0 0 643.486 238.464" /><path d="M659.295 193.129 A1.125 1.125 0 0 0 658.259 193.995" /><path d="M646.175,237.691 C645.638,237.686 645.106,237.679 644.579,237.67 " /><path d="M658.259 193.995 A686.25 686.25 0 0 1 658.173 194.288" /><path d="M650.964,237.687 C649.324,237.705 647.727,237.705 646.175,237.691 " /><path d="M658.173 194.288 A1.125 1.125 0 0 0 658.573 195.578" /><path d="M651.818 235.334 A693 693 0 0 1 650.964 237.687" /><path d="M658.573,195.578 C659,195.887 659.43,196.2 659.864,196.517 " /><path d="M648.147,232.259 C649.348,233.243 650.572,234.268 651.818,235.334 " /><path d="M659.864,196.517 C661.116,197.435 662.394,198.391 663.697,199.387 " /><path d="M646.91,231.25 C647.319,231.582 647.732,231.918 648.147,232.259 " /><path d="M663.697 199.387 A693 693 0 0 1 662.972 201.784" /><path d="M646.581 229.94 A1.125 1.125 0 0 0 646.91 231.25" /><path d="M662.972,201.784 C661.336,201.891 659.742,201.979 658.191,202.049 " /><path d="M646.683 229.653 A686.25 686.25 0 0 1 646.581 229.94" /><path d="M658.191,202.049 C657.654,202.073 657.122,202.095 656.596,202.116 " /><path d="M647.765 228.844 A1.125 1.125 0 0 0 646.683 229.653" /><path d="M656.596 202.116 A1.125 1.125 0 0 0 655.548 202.968" /><path d="M649.361,228.843 C648.824,228.845 648.292,228.845 647.765,228.844 " /><path d="M655.548 202.968 A686.25 686.25 0 0 1 655.458 203.259" /><path d="M654.149,228.774 C652.51,228.814 650.914,228.836 649.361,228.843 " /><path d="M655.458 203.259 A1.125 1.125 0 0 0 655.84 204.555" /><path d="M654.972 226.409 A693 693 0 0 1 654.149 228.774" /><path d="M655.84,204.555 C656.263,204.869 656.689,205.188 657.118,205.512 " /><path d="M651.259,223.384 C652.473,224.352 653.711,225.36 654.972,226.409 " /><path d="M657.118,205.512 C658.357,206.447 659.623,207.42 660.912,208.434 " /><path d="M650.008,222.393 C650.422,222.719 650.839,223.049 651.259,223.384 " /><path d="M660.912 208.434 A693 693 0 0 1 660.154 210.821" /><path d="M649.661 221.087 A1.125 1.125 0 0 0 650.008 222.393" /><path d="M660.154,210.821 C658.516,210.905 656.922,210.971 655.37,211.02 " /><path d="M649.759 220.799 A686.25 686.25 0 0 1 649.661 221.087" /><path d="M655.37,211.02 C654.833,211.037 654.301,211.052 653.774,211.065 " /><path d="M650.83 219.975 A1.125 1.125 0 0 0 649.759 220.799" /><path d="M653.774 211.065 A1.125 1.125 0 0 0 652.714 211.903" /><path d="M652.426,219.952 C651.889,219.962 651.357,219.969 650.83,219.975 " /><path d="M652.714 211.903 A686.25 686.25 0 0 1 652.62 212.193" /><path d="M657.213,219.818 C655.574,219.88 653.979,219.924 652.426,219.952 " /><path d="M652.62 212.193 A1.125 1.125 0 0 0 652.985 213.494" /><path d="M658.003 217.442 A693 693 0 0 1 657.213 219.818" /><path d="M652.985,213.494 C653.403,213.814 653.825,214.139 654.25,214.468 " /><path d="M654.25,214.468 C655.476,215.42 656.728,216.41 658.003,217.442 " /><circle cx ="638.027" cy ="50.2138" r ="2.5" /><circle cx ="622.317" cy ="149.405" r ="2.5" /><circle cx ="545.69" cy ="334.399" r ="2.5" /><circle cx ="591.283" cy ="244.917" r ="2.5" /></g>
</g>



<g id="View023"
   transform="rotate(36,800,240) translate(800,240) scale(1,1)"
  >
<g   fill="none"
   stroke="rgb(0, 0, 0)"
   stroke-linecap="butt"
   stroke-linejoin="miter"
   stroke-width="0.350000"
   transform="scale(1,-1)"
  >
<path id= "1" d=" M 405.572 558.222 L 364.427 501.591 " />
<path d="M656.229 213.222 A690 690 0 0 1 405.572 558.222" /><path d="M589.655 191.591 A620 620 0 0 1 364.427 501.591" /><path id= "4" d=" M 589.655 191.591 L 656.229 213.222 " />
<circle cx ="591.283" cy ="244.917" r ="3" /><circle cx ="545.69" cy ="334.399" r ="3" /><circle cx ="415.647" cy ="486.66" r ="3" /><circle cx ="486.66" cy ="415.647" r ="3" /></g>
</g>



</svg>

