<?xml version="1.0" encoding="UTF-8"?>

<svg xmlns="http://www.w3.org/2000/svg" version="1.1"
	width="1600mm"
	height="1600mm"
	viewBox="0 0 1600 1600">
	<!-- Working space 0 0 1600 1600 -->
	<defs>
		<radialGradient
			id="radialGradient3661"
			gradientUnits="userSpaceOnUse"
			cy="29.149"
			cx="282.65"
			gradientTransform="matrix(.14777 .23089 -.24680 .15795 -26.318 -62.617)"
			r="19.571">
				<stop stop-color="#71b2f8" offset="0"/>
				<stop stop-color="#002795" offset="1"/>
		</radialGradient>
		<radialGradient
			id="radialGradient3817"
			gradientUnits="userSpaceOnUse"
			cy="33.9"
			cx="270.58"
			gradientTransform="matrix(.26631 .065024 -.17931 .73438 -60.668 -36.938)"
			r="19.571">
				<stop stop-color="#ff6d0f" offset="0"/>
				<stop stop-color="#ff1000" offset="1"/>
		</radialGradient>
	</defs>
	<!-- Set display:none to hide FreeCAD Logo -->
	<g
		style="display:none"
		id="freecad-logo"
		transform="translate(552, 380) scale(2)"
		fill-rule="evenodd"
		stroke-width=".45621">
		<path d="m0.22811 0.22835v13.256h2.9558v-5.1876h2.09v-2.0452h-2.09v-2.2075h5.1486v-3.8087l-8.1044-0.0075z"
			stroke="#370700"
			fill="url(#radialGradient3817)"/>
		<path d="m13.386 4.1792-1.7193 0.98645-0.75925-0.26348-0.72439-1.8513-1.1395 0.05988-0.51976 1.9144-0.72743 0.34835-1.8143-0.79367-0.76632 0.85156 0.98645 1.7193-0.26957 0.75702-1.8513 0.72439 0.065967 1.1417 1.9144 0.51976 0.34835 0.72743-0.79976 1.8121 0.85156 0.76632 1.7193-0.98645 0.76311 0.27179 0.7183 1.8491 1.1478-0.06375 0.51367-1.9166 0.72743-0.34835 1.8182 0.80198 0.76632-0.85156-0.98645-1.7193 0.2657-0.76533 1.8491-0.7183-0.05766-1.1456-1.9166-0.51367-0.34835-0.72743 0.7959-1.8204-0.85156-0.76632zm-2.5751 2.8195 0.35295 0.20478 0.30579 0.27725 0.24481 0.33087 0.17611 0.36787 0.10354 0.39656 0.01715 0.4064-0.0587 0.4063-0.13396 0.38571-0.2131 0.35681-0.26894 0.30192-0.33087 0.24481-0.36787 0.17611-0.39656 0.10354-0.40863 0.02325-0.4063-0.0587-0.38571-0.13396-0.35681-0.2131-0.2997-0.27503-0.24703-0.32478-0.17611-0.36787-0.10132-0.40264-0.02324-0.40863 0.05869-0.4063 0.13396-0.38571 0.21087-0.35072 0.27116-0.30801 0.33087-0.24481 0.36787-0.17611 0.40264-0.10132 0.40641-0.01715 0.4063 0.05869 0.38571 0.13396z" 
		stroke="#000137"
		fill="url(#radialGradient3661)"/>
	</g>
<g id="View017"
   transform="rotate(0,800,800) translate(800,800) scale(1,1)"
  >
<g   fill="none"
   stroke="rgb(0, 0, 0)"
   stroke-linecap="butt"
   stroke-linejoin="miter"
   stroke-width="0.350000"
   transform="scale(1,-1)"
  >
<circle cx ="0" cy ="0" r ="640" /><circle cx ="68" cy ="0" r ="3" /><path id= "3" d=" M 180 -5 L 180 5 " />
<path id= "4" d=" M 204 -5 L 180 -5 " />
<path id= "5" d=" M 180 5 L 204 5 " />
<path id= "6" d=" M 204 5 L 204 -5 " />
<path id= "7" d=" M 468 -5 L 468 5 " />
<path id= "8" d=" M 492 -5 L 468 -5 " />
<path id= "9" d=" M 468 5 L 492 5 " />
<path id= "10" d=" M 492 5 L 492 -5 " />
<circle cx ="432" cy ="0" r ="3" /><path id= "12" d=" M 372 -5 L 372 5 " />
<path id= "13" d=" M 396 -5 L 372 -5 " />
<path id= "14" d=" M 372 5 L 396 5 " />
<path id= "15" d=" M 396 5 L 396 -5 " />
<path id= "16" d=" M 276 -5 L 276 5 " />
<path id= "17" d=" M 300 -5 L 276 -5 " />
<path id= "18" d=" M 276 5 L 300 5 " />
<path id= "19" d=" M 300 5 L 300 -5 " />
<circle cx ="336" cy ="0" r ="3" /><path id= "21" d=" M 148.562 101.756 L 142.684 109.846 " />
<path id= "22" d=" M 167.978 115.863 L 148.562 101.756 " />
<path id= "23" d=" M 142.684 109.846 L 162.101 123.953 " />
<path id= "24" d=" M 162.101 123.953 L 167.978 115.863 " />
<path id= "25" d=" M 226.228 158.184 L 220.35 166.274 " />
<path id= "26" d=" M 245.644 172.29 L 226.228 158.184 " />
<path id= "27" d=" M 220.35 166.274 L 239.766 180.381 " />
<path id= "28" d=" M 239.766 180.381 L 245.644 172.29 " />
<circle cx ="271.83" cy ="197.496" r ="3" /><circle cx ="-271.83" cy ="197.496" r ="3" /><path id= "31" d=" M -220.35 166.274 L -226.228 158.184 " />
<path id= "32" d=" M -239.766 180.381 L -220.35 166.274 " />
<path id= "33" d=" M -226.228 158.184 L -245.644 172.29 " />
<path id= "34" d=" M -245.644 172.29 L -239.766 180.381 " />
<path id= "35" d=" M -142.684 109.846 L -148.562 101.756 " />
<path id= "36" d=" M -162.101 123.953 L -142.684 109.846 " />
<path id= "37" d=" M -148.562 101.756 L -167.978 115.863 " />
<path id= "38" d=" M -167.978 115.863 L -162.101 123.953 " />
<path id= "39" d=" M -50.8678 172.735 L -60.3783 169.645 " />
<path id= "40" d=" M -58.2842 195.561 L -50.8678 172.735 " />
<path id= "41" d=" M -60.3783 169.645 L -67.7947 192.47 " />
<path id= "42" d=" M -67.7947 192.47 L -58.2842 195.561 " />
<circle cx ="-68" cy ="8.33e-15" r ="3" /><path id= "44" d=" M -180 5 L -180 -5 " />
<path id= "45" d=" M -204 5 L -180 5 " />
<path id= "46" d=" M -180 -5 L -204 -5 " />
<path id= "47" d=" M -204 -5 L -204 5 " />
<circle cx ="-21.0132" cy ="64.6718" r ="3" /><circle cx ="-55.0132" cy ="39.9694" r ="3" /><circle cx ="21.0132" cy ="64.6718" r ="3" /><path d="M36 0 A36 36 0 0 1 29.1246 21.1603" /><path d="M29.1246 -21.1603 A36 36 0 0 1 36 -8.81746e-15" /><path d="M29.1246 21.1603 A36 36 0 0 1 11.1246 34.238" /><path d="M11.1246 -34.238 A36 36 0 0 1 29.1246 -21.1603" /><path d="M11.1246 34.238 A36 36 0 0 1 -11.1246 34.238" /><path d="M-11.1246 -34.238 A36 36 0 0 1 11.1246 -34.238" /><path d="M-11.1246 34.238 A36 36 0 0 1 -29.1246 21.1603" /><path d="M-29.1246 -21.1603 A36 36 0 0 1 -11.1246 -34.238" /><path d="M-29.1246 21.1603 A36 36 0 0 1 -36 -2.75657e-14" /><path d="M-36 -2.75657e-14 A36 36 0 0 1 -29.1246 -21.1603" /><circle cx ="55.0132" cy ="39.9694" r ="3" /><path id= "62" d=" M 60.3783 169.645 L 50.8678 172.735 " />
<path id= "63" d=" M 67.7947 192.47 L 60.3783 169.645 " />
<path id= "64" d=" M 50.8678 172.735 L 58.2842 195.561 " />
<path id= "65" d=" M 58.2842 195.561 L 67.7947 192.47 " />
<circle cx ="349.495" cy ="-253.923" r ="3" /><path id= "67" d=" M 330.594 -131.416 L 475.786 -236.905 " />
<path d="M344.701 -88 A24 24 0 0 1 330.594 -131.416" /><path d="M475.786 -236.905 A24 24 0 0 1 511.828 -227.227" /><path id= "70" d=" M 524.168 -88 L 344.701 -88 " />
<path d="M511.828 -227.227 A560 560 0 0 1 547.638 -117.015" /><path d="M547.638 -117.015 A24 24 0 0 1 524.168 -88" /><path id= "73" d=" M 298.015 -222.701 L 303.893 -214.611 " />
<path id= "74" d=" M 317.432 -236.808 L 298.015 -222.701 " />
<path id= "75" d=" M 323.31 -228.718 L 317.432 -236.808 " />
<path id= "76" d=" M 303.893 -214.611 L 323.31 -228.718 " />
<path id= "77" d=" M 220.35 -166.274 L 226.228 -158.184 " />
<path id= "78" d=" M 239.766 -180.381 L 220.35 -166.274 " />
<path id= "79" d=" M 245.644 -172.29 L 239.766 -180.381 " />
<path id= "80" d=" M 226.228 -158.184 L 245.644 -172.29 " />
<circle cx ="271.83" cy ="-197.496" r ="3" /><path id= "82" d=" M 142.684 -109.846 L 148.562 -101.756 " />
<path id= "83" d=" M 162.101 -123.953 L 142.684 -109.846 " />
<path id= "84" d=" M 167.978 -115.863 L 162.101 -123.953 " />
<path id= "85" d=" M 148.562 -101.756 L 167.978 -115.863 " />
<circle cx ="-271.83" cy ="-197.496" r ="3" /><path id= "87" d=" M -226.228 -158.184 L -220.35 -166.274 " />
<path id= "88" d=" M -245.644 -172.29 L -226.228 -158.184 " />
<path id= "89" d=" M -220.35 -166.274 L -239.766 -180.381 " />
<path id= "90" d=" M -239.766 -180.381 L -245.644 -172.29 " />
<path id= "91" d=" M -60.3783 -169.645 L -50.8678 -172.735 " />
<path id= "92" d=" M -67.7947 -192.47 L -60.3783 -169.645 " />
<path id= "93" d=" M -50.8678 -172.735 L -58.2842 -195.561 " />
<path id= "94" d=" M -58.2842 -195.561 L -67.7947 -192.47 " />
<path id= "95" d=" M -148.562 -101.756 L -142.684 -109.846 " />
<path id= "96" d=" M -167.978 -115.863 L -148.562 -101.756 " />
<path id= "97" d=" M -142.684 -109.846 L -162.101 -123.953 " />
<path id= "98" d=" M -162.101 -123.953 L -167.978 -115.863 " />
<path id= "99" d=" M 50.8678 -172.735 L 60.3783 -169.645 " />
<path id= "100" d=" M 58.2842 -195.561 L 50.8678 -172.735 " />
<path id= "101" d=" M 60.3783 -169.645 L 67.7947 -192.47 " />
<path id= "102" d=" M 67.7947 -192.47 L 58.2842 -195.561 " />
<circle cx ="55.0132" cy ="-39.9694" r ="3" /><circle cx ="-21.0132" cy ="-64.6718" r ="3" /><circle cx ="21.0132" cy ="-64.6718" r ="3" /><circle cx ="-55.0132" cy ="-39.9694" r ="3" /><path id= "107" d=" M 303.893 214.611 L 298.015 222.701 " />
<path id= "108" d=" M 323.31 228.718 L 303.893 214.611 " />
<path id= "109" d=" M 298.015 222.701 L 317.432 236.808 " />
<path id= "110" d=" M 317.432 236.808 L 323.31 228.718 " />
<path id= "111" d=" M 344.701 88 L 524.168 88 " />
<path d="M330.594 131.416 A24 24 0 0 1 344.701 88" /><path d="M524.168 88 A24 24 0 0 1 547.638 117.015" /><path id= "114" d=" M 475.786 236.905 L 330.594 131.416 " />
<path d="M547.638 117.015 A560 560 0 0 1 511.828 227.227" /><path d="M511.828 227.227 A24 24 0 0 1 475.786 236.905" /><path id= "117" d=" M -330.594 131.416 L -475.786 236.905 " />
<path d="M-344.701 88 A24 24 0 0 1 -330.594 131.416" /><path d="M-475.786 236.905 A24 24 0 0 1 -511.828 227.227" /><path id= "120" d=" M -524.168 88 L -344.701 88 " />
<path d="M-511.828 227.227 A560 560 0 0 1 -547.638 117.015" /><path d="M-547.638 117.015 A24 24 0 0 1 -524.168 88" /><path id= "123" d=" M -298.015 222.701 L -303.893 214.611 " />
<path id= "124" d=" M -317.432 236.808 L -298.015 222.701 " />
<path id= "125" d=" M -303.893 214.611 L -323.31 228.718 " />
<path id= "126" d=" M -323.31 228.718 L -317.432 236.808 " />
<path id= "127" d=" M -468 5 L -468 -5 " />
<path id= "128" d=" M -492 5 L -468 5 " />
<path id= "129" d=" M -468 -5 L -492 -5 " />
<path id= "130" d=" M -492 -5 L -492 5 " />
<path id= "131" d=" M -372 5 L -372 -5 " />
<path id= "132" d=" M -396 5 L -372 5 " />
<path id= "133" d=" M -372 -5 L -396 -5 " />
<path id= "134" d=" M -396 -5 L -396 5 " />
<circle cx ="-432" cy ="5.29e-14" r ="3" /><circle cx ="-336" cy ="4.115e-14" r ="3" /><path id= "137" d=" M -276 5 L -276 -5 " />
<path id= "138" d=" M -300 5 L -276 5 " />
<path id= "139" d=" M -276 -5 L -300 -5 " />
<path id= "140" d=" M -300 -5 L -300 5 " />
<path id= "141" d=" M -344.701 -88 L -524.168 -88 " />
<path d="M-330.594 -131.416 A24 24 0 0 1 -344.701 -88" /><path d="M-524.168 -88 A24 24 0 0 1 -547.638 -117.015" /><path id= "144" d=" M -475.786 -236.905 L -330.594 -131.416 " />
<path d="M-547.638 -117.015 A560 560 0 0 1 -511.828 -227.227" /><path d="M-511.828 -227.227 A24 24 0 0 1 -475.786 -236.905" /><path id= "147" d=" M -303.893 -214.611 L -298.015 -222.701 " />
<path id= "148" d=" M -323.31 -228.718 L -303.893 -214.611 " />
<path id= "149" d=" M -298.015 -222.701 L -317.432 -236.808 " />
<path id= "150" d=" M -317.432 -236.808 L -323.31 -228.718 " />
<circle cx ="-349.495" cy ="-253.923" r ="3" /><circle cx ="-528.637" cy ="-323.949" r ="3" /><path id= "153" d=" M -381.559 -271.038 L -375.681 -279.129 " />
<path id= "154" d=" M -400.975 -285.145 L -381.559 -271.038 " />
<path id= "155" d=" M -375.681 -279.129 L -395.097 -293.235 " />
<path id= "156" d=" M -395.097 -293.235 L -400.975 -285.145 " />
<circle cx ="-402.658" cy ="-471.452" r ="3" /><circle cx ="-471.452" cy ="-402.658" r ="3" /><circle cx ="-103.83" cy ="-319.555" r ="3" /><path id= "160" d=" M -149.375 -443.549 L -139.865 -446.64 " />
<path id= "161" d=" M -156.792 -466.375 L -149.375 -443.549 " />
<path id= "162" d=" M -139.865 -446.64 L -147.281 -469.465 " />
<path id= "163" d=" M -147.281 -469.465 L -156.792 -466.375 " />
<path id= "164" d=" M -90.044 -260.947 L -80.5334 -264.037 " />
<path id= "165" d=" M -97.4604 -283.772 L -90.044 -260.947 " />
<path id= "166" d=" M -80.5334 -264.037 L -87.9498 -286.862 " />
<path id= "167" d=" M -87.9498 -286.862 L -97.4604 -283.772 " />
<path id= "168" d=" M 190.211 -300.636 L 245.67 -471.32 " />
<path d="M227.144 -273.803 A24 24 0 0 1 190.211 -300.636" /><path d="M245.67 -471.32 A24 24 0 0 1 280.517 -484.675" /><path id= "171" d=" M 372.336 -379.292 L 227.144 -273.803 " />
<path d="M280.517 -484.675 A560 560 0 0 1 374.269 -416.561" /><path d="M374.269 -416.561 A24 24 0 0 1 372.336 -379.292" /><path id= "174" d=" M 375.681 -279.129 L 381.559 -271.038 " />
<path id= "175" d=" M 395.097 -293.235 L 375.681 -279.129 " />
<path id= "176" d=" M 400.975 -285.145 L 395.097 -293.235 " />
<path id= "177" d=" M 381.559 -271.038 L 400.975 -285.145 " />
<circle cx ="402.658" cy ="-471.452" r ="3" /><path id= "179" d=" M 80.5334 -264.037 L 90.044 -260.947 " />
<path id= "180" d=" M 87.9498 -286.862 L 80.5334 -264.037 " />
<path id= "181" d=" M 90.044 -260.947 L 97.4604 -283.772 " />
<path id= "182" d=" M 97.4604 -283.772 L 87.9498 -286.862 " />
<circle cx ="103.83" cy ="-319.555" r ="3" /><circle cx ="528.637" cy ="-323.949" r ="3" /><circle cx ="471.452" cy ="-402.658" r ="3" /><path id= "186" d=" M 381.559 271.038 L 375.681 279.129 " />
<path id= "187" d=" M 400.975 285.145 L 381.559 271.038 " />
<path id= "188" d=" M 375.681 279.129 L 395.097 293.235 " />
<path id= "189" d=" M 395.097 293.235 L 400.975 285.145 " />
<circle cx ="402.658" cy ="471.452" r ="3" /><path id= "191" d=" M 227.144 273.803 L 372.336 379.292 " />
<path d="M372.336 379.292 A24 24 0 0 1 374.269 416.561" /><path d="M374.269 416.561 A560 560 0 0 1 280.517 484.675" /><path d="M280.517 484.675 A24 24 0 0 1 245.67 471.32" /><path id= "195" d=" M 245.67 471.32 L 190.211 300.636 " />
<path d="M190.211 300.636 A24 24 0 0 1 227.144 273.803" /><circle cx ="133.495" cy ="410.856" r ="3" /><path id= "198" d=" M 149.375 443.549 L 139.865 446.64 " />
<path id= "199" d=" M 156.792 466.375 L 149.375 443.549 " />
<path id= "200" d=" M 139.865 446.64 L 147.281 469.465 " />
<path id= "201" d=" M 147.281 469.465 L 156.792 466.375 " />
<circle cx ="323.949" cy ="528.637" r ="3" /><circle cx ="103.83" cy ="319.555" r ="3" /><path id= "204" d=" M 119.71 352.248 L 110.199 355.338 " />
<path id= "205" d=" M 127.126 375.073 L 119.71 352.248 " />
<path id= "206" d=" M 110.199 355.338 L 117.615 378.163 " />
<path id= "207" d=" M 117.615 378.163 L 127.126 375.073 " />
<path id= "208" d=" M 90.044 260.947 L 80.5334 264.037 " />
<path id= "209" d=" M 97.4604 283.772 L 90.044 260.947 " />
<path id= "210" d=" M 80.5334 264.037 L 87.9498 286.862 " />
<path id= "211" d=" M 87.9498 286.862 L 97.4604 283.772 " />
<path id= "212" d=" M -190.211 300.636 L -245.67 471.32 " />
<path d="M-227.144 273.803 A24 24 0 0 1 -190.211 300.636" /><path d="M-245.67 471.32 A24 24 0 0 1 -280.517 484.675" /><path id= "215" d=" M -372.336 379.292 L -227.144 273.803 " />
<path d="M-280.517 484.675 A560 560 0 0 1 -374.269 416.561" /><path d="M-374.269 416.561 A24 24 0 0 1 -372.336 379.292" /><path id= "218" d=" M -375.681 279.129 L -381.559 271.038 " />
<path id= "219" d=" M -395.097 293.235 L -375.681 279.129 " />
<path id= "220" d=" M -381.559 271.038 L -400.975 285.145 " />
<path id= "221" d=" M -400.975 285.145 L -395.097 293.235 " />
<circle cx ="-402.658" cy ="471.452" r ="3" /><circle cx ="-323.949" cy ="528.637" r ="3" /><path id= "224" d=" M -139.865 446.64 L -149.375 443.549 " />
<path id= "225" d=" M -147.281 469.465 L -139.865 446.64 " />
<path id= "226" d=" M -149.375 443.549 L -156.792 466.375 " />
<path id= "227" d=" M -156.792 466.375 L -147.281 469.465 " />
<path id= "228" d=" M 22.8254 355.023 L 78.2838 525.707 " />
<path d="M-22.8254 355.023 A24 24 0 0 1 22.8254 355.023" /><path d="M78.2838 525.707 A24 24 0 0 1 57.9417 556.994" /><path id= "231" d=" M -78.2838 525.707 L -22.8254 355.023 " />
<path d="M57.9417 556.994 A560 560 0 0 1 -57.9417 556.994" /><path d="M-57.9417 556.994 A24 24 0 0 1 -78.2838 525.707" /><path id= "234" d=" M -110.199 355.338 L -119.71 352.248 " />
<path id= "235" d=" M -117.615 378.163 L -110.199 355.338 " />
<path id= "236" d=" M -119.71 352.248 L -127.126 375.073 " />
<path id= "237" d=" M -127.126 375.073 L -117.615 378.163 " />
<circle cx ="-133.495" cy ="410.856" r ="3" /><path id= "239" d=" M -80.5334 264.037 L -90.044 260.947 " />
<path id= "240" d=" M -87.9498 286.862 L -80.5334 264.037 " />
<path id= "241" d=" M -90.044 260.947 L -97.4604 283.772 " />
<path id= "242" d=" M -97.4604 283.772 L -87.9498 286.862 " />
<circle cx ="-349.495" cy ="253.923" r ="3" /><circle cx ="349.495" cy ="253.923" r ="3" /><circle cx ="-528.637" cy ="323.949" r ="3" /><circle cx ="471.452" cy ="402.658" r ="3" /><circle cx ="528.637" cy ="323.949" r ="3" /><circle cx ="-572.805" cy ="237.264" r ="3" /><circle cx ="-572.805" cy ="-237.264" r ="3" /><path id= "250" d=" M 139.865 -446.64 L 149.375 -443.549 " />
<path id= "251" d=" M 147.281 -469.465 L 139.865 -446.64 " />
<path id= "252" d=" M 149.375 -443.549 L 156.792 -466.375 " />
<path id= "253" d=" M 156.792 -466.375 L 147.281 -469.465 " />
<path id= "254" d=" M 110.199 -355.338 L 119.71 -352.248 " />
<path id= "255" d=" M 117.615 -378.163 L 110.199 -355.338 " />
<path id= "256" d=" M 119.71 -352.248 L 127.126 -375.073 " />
<path id= "257" d=" M 127.126 -375.073 L 117.615 -378.163 " />
<circle cx ="133.495" cy ="-410.856" r ="3" /><path id= "259" d=" M -119.71 -352.248 L -110.199 -355.338 " />
<path id= "260" d=" M -127.126 -375.073 L -119.71 -352.248 " />
<path id= "261" d=" M -110.199 -355.338 L -117.615 -378.163 " />
<path id= "262" d=" M -117.615 -378.163 L -127.126 -375.073 " />
<circle cx ="-144.736" cy ="-602.869" r ="3" /><circle cx ="237.264" cy ="-572.805" r ="3" /><circle cx ="144.736" cy ="-602.869" r ="3" /><circle cx ="-323.949" cy ="-528.637" r ="3" /><path id= "267" d=" M -227.144 -273.803 L -372.336 -379.292 " />
<path d="M-190.211 -300.636 A24 24 0 0 1 -227.144 -273.803" /><path d="M-372.336 -379.292 A24 24 0 0 1 -374.269 -416.561" /><path id= "270" d=" M -245.67 -471.32 L -190.211 -300.636 " />
<path d="M-374.269 -416.561 A560 560 0 0 1 -280.517 -484.675" /><path d="M-280.517 -484.675 A24 24 0 0 1 -245.67 -471.32" /><circle cx ="-133.495" cy ="-410.856" r ="3" /><path id= "274" d=" M -22.8254 -355.023 L -78.2838 -525.707 " />
<path d="M22.8254 -355.023 A24 24 0 0 1 -22.8254 -355.023" /><path d="M-78.2838 -525.707 A24 24 0 0 1 -57.9417 -556.994" /><path id= "277" d=" M 78.2838 -525.707 L 22.8254 -355.023 " />
<path d="M-57.9417 -556.994 A560 560 0 0 1 57.9417 -556.994" /><path d="M57.9417 -556.994 A24 24 0 0 1 78.2838 -525.707" /><circle cx ="-237.264" cy ="-572.805" r ="3" /><circle cx ="323.949" cy ="-528.637" r ="3" /><circle cx ="-618.089" cy ="48.6446" r ="3" /><circle cx ="-618.089" cy ="-48.6446" r ="3" /><circle cx ="-602.869" cy ="144.736" r ="3" /><circle cx ="-602.869" cy ="-144.736" r ="3" /><circle cx ="-103.83" cy ="319.555" r ="3" /><circle cx ="-471.452" cy ="402.658" r ="3" /><circle cx ="-237.264" cy ="572.805" r ="3" /><circle cx ="237.264" cy ="572.805" r ="3" /><circle cx ="-48.6446" cy ="-618.089" r ="3" /><circle cx ="48.6446" cy ="-618.089" r ="3" /><circle cx ="602.869" cy ="144.736" r ="3" /><circle cx ="572.805" cy ="237.264" r ="3" /><circle cx ="602.869" cy ="-144.736" r ="3" /><circle cx ="572.805" cy ="-237.264" r ="3" /><circle cx ="-48.6446" cy ="618.089" r ="3" /><circle cx ="48.6446" cy ="618.089" r ="3" /><circle cx ="144.736" cy ="602.869" r ="3" /><circle cx ="-144.736" cy ="602.869" r ="3" /><circle cx ="618.089" cy ="48.6446" r ="3" /><circle cx ="618.089" cy ="-48.6446" r ="3" /></g>
</g>



<g id="View018"
   transform="rotate(90,80,1460) translate(80,1460) scale(1,1)"
  >
<g   fill="none"
   stroke="rgb(0, 0, 0)"
   stroke-linecap="butt"
   stroke-linejoin="miter"
   stroke-width="0.350000"
   transform="scale(1,-1)"
  >
<path id= "1" d=" M 20 511.34 L 45 80 " />
<path id= "2" d=" M 20 511.34 L 5 520 " />
<path id= "3" d=" M 45 80 L 35 80 " />
<path id= "4" d=" M 5 492 L 5 520 " />
<path id= "5" d=" M -5 492 L 5 492 " />
<path id= "6" d=" M -5 468 L -5 492 " />
<path id= "7" d=" M 5 468 L -5 468 " />
<path id= "8" d=" M 5 300 L 5 468 " />
<path id= "9" d=" M -5 300 L 5 300 " />
<path id= "10" d=" M -5 276 L -5 300 " />
<path id= "11" d=" M 5 276 L -5 276 " />
<path id= "12" d=" M 5 108 L 5 276 " />
<path id= "13" d=" M 5 108 L 5 84 " />
<path id= "14" d=" M 5 56 L 5 84 " />
<path id= "15" d=" M 35 56 L 5 56 " />
<path id= "16" d=" M 35 80 L 35 56 " />
</g>
</g>



<g id="View019"
   transform="rotate(90,80,1440) translate(80,1440) scale(1,1)"
  >
<g   fill="none"
   stroke="rgb(0, 0, 0)"
   stroke-linecap="butt"
   stroke-linejoin="miter"
   stroke-width="0.350000"
   transform="scale(1,-1)"
  >
<path id= "1" d=" M -5 420 L -20 411.34 " />
<path id= "2" d=" M -5 420 L -5 396 " />
<path id= "3" d=" M -20 411.34 L -45 80 " />
<path id= "4" d=" M -5 396 L 5 396 " />
<path id= "5" d=" M 5 372 L 5 396 " />
<path id= "6" d=" M 5 372 L -5 372 " />
<path id= "7" d=" M -5 372 L -5 204 " />
<path id= "8" d=" M -5 204 L 5 204 " />
<path id= "9" d=" M 5 180 L 5 204 " />
<path id= "10" d=" M 5 180 L -5 180 " />
<path id= "11" d=" M -5 180 L -5 56 " />
<path id= "12" d=" M -35 56 L -5 56 " />
<path id= "13" d=" M -35 80 L -35 56 " />
<path id= "14" d=" M -45 80 L -35 80 " />
</g>
</g>



<g id="View020"
   transform="rotate(0,200,1280) translate(200,1280) scale(1,1)"
  >
<g   fill="none"
   stroke="rgb(0, 0, 0)"
   stroke-linecap="butt"
   stroke-linejoin="miter"
   stroke-width="0.350000"
   transform="scale(1,-1)"
  >
<circle cx ="0" cy ="0" r ="80" /><circle cx ="-55.0132" cy ="39.9694" r ="3" /><circle cx ="-55.0132" cy ="-39.9694" r ="3" /><circle cx ="21.0132" cy ="-64.6718" r ="3" /><circle cx ="0" cy ="0" r ="17.5" /><circle cx ="-21.0132" cy ="-64.6718" r ="3" /><circle cx ="55.0132" cy ="39.9694" r ="3" /><circle cx ="55.0132" cy ="-39.9694" r ="3" /><circle cx ="21.0132" cy ="64.6718" r ="3" /><circle cx ="-21.0132" cy ="64.6718" r ="3" /><circle cx ="-68" cy ="0" r ="3" /><circle cx ="68" cy ="0" r ="3" /></g>
</g>



<g id="View021"
   transform="rotate(0,200,200) translate(200,200) scale(1,1)"
  >
<g   fill="none"
   stroke="rgb(0, 0, 0)"
   stroke-linecap="butt"
   stroke-linejoin="miter"
   stroke-width="0.350000"
   transform="scale(1,-1)"
  >
<path d="M79.8436 5 A80 80 0 0 1 67.5338 42.8858" /><path id= "2" d=" M 67.5338 42.8858 L 48.2439 28.8709 " />
<path id= "3" d=" M 22.0602 51.7141 L 12.5497 54.8042 " />
<path id= "4" d=" M 29.4283 74.3907 L 22.0602 51.7141 " />
<path d="M61.6559 50.976 A80 80 0 0 1 29.4283 74.3907" /><path id= "6" d=" M 42.366 36.9611 L 61.6559 50.976 " />
<path id= "7" d=" M 48.2439 28.8709 L 42.366 36.9611 " />
<path id= "8" d=" M 56 5 L 79.8436 5 " />
<path id= "9" d=" M 56 -5 L 56 5 " />
<path id= "10" d=" M 79.8436 -5 L 56 -5 " />
<path d="M67.5338 -42.8858 A80 80 0 0 1 79.8436 -5" /><path id= "12" d=" M 48.2439 -28.8709 L 67.5338 -42.8858 " />
<path id= "13" d=" M 42.366 -36.9611 L 48.2439 -28.8709 " />
<path id= "14" d=" M 61.6559 -50.976 L 42.366 -36.9611 " />
<path d="M29.4283 -74.3907 A80 80 0 0 1 61.6559 -50.976" /><path id= "16" d=" M 22.0602 -51.7141 L 29.4283 -74.3907 " />
<path id= "17" d=" M 12.5497 -54.8042 L 22.0602 -51.7141 " />
<path id= "18" d=" M 19.9177 -77.4809 L 12.5497 -54.8042 " />
<path d="M-19.9177 -77.4809 A80 80 0 0 1 19.9177 -77.4809" /><path id= "20" d=" M -12.5497 -54.8042 L -19.9177 -77.4809 " />
<path id= "21" d=" M -22.0602 -51.7141 L -12.5497 -54.8042 " />
<path id= "22" d=" M -29.4283 -74.3907 L -22.0602 -51.7141 " />
<path d="M-61.6559 -50.976 A80 80 0 0 1 -29.4283 -74.3907" /><path id= "24" d=" M -42.366 -36.9611 L -61.6559 -50.976 " />
<path id= "25" d=" M -48.2439 -28.8709 L -42.366 -36.9611 " />
<path id= "26" d=" M -67.5338 -42.8858 L -48.2439 -28.8709 " />
<path d="M-79.8436 -5 A80 80 0 0 1 -67.5338 -42.8858" /><path id= "28" d=" M -56 -5 L -79.8436 -5 " />
<path id= "29" d=" M -56 5 L -56 -5 " />
<path id= "30" d=" M -79.8436 5 L -56 5 " />
<path d="M-67.5338 42.8858 A80 80 0 0 1 -79.8436 5" /><path id= "32" d=" M -48.2439 28.8709 L -67.5338 42.8858 " />
<path id= "33" d=" M -42.366 36.9611 L -48.2439 28.8709 " />
<path id= "34" d=" M -61.6559 50.976 L -42.366 36.9611 " />
<path d="M-29.4283 74.3907 A80 80 0 0 1 -61.6559 50.976" /><path id= "36" d=" M -22.0602 51.7141 L -29.4283 74.3907 " />
<path id= "37" d=" M -12.5497 54.8042 L -22.0602 51.7141 " />
<path id= "38" d=" M -19.9177 77.4809 L -12.5497 54.8042 " />
<path d="M19.9177 77.4809 A80 80 0 0 1 -19.9177 77.4809" /><path id= "40" d=" M 12.5497 54.8042 L 19.9177 77.4809 " />
<path d="M12 0 A12 12 0 0 1 9.7082 7.05342" /><path d="M9.7082 -7.05342 A12 12 0 0 1 12 -2.93915e-15" /><path d="M9.7082 7.05342 A12 12 0 0 1 3.7082 11.4127" /><path d="M3.7082 -11.4127 A12 12 0 0 1 9.7082 -7.05342" /><path d="M3.7082 11.4127 A12 12 0 0 1 -3.7082 11.4127" /><path d="M-3.7082 -11.4127 A12 12 0 0 1 3.7082 -11.4127" /><path d="M-3.7082 11.4127 A12 12 0 0 1 -9.7082 7.05342" /><path d="M-9.7082 -7.05342 A12 12 0 0 1 -3.7082 -11.4127" /><path d="M-9.7082 7.05342 A12 12 0 0 1 -12 1.46958e-15" /><path d="M-12 1.46958e-15 A12 12 0 0 1 -9.7082 -7.05342" /></g>
</g>



<g id="View022"
   transform="rotate(18,920,300) translate(920,300) scale(1,1)"
  >
<g   fill="none"
   stroke="rgb(0, 0, 0)"
   stroke-linecap="butt"
   stroke-linejoin="miter"
   stroke-width="0.350000"
   transform="scale(1,-1)"
  >
<path d="M656.999,1.05858 C657.496,1.23315 657.997,1.41136 658.503,1.59326 " /><path d="M656.248 -3.96814e-11 A1.125 1.125 0 0 0 656.999 1.05858" /><path d="M658.503,1.59326 C659.962,2.11796 661.459,2.67343 662.992,3.26138 " /><path id= "4" d=" M 656.248 -3.93744e-11 L 600 -3.59995e-11 " />
<path d="M600 -3.60004e-11 A600 600 0 0 1 485.41 352.671" /><path id= "6" d=" M 530.916 385.733 L 485.41 352.671 " />
<path d="M662.992 3.26138 A663 663 0 0 1 662.975 5.76433" /><path d="M530.956 385.681 A1.125 1.125 0 0 0 530.916 385.733" /><path d="M662.975,5.76433 C661.434,6.33135 659.93,6.8664 658.464,7.37119 " /><path d="M531.136 385.433 A656.25 656.25 0 0 1 530.956 385.681" /><path d="M658.464,7.37119 C657.956,7.54619 657.452,7.71755 656.953,7.88535 " /><path d="M532.402 384.963 A1.125 1.125 0 0 0 531.136 385.433" /><path d="M656.953 7.88535 A1.125 1.125 0 0 0 656.188 8.99932" /><path d="M533.934,385.414 C533.417,385.264 532.907,385.114 532.402,384.963 " /><path d="M656.188 8.99932 A656.25 656.25 0 0 1 656.184 9.30521" /><path d="M538.547,386.7 C536.96,386.275 535.423,385.846 533.934,385.414 " /><path d="M656.184 9.30521 A1.125 1.125 0 0 0 656.917 10.4401" /><path d="M540.003 384.664 A663 663 0 0 1 538.547 386.7" /><path d="M656.917,10.4401 C657.411,10.6217 657.91,10.8071 658.413,10.9962 " /><path d="M537.295,380.714 C538.185,381.984 539.088,383.3 540.003,384.664 " /><path d="M658.413,10.9962 C659.865,11.5417 661.353,12.1184 662.878,12.7282 " /><path d="M536.374,379.41 C536.679,379.839 536.986,380.274 537.295,380.714 " /><path d="M662.878 12.7282 A663 663 0 0 1 662.825 15.2307" /><path d="M536.409 378.06 A1.125 1.125 0 0 0 536.374 379.41" /><path d="M662.825,15.2307 C661.276,15.7756 659.765,16.2892 658.291,16.773 " /><path d="M536.585 377.81 A656.25 656.25 0 0 1 536.409 378.06" /><path d="M658.291,16.773 C657.781,16.9407 657.275,17.1048 656.773,17.2655 " /><path d="M537.845 377.322 A1.125 1.125 0 0 0 536.585 377.81" /><path d="M656.773 17.2655 A1.125 1.125 0 0 0 655.993 18.3684" /><path d="M539.383,377.75 C538.864,377.608 538.352,377.465 537.845,377.322 " /><path d="M655.993 18.3684 A656.25 656.25 0 0 1 655.984 18.6742" /><path d="M544.014,378.97 C542.422,378.568 540.878,378.161 539.383,377.75 " /><path d="M655.984 18.6742 A1.125 1.125 0 0 0 656.701 19.8194" /><path d="M545.44 376.914 A663 663 0 0 1 544.014 378.97" /><path d="M656.701,19.8194 C657.193,20.0081 657.689,20.2006 658.189,20.3969 " /><path d="M542.677,373.003 C543.585,374.26 544.507,375.563 545.44,376.914 " /><path d="M658.189,20.3969 C659.633,20.963 661.113,21.561 662.628,22.1925 " /><path d="M541.737,371.713 C542.048,372.137 542.362,372.567 542.677,373.003 " /><path d="M662.628 22.1925 A663 663 0 0 1 662.54 24.6939" /><path d="M541.753 370.362 A1.125 1.125 0 0 0 541.737 371.713" /><path d="M662.54,24.6939 C660.983,25.2167 659.465,25.7086 657.985,26.1713 " /><path d="M541.926 370.109 A656.25 656.25 0 0 1 541.753 370.362" /><path d="M657.985,26.1713 C657.472,26.3317 656.963,26.4886 656.46,26.6421 " /><path d="M543.178 369.603 A1.125 1.125 0 0 0 541.926 370.109" /><path d="M656.46 26.6421 A1.125 1.125 0 0 0 655.664 27.7338" /><path d="M544.722,370.01 C544.202,369.875 543.687,369.739 543.178,369.603 " /><path d="M655.664 27.7338 A656.25 656.25 0 0 1 655.651 28.0394" /><path d="M549.37,371.163 C547.772,370.784 546.223,370.399 544.722,370.01 " /><path d="M655.651 28.0394 A1.125 1.125 0 0 0 656.351 29.1948" /><path d="M550.767 369.086 A663 663 0 0 1 549.37 371.163" /><path d="M656.351,29.1948 C656.84,29.3905 657.333,29.59 657.831,29.7934 " /><path d="M547.948,365.216 C548.874,366.459 549.814,367.749 550.767,369.086 " /><path d="M657.831,29.7934 C659.266,30.3801 660.738,30.9991 662.244,31.6522 " /><path d="M546.989,363.939 C547.307,364.359 547.626,364.785 547.948,365.216 " /><path d="M662.244 31.6522 A663 663 0 0 1 662.12 34.1521" /><path d="M546.986 362.588 A1.125 1.125 0 0 0 546.989 363.939" /><path d="M662.12,34.1521 C660.556,34.6526 659.03,35.1228 657.544,35.5643 " /><path d="M547.155 362.333 A656.25 656.25 0 0 1 546.986 362.588" /><path d="M657.544,35.5643 C657.029,35.7174 656.518,35.867 656.012,36.0133 " /><path d="M548.401 361.809 A1.125 1.125 0 0 0 547.155 362.333" /><path d="M656.012 36.0133 A1.125 1.125 0 0 0 655.201 37.0935" /><path d="M549.95,362.193 C549.428,362.066 548.911,361.938 548.401,361.809 " /><path d="M655.201 37.0935 A656.25 656.25 0 0 1 655.183 37.3989" /><path d="M554.614,363.281 C553.011,362.925 551.456,362.561 549.95,362.193 " /><path d="M655.183 37.3989 A1.125 1.125 0 0 0 655.867 38.5642" /><path d="M555.981 361.184 A663 663 0 0 1 554.614 363.281" /><path d="M655.867,38.5642 C656.353,38.7668 656.844,38.9733 657.338,39.1838 " /><path d="M553.107,357.354 C554.051,358.584 555.009,359.861 555.981,361.184 " /><path d="M657.338,39.1838 C658.765,39.791 660.228,40.431 661.725,41.1055 " /><path d="M552.131,356.091 C552.454,356.507 552.78,356.928 553.107,357.354 " /><path d="M661.725 41.1055 A663 663 0 0 1 661.565 43.6034" /><path d="M552.108 354.74 A1.125 1.125 0 0 0 552.131 356.091" /><path d="M661.565,43.6034 C659.994,44.0815 658.462,44.5298 656.969,44.9501 " /><path d="M552.273 354.483 A656.25 656.25 0 0 1 552.108 354.74" /><path d="M656.969,44.9501 C656.452,45.0958 655.939,45.2381 655.431,45.3771 " /><path d="M553.511 353.941 A1.125 1.125 0 0 0 552.273 354.483" /><path d="M655.431 45.3771 A1.125 1.125 0 0 0 654.604 46.4457" /><path d="M555.066,354.304 C554.542,354.183 554.024,354.063 553.511,353.941 " /><path d="M654.604 46.4457 A656.25 656.25 0 0 1 654.583 46.7508" /><path d="M559.744,355.324 C558.137,354.991 556.577,354.65 555.066,354.304 " /><path d="M654.583 46.7508 A1.125 1.125 0 0 0 655.25 47.9257" /><path d="M561.082 353.208 A663 663 0 0 1 559.744 355.324" /><path d="M655.25,47.9257 C655.733,48.1352 656.22,48.3488 656.712,48.5663 " /><path d="M558.153,349.42 C559.114,350.636 560.091,351.899 561.082,353.208 " /><path d="M656.712,48.5663 C658.13,49.1937 659.583,49.8546 661.07,50.5504 " /><path d="M557.159,348.171 C557.489,348.581 557.82,348.998 558.153,349.42 " /><path d="M661.07 50.5504 A663 663 0 0 1 660.875 53.0457" /><path d="M557.117 346.82 A1.125 1.125 0 0 0 557.159 348.171" /><path d="M660.875,53.0457 C659.297,53.5014 657.759,53.9278 656.26,54.3267 " /><path d="M557.279 346.561 A656.25 656.25 0 0 1 557.117 346.82" /><path d="M656.26,54.3267 C655.741,54.465 655.226,54.6 654.716,54.7317 " /><path d="M558.509 346.001 A1.125 1.125 0 0 0 557.279 346.561" /><path d="M654.716 54.7317 A1.125 1.125 0 0 0 653.874 55.7883" /><path d="M560.068,346.341 C559.543,346.229 559.023,346.115 558.509,346.001 " /><path d="M653.874 55.7883 A656.25 656.25 0 0 1 653.848 56.0931" /><path d="M564.761,347.295 C563.149,346.985 561.585,346.666 560.068,346.341 " /><path d="M653.848 56.0931 A1.125 1.125 0 0 0 654.499 57.2774" /><path d="M566.068 345.16 A663 663 0 0 1 564.761 347.295" /><path d="M654.499,57.2774 C654.979,57.4939 655.463,57.7143 655.951,57.9388 " /><path d="M563.086,341.414 C564.064,342.617 565.059,343.865 566.068,345.16 " /><path d="M655.951,57.9388 C657.36,58.5865 658.804,59.268 660.281,59.985 " /><path d="M562.074,340.179 C562.409,340.585 562.747,340.997 563.086,341.414 " /><path d="M660.281 59.985 A663 663 0 0 1 660.05 62.4773" /><path d="M562.013 338.83 A1.125 1.125 0 0 0 562.074 340.179" /><path d="M660.05,62.4773 C658.466,62.9104 656.922,63.3147 655.418,63.6922 " /><path d="M562.171 338.568 A656.25 656.25 0 0 1 562.013 338.83" /><path d="M655.418,63.6922 C654.896,63.8231 654.38,63.9507 653.868,64.0752 " /><path d="M563.393 337.991 A1.125 1.125 0 0 0 562.171 338.568" /><path d="M653.868 64.0752 A1.125 1.125 0 0 0 653.011 65.1196" /><path d="M564.957,338.309 C564.43,338.203 563.908,338.098 563.393,337.991 " /><path d="M653.011 65.1196 A656.25 656.25 0 0 1 652.981 65.424" /><path d="M569.663,339.195 C568.046,338.908 566.478,338.612 564.957,338.309 " /><path d="M652.981 65.424 A1.125 1.125 0 0 0 653.614 66.6175" /><path d="M570.939 337.042 A663 663 0 0 1 569.663 339.195" /><path d="M653.614,66.6175 C654.091,66.8407 654.572,67.0681 655.057,67.2996 " /><path d="M567.904,333.338 C568.899,334.527 569.912,335.761 570.939,337.042 " /><path d="M655.057,67.2996 C656.457,67.9673 657.89,68.6693 659.357,69.4073 " /><path d="M566.874,332.118 C567.215,332.52 567.558,332.926 567.904,333.338 " /><path d="M659.357 69.4073 A663 663 0 0 1 659.09 71.8961" /><path d="M566.794 330.77 A1.125 1.125 0 0 0 566.874 332.118" /><path d="M659.09,71.8961 C657.5,72.3065 655.951,72.6888 654.441,73.0447 " /><path d="M566.948 330.506 A656.25 656.25 0 0 1 566.794 330.77" /><path d="M654.441,73.0447 C653.918,73.1681 653.4,73.2884 652.886,73.4055 " /><path d="M568.161 329.911 A1.125 1.125 0 0 0 566.948 330.506" /><path d="M652.886 73.4055 A1.125 1.125 0 0 0 652.015 74.4377" /><path d="M569.73,330.207 C569.202,330.109 568.679,330.011 568.161,329.911 " /><path d="M652.015 74.4377 A656.25 656.25 0 0 1 651.98 74.7416" /><path d="M574.448,331.026 C572.828,330.762 571.255,330.488 569.73,330.207 " /><path d="M651.98 74.7416 A1.125 1.125 0 0 0 652.596 75.9439" /><path d="M575.694 328.855 A663 663 0 0 1 574.448 331.026" /><path d="M652.596,75.9439 C653.07,76.174 653.547,76.4082 654.029,76.6466 " /><path d="M572.606,325.195 C573.618,326.369 574.648,327.589 575.694,328.855 " /><path d="M654.029,76.6466 C655.419,77.3342 656.843,78.0566 658.299,78.8155 " /><path d="M571.559,323.99 C571.906,324.386 572.255,324.788 572.606,325.195 " /><path d="M658.299 78.8155 A663 663 0 0 1 657.996 81.3002" /><path d="M571.459 322.643 A1.125 1.125 0 0 0 571.559 323.99" /><path d="M657.996,81.3002 C656.401,81.6879 654.846,82.048 653.332,82.3824 " /><path d="M571.61 322.376 A656.25 656.25 0 0 1 571.459 322.643" /><path d="M653.332,82.3824 C652.807,82.4983 652.287,82.6111 651.772,82.7209 " /><path d="M572.815 321.765 A1.125 1.125 0 0 0 571.61 322.376" /><path d="M651.772 82.7209 A1.125 1.125 0 0 0 650.885 83.7405" /><path d="M574.387,322.038 C573.857,321.948 573.333,321.857 572.815,321.765 " /><path d="M650.885 83.7405 A656.25 656.25 0 0 1 650.846 84.0439" /><path d="M579.117,322.789 C577.492,322.548 575.916,322.297 574.387,322.038 " /><path d="M650.846 84.0439 A1.125 1.125 0 0 0 651.445 85.2549" /><path d="M580.331 320.601 A663 663 0 0 1 579.117 322.789" /><path d="M651.445,85.2549 C651.915,85.4917 652.39,85.7327 652.868,85.978 " /><path d="M577.191,316.985 C578.22,318.145 579.267,319.35 580.331,320.601 " /><path d="M652.868,85.978 C654.248,86.6853 655.661,87.4281 657.106,88.2076 " /><path d="M576.127,315.795 C576.479,316.187 576.834,316.583 577.191,316.985 " /><path d="M657.106 88.2076 A663 663 0 0 1 656.768 90.6878" /><path d="M576.008 314.449 A1.125 1.125 0 0 0 576.127 315.795" /><path d="M656.768,90.6878 C655.168,91.0526 653.607,91.3905 652.089,91.7032 " /><path d="M576.155 314.181 A656.25 656.25 0 0 1 576.008 314.449" /><path d="M652.089,91.7032 C651.562,91.8116 651.041,91.917 650.524,92.0194 " /><path d="M577.351 313.552 A1.125 1.125 0 0 0 576.155 314.181" /><path d="M650.524 92.0194 A1.125 1.125 0 0 0 649.623 93.0263" /><path d="M578.927,313.803 C578.396,313.72 577.871,313.637 577.351,313.552 " /><path d="M649.623 93.0263 A656.25 656.25 0 0 1 649.58 93.3291" /><path d="M583.667,314.487 C582.039,314.269 580.46,314.041 578.927,313.803 " /><path d="M649.58 93.3291 A1.125 1.125 0 0 0 650.161 94.5485" /><path d="M584.85 312.281 A663 663 0 0 1 583.667 314.487" /><path d="M650.161,94.5485 C650.628,94.792 651.099,95.0398 651.574,95.2918 " /><path d="M581.658,308.711 C582.704,309.856 583.768,311.046 584.85,312.281 " /><path d="M651.574,95.2918 C652.943,96.0188 654.346,96.7816 655.78,97.5818 " /><path d="M580.578,307.536 C580.936,307.923 581.296,308.314 581.658,308.711 " /><path d="M655.78 97.5818 A663 663 0 0 1 655.406 100.057" /><path d="M580.44 306.192 A1.125 1.125 0 0 0 580.578 307.536" /><path d="M655.406,100.057 C653.801,100.399 652.236,100.714 650.713,101.005 " /><path d="M580.582 305.922 A656.25 656.25 0 0 1 580.44 306.192" /><path d="M650.713,101.005 C650.185,101.106 649.662,101.204 649.144,101.299 " /><path d="M581.769 305.276 A1.125 1.125 0 0 0 580.582 305.922" /><path d="M649.144 101.299 A1.125 1.125 0 0 0 648.229 102.293" /><path d="M583.349,305.504 C582.817,305.429 582.29,305.353 581.769,305.276 " /><path d="M648.229 102.293 A656.25 656.25 0 0 1 648.181 102.595" /><path d="M588.098,306.12 C586.468,305.926 584.885,305.72 583.349,305.504 " /><path d="M648.181 102.595 A1.125 1.125 0 0 0 648.745 103.823" /><path d="M589.25 303.898 A663 663 0 0 1 588.098 306.12" /><path d="M648.745,103.823 C649.208,104.073 649.676,104.327 650.147,104.586 " /><path d="M586.007,300.374 C587.069,301.504 588.15,302.678 589.25,303.898 " /><path d="M650.147,104.586 C651.506,105.333 652.897,106.115 654.319,106.936 " /><path d="M584.91,299.215 C585.273,299.596 585.639,299.982 586.007,300.374 " /><path d="M654.319 106.936 A663 663 0 0 1 653.911 109.405" /><path d="M584.753 297.873 A1.125 1.125 0 0 0 584.91 299.215" /><path d="M653.911,109.405 C652.3,109.724 650.731,110.018 649.204,110.287 " /><path d="M584.892 297.6 A656.25 656.25 0 0 1 584.753 297.873" /><path d="M649.204,110.287 C648.675,110.38 648.15,110.471 647.631,110.558 " /><path d="M586.069 296.938 A1.125 1.125 0 0 0 584.892 297.6" /><path d="M647.631 110.558 A1.125 1.125 0 0 0 646.702 111.539" /><path d="M587.652,297.143 C587.119,297.076 586.591,297.007 586.069,296.938 " /><path d="M646.702 111.539 A656.25 656.25 0 0 1 646.65 111.84" /><path d="M592.409,297.691 C590.776,297.52 589.191,297.337 587.652,297.143 " /><path d="M646.65 111.84 A1.125 1.125 0 0 0 647.196 113.076" /><path d="M593.529 295.453 A663 663 0 0 1 592.409 297.691" /><path d="M647.196,113.076 C647.656,113.333 648.12,113.594 648.587,113.859 " /><path d="M590.237,291.975 C591.315,293.09 592.413,294.249 593.529,295.453 " /><path d="M648.587,113.859 C649.935,114.625 651.315,115.428 652.726,116.268 " /><path d="M589.123,290.832 C589.492,291.208 589.863,291.589 590.237,291.975 " /><path d="M652.726 116.268 A663 663 0 0 1 652.282 118.732" /><path d="M588.947 289.492 A1.125 1.125 0 0 0 589.123 290.832" /><path d="M652.282,118.732 C650.667,119.028 649.094,119.299 647.563,119.546 " /><path d="M589.082 289.218 A656.25 656.25 0 0 1 588.947 289.492" /><path d="M647.563,119.546 C647.032,119.632 646.507,119.715 645.986,119.795 " /><path d="M590.249 288.539 A1.125 1.125 0 0 0 589.082 289.218" /><path d="M645.986 119.795 A1.125 1.125 0 0 0 645.043 120.762" /><path d="M591.835,288.721 C591.301,288.662 590.772,288.601 590.249,288.539 " /><path d="M645.043 120.762 A656.25 656.25 0 0 1 644.987 121.063" /><path d="M596.6,289.202 C594.965,289.054 593.376,288.893 591.835,288.721 " /><path d="M644.987 121.063 A1.125 1.125 0 0 0 645.515 122.306" /><path d="M597.687 286.947 A663 663 0 0 1 596.6 289.202" /><path d="M645.515,122.306 C645.972,122.569 646.431,122.837 646.895,123.109 " /><path d="M594.346,283.517 C595.44,284.616 596.554,285.759 597.687,286.947 " /><path d="M646.895,123.109 C648.232,123.894 649.601,124.716 650.999,125.577 " /><path d="M593.216,282.39 C593.59,282.76 593.967,283.136 594.346,283.517 " /><path d="M650.999 125.577 A663 663 0 0 1 650.52 128.034" /><path d="M593.02 281.053 A1.125 1.125 0 0 0 593.216 282.39" /><path d="M650.52,128.034 C648.901,128.307 647.324,128.555 645.79,128.781 " /><path d="M593.151 280.777 A656.25 656.25 0 0 1 593.02 281.053" /><path d="M645.79,128.781 C645.258,128.859 644.731,128.934 644.21,129.007 " /><path d="M594.309 280.081 A1.125 1.125 0 0 0 593.151 280.777" /><path d="M644.21 129.007 A1.125 1.125 0 0 0 643.253 129.961" /><path d="M595.898,280.241 C595.363,280.189 594.833,280.135 594.309,280.081 " /><path d="M643.253 129.961 A656.25 656.25 0 0 1 643.192 130.261" /><path d="M600.669,280.653 C599.031,280.529 597.441,280.391 595.898,280.241 " /><path d="M643.192 130.261 A1.125 1.125 0 0 0 643.703 131.511" /><path d="M601.724 278.383 A663 663 0 0 1 600.669 280.653" /><path d="M643.703,131.511 C644.155,131.781 644.611,132.055 645.071,132.334 " /><path d="M598.334,275.001 C599.443,276.085 600.574,277.212 601.724,278.383 " /><path d="M645.071,132.334 C646.397,133.138 647.753,133.98 649.139,134.86 " /><path d="M597.188,273.89 C597.567,274.255 597.949,274.626 598.334,275.001 " /><path d="M649.139 134.86 A663 663 0 0 1 648.625 137.31" /><path d="M596.973 272.556 A1.125 1.125 0 0 0 597.188 273.89" /><path d="M648.625,137.31 C647.003,137.56 645.422,137.785 643.885,137.989 " /><path d="M597.1 272.278 A656.25 656.25 0 0 1 596.973 272.556" /><path d="M643.885,137.989 C643.352,138.06 642.824,138.128 642.302,138.193 " /><path d="M598.248 271.566 A1.125 1.125 0 0 0 597.1 272.278" /><path d="M642.302 138.193 A1.125 1.125 0 0 0 641.332 139.133" /><path d="M599.839,271.703 C599.303,271.659 598.773,271.613 598.248,271.566 " /><path d="M641.332 139.133 A656.25 656.25 0 0 1 641.267 139.432" /><path d="M604.615,272.047 C602.976,271.946 601.384,271.831 599.839,271.703 " /><path d="M641.267 139.432 A1.125 1.125 0 0 0 641.76 140.69" /><path d="M605.638 269.763 A663 663 0 0 1 604.615 272.047" /><path d="M641.76,140.69 C642.208,140.966 642.66,141.246 643.116,141.532 " /><path d="M602.2,266.429 C603.324,267.497 604.471,268.608 605.638,269.763 " /><path d="M643.116,141.532 C644.43,142.355 645.774,143.216 647.147,144.116 " /><path d="M601.038,265.335 C601.422,265.695 601.81,266.059 602.2,266.429 " /><path d="M647.147 144.116 A663 663 0 0 1 646.599 146.558" /><path d="M600.804 264.004 A1.125 1.125 0 0 0 601.038 265.335" /><path d="M646.599,146.558 C644.972,146.785 643.389,146.988 641.849,147.169 " /><path d="M600.927 263.724 A656.25 656.25 0 0 1 600.804 264.004" /><path d="M641.849,147.169 C641.315,147.232 640.787,147.293 640.263,147.35 " /><path d="M602.065 262.995 A1.125 1.125 0 0 0 600.927 263.724" /><path d="M640.263 147.35 A1.125 1.125 0 0 0 639.279 148.277" /><path d="M603.657,263.11 C603.121,263.073 602.59,263.035 602.065,262.995 " /><path d="M639.279 148.277 A656.25 656.25 0 0 1 639.21 148.575" /><path d="M608.438,263.386 C606.798,263.308 605.204,263.216 603.657,263.11 " /><path d="M639.21 148.575 A1.125 1.125 0 0 0 639.685 149.839" /><path d="M609.428 261.087 A663 663 0 0 1 608.438 263.386" /><path d="M639.685,149.839 C640.13,150.122 640.578,150.409 641.029,150.701 " /><path d="M605.943,257.803 C607.082,258.855 608.245,259.949 609.428,261.087 " /><path d="M641.029,150.701 C642.331,151.542 643.663,152.422 645.023,153.342 " /><path d="M604.765,256.725 C605.155,257.079 605.548,257.439 605.943,257.803 " /><path d="M645.023 153.342 A663 663 0 0 1 644.44 155.776" /><path d="M604.513 255.398 A1.125 1.125 0 0 0 604.765 256.725" /><path d="M644.44,155.776 C642.811,155.979 641.224,156.16 639.682,156.32 " /><path d="M604.632 255.116 A656.25 656.25 0 0 1 604.513 255.398" /><path d="M639.682,156.32 C639.147,156.375 638.618,156.428 638.094,156.478 " /><path d="M605.759 254.371 A1.125 1.125 0 0 0 604.632 255.116" /><path d="M638.094 156.478 A1.125 1.125 0 0 0 637.097 157.39" /><path d="M607.353,254.463 C606.816,254.434 606.285,254.404 605.759,254.371 " /><path d="M637.097 157.39 A656.25 656.25 0 0 1 637.023 157.687" /><path d="M612.137,254.671 C610.496,254.617 608.901,254.547 607.353,254.463 " /><path d="M637.023 157.687 A1.125 1.125 0 0 0 637.48 158.958" /><path d="M613.094 252.358 A663 663 0 0 1 612.137 254.671" /><path d="M637.48,158.958 C637.921,159.247 638.365,159.541 638.812,159.839 " /><path d="M609.562,249.124 C610.717,250.159 611.895,251.237 613.094,252.358 " /><path d="M638.812,159.839 C640.102,160.699 641.421,161.598 642.768,162.537 " /><path d="M608.37,248.063 C608.764,248.412 609.162,248.766 609.562,249.124 " /><path d="M642.768 162.537 A663 663 0 0 1 642.15 164.963" /><path d="M608.098 246.74 A1.125 1.125 0 0 0 608.37 248.063" /><path d="M642.15,164.963 C640.518,165.143 638.929,165.3 637.385,165.438 " /><path d="M608.213 246.456 A656.25 656.25 0 0 1 608.098 246.74" /><path d="M637.385,165.438 C636.849,165.486 636.319,165.531 635.794,165.574 " /><path d="M609.33 245.696 A1.125 1.125 0 0 0 608.213 246.456" /><path d="M635.794 165.574 A1.125 1.125 0 0 0 634.784 166.471" /><path d="M610.924,245.765 C610.387,245.743 609.856,245.72 609.33,245.696 " /><path d="M634.784 166.471 A656.25 656.25 0 0 1 634.707 166.767" /><path d="M615.711,245.904 C614.07,245.873 612.474,245.826 610.924,245.765 " /><path d="M634.707 166.767 A1.125 1.125 0 0 0 635.146 168.045" /><path d="M616.635 243.578 A663 663 0 0 1 615.711 245.904" /><path d="M635.146,168.045 C635.582,168.34 636.021,168.64 636.464,168.945 " /><path d="M613.057,240.395 C614.227,241.413 615.42,242.474 616.635,243.578 " /><path d="M636.464,168.945 C637.742,169.823 639.048,170.741 640.382,171.699 " /><path d="M611.85,239.351 C612.249,239.694 612.652,240.042 613.057,240.395 " /><path d="M640.382 171.699 A663 663 0 0 1 639.729 174.115" /><path d="M611.56 238.031 A1.125 1.125 0 0 0 611.85 239.351" /><path d="M639.729,174.115 C638.094,174.272 636.504,174.407 634.957,174.523 " /><path d="M611.67 237.746 A656.25 656.25 0 0 1 611.56 238.031" /><path d="M634.957,174.523 C634.421,174.563 633.891,174.6 633.365,174.636 " /><path d="M612.776 236.97 A1.125 1.125 0 0 0 611.67 237.746" /><path d="M633.365 174.636 A1.125 1.125 0 0 0 632.343 175.519" /><path d="M614.372,237.016 C613.834,237.002 613.302,236.987 612.776,236.97 " /><path d="M632.343 175.519 A656.25 656.25 0 0 1 632.261 175.814" /><path d="M619.16,237.087 C617.518,237.08 615.922,237.055 614.372,237.016 " /><path d="M632.261 175.814 A1.125 1.125 0 0 0 632.681 177.097" /><path d="M620.05 234.748 A663 663 0 0 1 619.16 237.087" /><path d="M632.681,177.097 C633.113,177.399 633.548,177.705 633.987,178.016 " /><path d="M616.428,231.616 C617.611,232.618 618.819,233.661 620.05,234.748 " /><path d="M633.987,178.016 C635.252,178.912 636.545,179.848 637.864,180.826 " /><path d="M615.205,230.59 C615.61,230.927 616.017,231.269 616.428,231.616 " /><path d="M637.864 180.826 A663 663 0 0 1 637.177 183.233" /><path d="M614.896 229.274 A1.125 1.125 0 0 0 615.205 230.59" /><path d="M637.177,183.233 C635.541,183.366 633.948,183.478 632.401,183.572 " /><path d="M615.003 228.988 A656.25 656.25 0 0 1 614.896 229.274" /><path d="M632.401,183.572 C631.864,183.604 631.333,183.634 630.807,183.662 " /><path d="M616.097 228.195 A1.125 1.125 0 0 0 615.003 228.988" /><path d="M630.807 183.662 A1.125 1.125 0 0 0 629.772 184.53" /><path d="M617.693,228.219 C617.156,228.213 616.624,228.205 616.097,228.195 " /><path d="M629.772 184.53 A656.25 656.25 0 0 1 629.686 184.824" /><path d="M622.482,228.221 C620.84,228.238 619.244,228.236 617.693,228.219 " /><path d="M629.686 184.824 A1.125 1.125 0 0 0 630.088 186.114" /><path d="M623.339 225.87 A663 663 0 0 1 622.482 228.221" /><path d="M630.088,186.114 C630.515,186.421 630.946,186.733 631.38,187.051 " /><path d="M619.672,222.79 C620.87,223.775 622.093,224.801 623.339,225.87 " /><path d="M631.38,187.051 C632.633,187.965 633.912,188.92 635.217,189.916 " /><path d="M618.435,221.781 C618.844,222.113 619.257,222.449 619.672,222.79 " /><path d="M635.217 189.916 A663 663 0 0 1 634.496 192.312" /><path d="M618.107 220.471 A1.125 1.125 0 0 0 618.435 221.781" /><path d="M634.496,192.312 C632.858,192.422 631.264,192.512 629.715,192.583 " /><path d="M618.21 220.182 A656.25 656.25 0 0 1 618.107 220.471" /><path d="M629.715,192.583 C629.178,192.608 628.646,192.631 628.12,192.651 " /><path d="M619.293 219.375 A1.125 1.125 0 0 0 618.21 220.182" /><path d="M628.12 192.651 A1.125 1.125 0 0 0 627.073 193.504" /><path d="M620.889,219.375 C620.352,219.377 619.82,219.377 619.293,219.375 " /><path d="M627.073 193.504 A656.25 656.25 0 0 1 626.982 193.797" /><path d="M625.678,219.309 C624.036,219.349 622.44,219.37 620.889,219.375 " /><path d="M626.982 193.797 A1.125 1.125 0 0 0 627.366 195.092" /><path d="M626.501 216.946 A663 663 0 0 1 625.678 219.309" /><path d="M627.366,195.092 C627.789,195.406 628.215,195.724 628.645,196.047 " /><path d="M622.79,213.919 C624.002,214.886 625.24,215.895 626.501,216.946 " /><path d="M628.645,196.047 C629.884,196.98 631.15,197.952 632.441,198.967 " /><path d="M621.539,212.928 C621.953,213.253 622.37,213.584 622.79,213.919 " /><path d="M632.441 198.967 A663 663 0 0 1 631.685 201.353" /><path d="M621.193 211.622 A1.125 1.125 0 0 0 621.539 212.928" /><path d="M631.685,201.353 C630.045,201.44 628.45,201.507 626.901,201.556 " /><path d="M621.291 211.332 A656.25 656.25 0 0 1 621.193 211.622" /><path d="M626.901,201.556 C626.363,201.573 625.831,201.588 625.305,201.6 " /><path d="M622.362 210.509 A1.125 1.125 0 0 0 621.291 211.332" /><path d="M625.305 201.6 A1.125 1.125 0 0 0 624.246 202.439" /><path d="M623.959,210.487 C623.421,210.496 622.889,210.504 622.362,210.509 " /><path d="M624.246 202.439 A656.25 656.25 0 0 1 624.151 202.73" /><path d="M628.745,210.353 C627.105,210.416 625.509,210.46 623.959,210.487 " /><path d="M624.151 202.73 A1.125 1.125 0 0 0 624.516 204.031" /><path d="M629.535 207.978 A663 663 0 0 1 628.745 210.353" /><path d="M624.516,204.031 C624.935,204.35 625.357,204.675 625.781,205.004 " /><path d="M625.781,205.004 C627.007,205.954 628.259,206.945 629.535,207.978 " /><circle cx ="618.089" cy ="48.6446" r ="2.5" /><circle cx ="602.869" cy ="144.736" r ="2.5" /><circle cx ="528.637" cy ="323.949" r ="2.5" /><circle cx ="572.805" cy ="237.264" r ="2.5" /></g>
</g>



<g id="View023"
   transform="rotate(36,820,300) translate(820,300) scale(1,1)"
  >
<g   fill="none"
   stroke="rgb(0, 0, 0)"
   stroke-linecap="butt"
   stroke-linejoin="miter"
   stroke-width="0.350000"
   transform="scale(1,-1)"
  >
<path id= "1" d=" M 390.289 537.187 L 352.671 485.41 " />
<path d="M631.502 205.187 A664 664 0 0 1 390.289 537.187" /><path d="M570.634 185.41 A600 600 0 0 1 352.671 485.41" /><path id= "4" d=" M 570.634 185.41 L 631.502 205.187 " />
<circle cx ="572.805" cy ="237.264" r ="3" /><circle cx ="528.637" cy ="323.949" r ="3" /><circle cx ="402.658" cy ="471.452" r ="3" /><circle cx ="471.452" cy ="402.658" r ="3" /></g>
</g>



<g id="View024"
   transform="rotate(27,920,1380) translate(920,1380) scale(1,1)"
  >
<g   fill="none"
   stroke="rgb(0, 0, 0)"
   stroke-linecap="butt"
   stroke-linejoin="miter"
   stroke-width="0.350000"
   transform="scale(1,-1)"
  >
<path id= "1" d=" M 572.859 90.732 L 636.071 100.744 " />
<path d="M572.859 90.732 A580 580 0 0 1 410.122 410.122" /><path d="M636.071 100.744 A644 644 0 0 1 455.377 455.377" /><path id= "4" d=" M 410.122 410.122 L 455.377 455.377 " />
<circle cx ="602.869" cy ="144.736" r ="3" /><circle cx ="572.805" cy ="237.264" r ="3" /><circle cx ="471.452" cy ="402.658" r ="3" /><circle cx ="528.637" cy ="323.949" r ="3" /></g>
</g>



<g id="View025"
   transform="rotate(9,820,1380) translate(820,1380) scale(1,1)"
  >
<g   fill="none"
   stroke="rgb(0, 0, 0)"
   stroke-linecap="butt"
   stroke-linejoin="miter"
   stroke-width="0.350000"
   transform="scale(1,-1)"
  >
<path id= "1" d=" M 572.859 -90.732 L 635.084 -100.587 " />
<path d="M572.859 -90.732 A580 580 0 0 1 516.784 263.314" /><path d="M635.084 -100.587 A643 643 0 0 1 572.917 291.916" /><path id= "4" d=" M 516.784 263.314 L 572.917 291.916 " />
<circle cx ="618.089" cy ="-48.6446" r ="3" /><circle cx ="618.089" cy ="48.6446" r ="3" /><circle cx ="572.805" cy ="237.264" r ="3" /><circle cx ="602.869" cy ="144.736" r ="3" /></g>
</g>



</svg>

