<?xml version="1.0" encoding="UTF-8"?>

<svg xmlns="http://www.w3.org/2000/svg" version="1.1"
	width="1600mm"
	height="1600mm"
	viewBox="0 0 1600 1600">
	<!-- Working space 0 0 1600 1600 -->
	<defs>
		<radialGradient
			id="radialGradient3661"
			gradientUnits="userSpaceOnUse"
			cy="29.149"
			cx="282.65"
			gradientTransform="matrix(.14777 .23089 -.24680 .15795 -26.318 -62.617)"
			r="19.571">
				<stop stop-color="#71b2f8" offset="0"/>
				<stop stop-color="#002795" offset="1"/>
		</radialGradient>
		<radialGradient
			id="radialGradient3817"
			gradientUnits="userSpaceOnUse"
			cy="33.9"
			cx="270.58"
			gradientTransform="matrix(.26631 .065024 -.17931 .73438 -60.668 -36.938)"
			r="19.571">
				<stop stop-color="#ff6d0f" offset="0"/>
				<stop stop-color="#ff1000" offset="1"/>
		</radialGradient>
	</defs>
	<!-- Set display:none to hide FreeCAD Logo -->
	<g
		style="display:none"
		id="freecad-logo"
		transform="translate(552, 380) scale(2)"
		fill-rule="evenodd"
		stroke-width=".45621">
		<path d="m0.22811 0.22835v13.256h2.9558v-5.1876h2.09v-2.0452h-2.09v-2.2075h5.1486v-3.8087l-8.1044-0.0075z"
			stroke="#370700"
			fill="url(#radialGradient3817)"/>
		<path d="m13.386 4.1792-1.7193 0.98645-0.75925-0.26348-0.72439-1.8513-1.1395 0.05988-0.51976 1.9144-0.72743 0.34835-1.8143-0.79367-0.76632 0.85156 0.98645 1.7193-0.26957 0.75702-1.8513 0.72439 0.065967 1.1417 1.9144 0.51976 0.34835 0.72743-0.79976 1.8121 0.85156 0.76632 1.7193-0.98645 0.76311 0.27179 0.7183 1.8491 1.1478-0.06375 0.51367-1.9166 0.72743-0.34835 1.8182 0.80198 0.76632-0.85156-0.98645-1.7193 0.2657-0.76533 1.8491-0.7183-0.05766-1.1456-1.9166-0.51367-0.34835-0.72743 0.7959-1.8204-0.85156-0.76632zm-2.5751 2.8195 0.35295 0.20478 0.30579 0.27725 0.24481 0.33087 0.17611 0.36787 0.10354 0.39656 0.01715 0.4064-0.0587 0.4063-0.13396 0.38571-0.2131 0.35681-0.26894 0.30192-0.33087 0.24481-0.36787 0.17611-0.39656 0.10354-0.40863 0.02325-0.4063-0.0587-0.38571-0.13396-0.35681-0.2131-0.2997-0.27503-0.24703-0.32478-0.17611-0.36787-0.10132-0.40264-0.02324-0.40863 0.05869-0.4063 0.13396-0.38571 0.21087-0.35072 0.27116-0.30801 0.33087-0.24481 0.36787-0.17611 0.40264-0.10132 0.40641-0.01715 0.4063 0.05869 0.38571 0.13396z" 
		stroke="#000137"
		fill="url(#radialGradient3661)"/>
	</g>
<g id="View017"
   transform="rotate(0,800,800) translate(800,800) scale(1,1)"
  >
<g   fill="none"
   stroke="rgb(0, 0, 0)"
   stroke-linecap="butt"
   stroke-linejoin="miter"
   stroke-width="0.350000"
   transform="scale(1,-1)"
  >
<circle cx ="0" cy ="0" r ="640" /><circle cx ="68" cy ="0" r ="3" /><path id= "3" d=" M 180 -5 L 180 5 " />
<path id= "4" d=" M 204 -5 L 180 -5 " />
<path id= "5" d=" M 180 5 L 204 5 " />
<path id= "6" d=" M 204 5 L 204 -5 " />
<path id= "7" d=" M 468 -5 L 468 5 " />
<path id= "8" d=" M 492 -5 L 468 -5 " />
<path id= "9" d=" M 468 5 L 492 5 " />
<path id= "10" d=" M 492 5 L 492 -5 " />
<circle cx ="432" cy ="0" r ="3" /><path id= "12" d=" M 372 -5 L 372 5 " />
<path id= "13" d=" M 396 -5 L 372 -5 " />
<path id= "14" d=" M 372 5 L 396 5 " />
<path id= "15" d=" M 396 5 L 396 -5 " />
<path id= "16" d=" M 276 -5 L 276 5 " />
<path id= "17" d=" M 300 -5 L 276 -5 " />
<path id= "18" d=" M 276 5 L 300 5 " />
<path id= "19" d=" M 300 5 L 300 -5 " />
<circle cx ="336" cy ="0" r ="3" /><path id= "21" d=" M 148.562 101.756 L 142.684 109.846 " />
<path id= "22" d=" M 167.978 115.863 L 148.562 101.756 " />
<path id= "23" d=" M 142.684 109.846 L 162.101 123.953 " />
<path id= "24" d=" M 162.101 123.953 L 167.978 115.863 " />
<path id= "25" d=" M 226.228 158.184 L 220.35 166.274 " />
<path id= "26" d=" M 245.644 172.29 L 226.228 158.184 " />
<path id= "27" d=" M 220.35 166.274 L 239.766 180.381 " />
<path id= "28" d=" M 239.766 180.381 L 245.644 172.29 " />
<circle cx ="271.83" cy ="197.496" r ="3" /><circle cx ="-271.83" cy ="197.496" r ="3" /><path id= "31" d=" M -220.35 166.274 L -226.228 158.184 " />
<path id= "32" d=" M -239.766 180.381 L -220.35 166.274 " />
<path id= "33" d=" M -226.228 158.184 L -245.644 172.29 " />
<path id= "34" d=" M -245.644 172.29 L -239.766 180.381 " />
<path id= "35" d=" M -142.684 109.846 L -148.562 101.756 " />
<path id= "36" d=" M -162.101 123.953 L -142.684 109.846 " />
<path id= "37" d=" M -148.562 101.756 L -167.978 115.863 " />
<path id= "38" d=" M -167.978 115.863 L -162.101 123.953 " />
<path id= "39" d=" M -50.8678 172.735 L -60.3783 169.645 " />
<path id= "40" d=" M -58.2842 195.561 L -50.8678 172.735 " />
<path id= "41" d=" M -60.3783 169.645 L -67.7947 192.47 " />
<path id= "42" d=" M -67.7947 192.47 L -58.2842 195.561 " />
<circle cx ="-68" cy ="8.33e-15" r ="3" /><path id= "44" d=" M -180 5 L -180 -5 " />
<path id= "45" d=" M -204 5 L -180 5 " />
<path id= "46" d=" M -180 -5 L -204 -5 " />
<path id= "47" d=" M -204 -5 L -204 5 " />
<circle cx ="-21.0132" cy ="64.6718" r ="3" /><circle cx ="-55.0132" cy ="39.9694" r ="3" /><circle cx ="21.0132" cy ="64.6718" r ="3" /><path d="M36 0 A36 36 0 0 1 29.1246 21.1603" /><path d="M29.1246 -21.1603 A36 36 0 0 1 36 -8.81746e-15" /><path d="M29.1246 21.1603 A36 36 0 0 1 11.1246 34.238" /><path d="M11.1246 -34.238 A36 36 0 0 1 29.1246 -21.1603" /><path d="M11.1246 34.238 A36 36 0 0 1 -11.1246 34.238" /><path d="M-11.1246 -34.238 A36 36 0 0 1 11.1246 -34.238" /><path d="M-11.1246 34.238 A36 36 0 0 1 -29.1246 21.1603" /><path d="M-29.1246 -21.1603 A36 36 0 0 1 -11.1246 -34.238" /><path d="M-29.1246 21.1603 A36 36 0 0 1 -36 -2.75657e-14" /><path d="M-36 -2.75657e-14 A36 36 0 0 1 -29.1246 -21.1603" /><circle cx ="55.0132" cy ="39.9694" r ="3" /><path id= "62" d=" M 60.3783 169.645 L 50.8678 172.735 " />
<path id= "63" d=" M 67.7947 192.47 L 60.3783 169.645 " />
<path id= "64" d=" M 50.8678 172.735 L 58.2842 195.561 " />
<path id= "65" d=" M 58.2842 195.561 L 67.7947 192.47 " />
<circle cx ="349.495" cy ="-253.923" r ="3" /><path id= "67" d=" M 330.594 -131.416 L 475.786 -236.905 " />
<path d="M344.701 -88 A24 24 0 0 1 330.594 -131.416" /><path d="M475.786 -236.905 A24 24 0 0 1 511.828 -227.227" /><path id= "70" d=" M 524.168 -88 L 344.701 -88 " />
<path d="M511.828 -227.227 A560 560 0 0 1 547.638 -117.015" /><path d="M547.638 -117.015 A24 24 0 0 1 524.168 -88" /><path id= "73" d=" M 298.015 -222.701 L 303.893 -214.611 " />
<path id= "74" d=" M 317.432 -236.808 L 298.015 -222.701 " />
<path id= "75" d=" M 323.31 -228.718 L 317.432 -236.808 " />
<path id= "76" d=" M 303.893 -214.611 L 323.31 -228.718 " />
<path id= "77" d=" M 220.35 -166.274 L 226.228 -158.184 " />
<path id= "78" d=" M 239.766 -180.381 L 220.35 -166.274 " />
<path id= "79" d=" M 245.644 -172.29 L 239.766 -180.381 " />
<path id= "80" d=" M 226.228 -158.184 L 245.644 -172.29 " />
<circle cx ="271.83" cy ="-197.496" r ="3" /><path id= "82" d=" M 142.684 -109.846 L 148.562 -101.756 " />
<path id= "83" d=" M 162.101 -123.953 L 142.684 -109.846 " />
<path id= "84" d=" M 167.978 -115.863 L 162.101 -123.953 " />
<path id= "85" d=" M 148.562 -101.756 L 167.978 -115.863 " />
<circle cx ="-271.83" cy ="-197.496" r ="3" /><path id= "87" d=" M -226.228 -158.184 L -220.35 -166.274 " />
<path id= "88" d=" M -245.644 -172.29 L -226.228 -158.184 " />
<path id= "89" d=" M -220.35 -166.274 L -239.766 -180.381 " />
<path id= "90" d=" M -239.766 -180.381 L -245.644 -172.29 " />
<path id= "91" d=" M -60.3783 -169.645 L -50.8678 -172.735 " />
<path id= "92" d=" M -67.7947 -192.47 L -60.3783 -169.645 " />
<path id= "93" d=" M -50.8678 -172.735 L -58.2842 -195.561 " />
<path id= "94" d=" M -58.2842 -195.561 L -67.7947 -192.47 " />
<path id= "95" d=" M -148.562 -101.756 L -142.684 -109.846 " />
<path id= "96" d=" M -167.978 -115.863 L -148.562 -101.756 " />
<path id= "97" d=" M -142.684 -109.846 L -162.101 -123.953 " />
<path id= "98" d=" M -162.101 -123.953 L -167.978 -115.863 " />
<path id= "99" d=" M 50.8678 -172.735 L 60.3783 -169.645 " />
<path id= "100" d=" M 58.2842 -195.561 L 50.8678 -172.735 " />
<path id= "101" d=" M 60.3783 -169.645 L 67.7947 -192.47 " />
<path id= "102" d=" M 67.7947 -192.47 L 58.2842 -195.561 " />
<circle cx ="55.0132" cy ="-39.9694" r ="3" /><circle cx ="-21.0132" cy ="-64.6718" r ="3" /><circle cx ="21.0132" cy ="-64.6718" r ="3" /><circle cx ="-55.0132" cy ="-39.9694" r ="3" /><path id= "107" d=" M 303.893 214.611 L 298.015 222.701 " />
<path id= "108" d=" M 323.31 228.718 L 303.893 214.611 " />
<path id= "109" d=" M 298.015 222.701 L 317.432 236.808 " />
<path id= "110" d=" M 317.432 236.808 L 323.31 228.718 " />
<path id= "111" d=" M 344.701 88 L 524.168 88 " />
<path d="M330.594 131.416 A24 24 0 0 1 344.701 88" /><path d="M524.168 88 A24 24 0 0 1 547.638 117.015" /><path id= "114" d=" M 475.786 236.905 L 330.594 131.416 " />
<path d="M547.638 117.015 A560 560 0 0 1 511.828 227.227" /><path d="M511.828 227.227 A24 24 0 0 1 475.786 236.905" /><path id= "117" d=" M -330.594 131.416 L -475.786 236.905 " />
<path d="M-344.701 88 A24 24 0 0 1 -330.594 131.416" /><path d="M-475.786 236.905 A24 24 0 0 1 -511.828 227.227" /><path id= "120" d=" M -524.168 88 L -344.701 88 " />
<path d="M-511.828 227.227 A560 560 0 0 1 -547.638 117.015" /><path d="M-547.638 117.015 A24 24 0 0 1 -524.168 88" /><path id= "123" d=" M -298.015 222.701 L -303.893 214.611 " />
<path id= "124" d=" M -317.432 236.808 L -298.015 222.701 " />
<path id= "125" d=" M -303.893 214.611 L -323.31 228.718 " />
<path id= "126" d=" M -323.31 228.718 L -317.432 236.808 " />
<path id= "127" d=" M -468 5 L -468 -5 " />
<path id= "128" d=" M -492 5 L -468 5 " />
<path id= "129" d=" M -468 -5 L -492 -5 " />
<path id= "130" d=" M -492 -5 L -492 5 " />
<path id= "131" d=" M -372 5 L -372 -5 " />
<path id= "132" d=" M -396 5 L -372 5 " />
<path id= "133" d=" M -372 -5 L -396 -5 " />
<path id= "134" d=" M -396 -5 L -396 5 " />
<circle cx ="-432" cy ="5.29e-14" r ="3" /><circle cx ="-336" cy ="4.115e-14" r ="3" /><path id= "137" d=" M -276 5 L -276 -5 " />
<path id= "138" d=" M -300 5 L -276 5 " />
<path id= "139" d=" M -276 -5 L -300 -5 " />
<path id= "140" d=" M -300 -5 L -300 5 " />
<path id= "141" d=" M -344.701 -88 L -524.168 -88 " />
<path d="M-330.594 -131.416 A24 24 0 0 1 -344.701 -88" /><path d="M-524.168 -88 A24 24 0 0 1 -547.638 -117.015" /><path id= "144" d=" M -475.786 -236.905 L -330.594 -131.416 " />
<path d="M-547.638 -117.015 A560 560 0 0 1 -511.828 -227.227" /><path d="M-511.828 -227.227 A24 24 0 0 1 -475.786 -236.905" /><path id= "147" d=" M -303.893 -214.611 L -298.015 -222.701 " />
<path id= "148" d=" M -323.31 -228.718 L -303.893 -214.611 " />
<path id= "149" d=" M -298.015 -222.701 L -317.432 -236.808 " />
<path id= "150" d=" M -317.432 -236.808 L -323.31 -228.718 " />
<circle cx ="-349.495" cy ="-253.923" r ="3" /><circle cx ="-528.637" cy ="-323.949" r ="3" /><path id= "153" d=" M -381.559 -271.038 L -375.681 -279.129 " />
<path id= "154" d=" M -400.975 -285.145 L -381.559 -271.038 " />
<path id= "155" d=" M -375.681 -279.129 L -395.097 -293.235 " />
<path id= "156" d=" M -395.097 -293.235 L -400.975 -285.145 " />
<circle cx ="-402.658" cy ="-471.452" r ="3" /><circle cx ="-471.452" cy ="-402.658" r ="3" /><circle cx ="-103.83" cy ="-319.555" r ="3" /><path id= "160" d=" M -149.375 -443.549 L -139.865 -446.64 " />
<path id= "161" d=" M -156.792 -466.375 L -149.375 -443.549 " />
<path id= "162" d=" M -139.865 -446.64 L -147.281 -469.465 " />
<path id= "163" d=" M -147.281 -469.465 L -156.792 -466.375 " />
<path id= "164" d=" M -90.044 -260.947 L -80.5334 -264.037 " />
<path id= "165" d=" M -97.4604 -283.772 L -90.044 -260.947 " />
<path id= "166" d=" M -80.5334 -264.037 L -87.9498 -286.862 " />
<path id= "167" d=" M -87.9498 -286.862 L -97.4604 -283.772 " />
<path id= "168" d=" M 190.211 -300.636 L 245.67 -471.32 " />
<path d="M227.144 -273.803 A24 24 0 0 1 190.211 -300.636" /><path d="M245.67 -471.32 A24 24 0 0 1 280.517 -484.675" /><path id= "171" d=" M 372.336 -379.292 L 227.144 -273.803 " />
<path d="M280.517 -484.675 A560 560 0 0 1 374.269 -416.561" /><path d="M374.269 -416.561 A24 24 0 0 1 372.336 -379.292" /><path id= "174" d=" M 375.681 -279.129 L 381.559 -271.038 " />
<path id= "175" d=" M 395.097 -293.235 L 375.681 -279.129 " />
<path id= "176" d=" M 400.975 -285.145 L 395.097 -293.235 " />
<path id= "177" d=" M 381.559 -271.038 L 400.975 -285.145 " />
<circle cx ="402.658" cy ="-471.452" r ="3" /><path id= "179" d=" M 80.5334 -264.037 L 90.044 -260.947 " />
<path id= "180" d=" M 87.9498 -286.862 L 80.5334 -264.037 " />
<path id= "181" d=" M 90.044 -260.947 L 97.4604 -283.772 " />
<path id= "182" d=" M 97.4604 -283.772 L 87.9498 -286.862 " />
<circle cx ="103.83" cy ="-319.555" r ="3" /><circle cx ="528.637" cy ="-323.949" r ="3" /><circle cx ="471.452" cy ="-402.658" r ="3" /><path id= "186" d=" M 381.559 271.038 L 375.681 279.129 " />
<path id= "187" d=" M 400.975 285.145 L 381.559 271.038 " />
<path id= "188" d=" M 375.681 279.129 L 395.097 293.235 " />
<path id= "189" d=" M 395.097 293.235 L 400.975 285.145 " />
<circle cx ="402.658" cy ="471.452" r ="3" /><path id= "191" d=" M 227.144 273.803 L 372.336 379.292 " />
<path d="M372.336 379.292 A24 24 0 0 1 374.269 416.561" /><path d="M374.269 416.561 A560 560 0 0 1 280.517 484.675" /><path d="M280.517 484.675 A24 24 0 0 1 245.67 471.32" /><path id= "195" d=" M 245.67 471.32 L 190.211 300.636 " />
<path d="M190.211 300.636 A24 24 0 0 1 227.144 273.803" /><circle cx ="133.495" cy ="410.856" r ="3" /><path id= "198" d=" M 149.375 443.549 L 139.865 446.64 " />
<path id= "199" d=" M 156.792 466.375 L 149.375 443.549 " />
<path id= "200" d=" M 139.865 446.64 L 147.281 469.465 " />
<path id= "201" d=" M 147.281 469.465 L 156.792 466.375 " />
<circle cx ="323.949" cy ="528.637" r ="3" /><circle cx ="103.83" cy ="319.555" r ="3" /><path id= "204" d=" M 119.71 352.248 L 110.199 355.338 " />
<path id= "205" d=" M 127.126 375.073 L 119.71 352.248 " />
<path id= "206" d=" M 110.199 355.338 L 117.615 378.163 " />
<path id= "207" d=" M 117.615 378.163 L 127.126 375.073 " />
<path id= "208" d=" M 90.044 260.947 L 80.5334 264.037 " />
<path id= "209" d=" M 97.4604 283.772 L 90.044 260.947 " />
<path id= "210" d=" M 80.5334 264.037 L 87.9498 286.862 " />
<path id= "211" d=" M 87.9498 286.862 L 97.4604 283.772 " />
<path id= "212" d=" M -190.211 300.636 L -245.67 471.32 " />
<path d="M-227.144 273.803 A24 24 0 0 1 -190.211 300.636" /><path d="M-245.67 471.32 A24 24 0 0 1 -280.517 484.675" /><path id= "215" d=" M -372.336 379.292 L -227.144 273.803 " />
<path d="M-280.517 484.675 A560 560 0 0 1 -374.269 416.561" /><path d="M-374.269 416.561 A24 24 0 0 1 -372.336 379.292" /><path id= "218" d=" M -375.681 279.129 L -381.559 271.038 " />
<path id= "219" d=" M -395.097 293.235 L -375.681 279.129 " />
<path id= "220" d=" M -381.559 271.038 L -400.975 285.145 " />
<path id= "221" d=" M -400.975 285.145 L -395.097 293.235 " />
<circle cx ="-402.658" cy ="471.452" r ="3" /><circle cx ="-323.949" cy ="528.637" r ="3" /><path id= "224" d=" M -139.865 446.64 L -149.375 443.549 " />
<path id= "225" d=" M -147.281 469.465 L -139.865 446.64 " />
<path id= "226" d=" M -149.375 443.549 L -156.792 466.375 " />
<path id= "227" d=" M -156.792 466.375 L -147.281 469.465 " />
<path id= "228" d=" M 22.8254 355.023 L 78.2838 525.707 " />
<path d="M-22.8254 355.023 A24 24 0 0 1 22.8254 355.023" /><path d="M78.2838 525.707 A24 24 0 0 1 57.9417 556.994" /><path id= "231" d=" M -78.2838 525.707 L -22.8254 355.023 " />
<path d="M57.9417 556.994 A560 560 0 0 1 -57.9417 556.994" /><path d="M-57.9417 556.994 A24 24 0 0 1 -78.2838 525.707" /><path id= "234" d=" M -110.199 355.338 L -119.71 352.248 " />
<path id= "235" d=" M -117.615 378.163 L -110.199 355.338 " />
<path id= "236" d=" M -119.71 352.248 L -127.126 375.073 " />
<path id= "237" d=" M -127.126 375.073 L -117.615 378.163 " />
<circle cx ="-133.495" cy ="410.856" r ="3" /><path id= "239" d=" M -80.5334 264.037 L -90.044 260.947 " />
<path id= "240" d=" M -87.9498 286.862 L -80.5334 264.037 " />
<path id= "241" d=" M -90.044 260.947 L -97.4604 283.772 " />
<path id= "242" d=" M -97.4604 283.772 L -87.9498 286.862 " />
<circle cx ="-349.495" cy ="253.923" r ="3" /><circle cx ="349.495" cy ="253.923" r ="3" /><circle cx ="-528.637" cy ="323.949" r ="3" /><circle cx ="471.452" cy ="402.658" r ="3" /><circle cx ="528.637" cy ="323.949" r ="3" /><circle cx ="-572.805" cy ="237.264" r ="3" /><circle cx ="-572.805" cy ="-237.264" r ="3" /><path id= "250" d=" M 139.865 -446.64 L 149.375 -443.549 " />
<path id= "251" d=" M 147.281 -469.465 L 139.865 -446.64 " />
<path id= "252" d=" M 149.375 -443.549 L 156.792 -466.375 " />
<path id= "253" d=" M 156.792 -466.375 L 147.281 -469.465 " />
<path id= "254" d=" M 110.199 -355.338 L 119.71 -352.248 " />
<path id= "255" d=" M 117.615 -378.163 L 110.199 -355.338 " />
<path id= "256" d=" M 119.71 -352.248 L 127.126 -375.073 " />
<path id= "257" d=" M 127.126 -375.073 L 117.615 -378.163 " />
<circle cx ="133.495" cy ="-410.856" r ="3" /><path id= "259" d=" M -119.71 -352.248 L -110.199 -355.338 " />
<path id= "260" d=" M -127.126 -375.073 L -119.71 -352.248 " />
<path id= "261" d=" M -110.199 -355.338 L -117.615 -378.163 " />
<path id= "262" d=" M -117.615 -378.163 L -127.126 -375.073 " />
<circle cx ="-144.736" cy ="-602.869" r ="3" /><circle cx ="237.264" cy ="-572.805" r ="3" /><circle cx ="144.736" cy ="-602.869" r ="3" /><circle cx ="-323.949" cy ="-528.637" r ="3" /><path id= "267" d=" M -227.144 -273.803 L -372.336 -379.292 " />
<path d="M-190.211 -300.636 A24 24 0 0 1 -227.144 -273.803" /><path d="M-372.336 -379.292 A24 24 0 0 1 -374.269 -416.561" /><path id= "270" d=" M -245.67 -471.32 L -190.211 -300.636 " />
<path d="M-374.269 -416.561 A560 560 0 0 1 -280.517 -484.675" /><path d="M-280.517 -484.675 A24 24 0 0 1 -245.67 -471.32" /><circle cx ="-133.495" cy ="-410.856" r ="3" /><path id= "274" d=" M -22.8254 -355.023 L -78.2838 -525.707 " />
<path d="M22.8254 -355.023 A24 24 0 0 1 -22.8254 -355.023" /><path d="M-78.2838 -525.707 A24 24 0 0 1 -57.9417 -556.994" /><path id= "277" d=" M 78.2838 -525.707 L 22.8254 -355.023 " />
<path d="M-57.9417 -556.994 A560 560 0 0 1 57.9417 -556.994" /><path d="M57.9417 -556.994 A24 24 0 0 1 78.2838 -525.707" /><circle cx ="-237.264" cy ="-572.805" r ="3" /><circle cx ="323.949" cy ="-528.637" r ="3" /><circle cx ="-618.089" cy ="48.6446" r ="3" /><circle cx ="-618.089" cy ="-48.6446" r ="3" /><circle cx ="-602.869" cy ="144.736" r ="3" /><circle cx ="-602.869" cy ="-144.736" r ="3" /><circle cx ="-103.83" cy ="319.555" r ="3" /><circle cx ="-471.452" cy ="402.658" r ="3" /><circle cx ="-237.264" cy ="572.805" r ="3" /><circle cx ="237.264" cy ="572.805" r ="3" /><circle cx ="-48.6446" cy ="-618.089" r ="3" /><circle cx ="48.6446" cy ="-618.089" r ="3" /><circle cx ="602.869" cy ="144.736" r ="3" /><circle cx ="572.805" cy ="237.264" r ="3" /><circle cx ="602.869" cy ="-144.736" r ="3" /><circle cx ="572.805" cy ="-237.264" r ="3" /><circle cx ="-48.6446" cy ="618.089" r ="3" /><circle cx ="48.6446" cy ="618.089" r ="3" /><circle cx ="144.736" cy ="602.869" r ="3" /><circle cx ="-144.736" cy ="602.869" r ="3" /><circle cx ="618.089" cy ="48.6446" r ="3" /><circle cx ="618.089" cy ="-48.6446" r ="3" /></g>
</g>



<g id="View018"
   transform="rotate(90,80,1460) translate(80,1460) scale(1,1)"
  >
<g   fill="none"
   stroke="rgb(0, 0, 0)"
   stroke-linecap="butt"
   stroke-linejoin="miter"
   stroke-width="0.350000"
   transform="scale(1,-1)"
  >
<path id= "1" d=" M 20 511.34 L 45 80 " />
<path id= "2" d=" M 20 511.34 L 5 520 " />
<path id= "3" d=" M 45 80 L 35 80 " />
<path id= "4" d=" M 5 492 L 5 520 " />
<path id= "5" d=" M -5 492 L 5 492 " />
<path id= "6" d=" M -5 468 L -5 492 " />
<path id= "7" d=" M 5 468 L -5 468 " />
<path id= "8" d=" M 5 300 L 5 468 " />
<path id= "9" d=" M -5 300 L 5 300 " />
<path id= "10" d=" M -5 276 L -5 300 " />
<path id= "11" d=" M 5 276 L -5 276 " />
<path id= "12" d=" M 5 108 L 5 276 " />
<path id= "13" d=" M 5 108 L 5 84 " />
<path id= "14" d=" M 5 56 L 5 84 " />
<path id= "15" d=" M 35 56 L 5 56 " />
<path id= "16" d=" M 35 80 L 35 56 " />
</g>
</g>



<g id="View019"
   transform="rotate(90,80,1440) translate(80,1440) scale(1,1)"
  >
<g   fill="none"
   stroke="rgb(0, 0, 0)"
   stroke-linecap="butt"
   stroke-linejoin="miter"
   stroke-width="0.350000"
   transform="scale(1,-1)"
  >
<path id= "1" d=" M -5 420 L -20 411.34 " />
<path id= "2" d=" M -5 420 L -5 396 " />
<path id= "3" d=" M -20 411.34 L -45 80 " />
<path id= "4" d=" M -5 396 L 5 396 " />
<path id= "5" d=" M 5 372 L 5 396 " />
<path id= "6" d=" M 5 372 L -5 372 " />
<path id= "7" d=" M -5 372 L -5 204 " />
<path id= "8" d=" M -5 204 L 5 204 " />
<path id= "9" d=" M 5 180 L 5 204 " />
<path id= "10" d=" M 5 180 L -5 180 " />
<path id= "11" d=" M -5 180 L -5 56 " />
<path id= "12" d=" M -35 56 L -5 56 " />
<path id= "13" d=" M -35 80 L -35 56 " />
<path id= "14" d=" M -45 80 L -35 80 " />
</g>
</g>



<g id="View020"
   transform="rotate(0,200,1280) translate(200,1280) scale(1,1)"
  >
<g   fill="none"
   stroke="rgb(0, 0, 0)"
   stroke-linecap="butt"
   stroke-linejoin="miter"
   stroke-width="0.350000"
   transform="scale(1,-1)"
  >
<circle cx ="0" cy ="0" r ="80" /><circle cx ="-55.0132" cy ="39.9694" r ="3" /><circle cx ="-55.0132" cy ="-39.9694" r ="3" /><circle cx ="21.0132" cy ="-64.6718" r ="3" /><circle cx ="0" cy ="0" r ="17.5" /><circle cx ="-21.0132" cy ="-64.6718" r ="3" /><circle cx ="55.0132" cy ="39.9694" r ="3" /><circle cx ="55.0132" cy ="-39.9694" r ="3" /><circle cx ="21.0132" cy ="64.6718" r ="3" /><circle cx ="-21.0132" cy ="64.6718" r ="3" /><circle cx ="-68" cy ="0" r ="3" /><circle cx ="68" cy ="0" r ="3" /></g>
</g>



</svg>

